<svg width="40" height="40" viewBox="0 0 40 40" fill="none" xmlns="http://www.w3.org/2000/svg">
<g clip-path="url(#clip0_119_5)">
<path d="M12.8828 1.92193C12.2812 0.468803 10.6953 -0.304635 9.17969 0.109428L2.30469 1.98443C0.945312 2.35943 0 3.5938 0 5.00005C0 24.3282 15.6719 40.0001 35 40.0001C36.4062 40.0001 37.6406 39.0547 38.0156 37.6954L39.8906 30.8204C40.3047 29.3047 39.5312 27.7188 38.0781 27.1172L30.5781 23.9922C29.3047 23.461 27.8281 23.8282 26.9609 24.8985L23.8047 28.7501C18.3047 26.1485 13.8516 21.6954 11.25 16.1954L15.1016 13.0469C16.1719 12.1719 16.5391 10.7032 16.0078 9.42974L12.8828 1.92974V1.92193Z" fill="white"/>
</g>
<defs>
<clipPath id="clip0_119_5">
<rect width="40" height="40" fill="white"/>
</clipPath>
</defs>
</svg>
