<svg width="45" height="40" viewBox="0 0 45 40" fill="none" xmlns="http://www.w3.org/2000/svg">
<g clip-path="url(#clip0_119_7)">
<path d="M0 10C0 7.24219 2.23222 5 4.97778 5H24.8889C27.6344 5 29.8667 7.24219 29.8667 10V30C29.8667 32.7578 27.6344 35 24.8889 35H4.97778C2.23222 35 0 32.7578 0 30V10ZM43.4855 7.79688C44.2944 8.23438 44.8 9.07812 44.8 10V30C44.8 30.9219 44.2944 31.7656 43.4855 32.2031C42.6767 32.6406 41.6967 32.5938 40.9267 32.0781L33.46 27.0781L32.3556 26.3359V25V15V13.6641L33.46 12.9219L40.9267 7.92188C41.6889 7.41406 42.6689 7.35938 43.4855 7.79688Z" fill="white"/>
</g>
<defs>
<clipPath id="clip0_119_7">
<rect width="44.8" height="40" fill="white"/>
</clipPath>
</defs>
</svg>
