<svg width="1592" height="195" viewBox="0 0 1592 195" fill="none" xmlns="http://www.w3.org/2000/svg">
<path d="M44.85 137.2C60.35 137.2 68.1 131.65 68.1 120.55C68.1 112.45 66.2 107.35 62.4 105.25C58.7 103.05 50.3 101.95 37.2 101.95L36.6 136.9C40 137.1 42.75 137.2 44.85 137.2ZM43.95 89.65C51.65 89.45 57.1 88.45 60.3 86.65C63.5 84.85 65.1 81.1 65.1 75.4C65.1 69.6 63.25 65.75 59.55 63.85C55.85 61.95 50.25 61 42.75 61H37.35C37.15 73.6 37.05 83.1 37.05 89.5L43.95 89.65ZM44.1 151.15H7.05L5.7 142.9C10.9 140.8 15.1 139.35 18.3 138.55C18.3 138.25 17.85 111.8 16.95 59.2C15.35 58.8 11.2 57.5 4.5 55.3L5.7 46.15H47.25C59.15 46.15 68.4 48.45 75 53.05C81.6 57.65 84.9 64.3 84.9 73C84.9 77.2 83.75 81.75 81.45 86.65C79.25 91.55 76.7 94.45 73.8 95.35C78.2 97.75 81.65 101.1 84.15 105.4C86.65 109.7 87.9 114.65 87.9 120.25C87.9 129.45 84.15 136.9 76.65 142.6C69.15 148.3 58.3 151.15 44.1 151.15ZM130.332 74.2C132.232 74.2 133.432 74.25 133.932 74.35C133.932 79.25 133.082 83.8 131.382 88C130.982 109.6 130.732 125.8 130.632 136.6L142.332 137.95C142.332 142.05 141.182 146.4 138.882 151H101.532L100.182 142.75C106.382 140.45 110.882 138.95 113.682 138.25L112.032 89.65C106.132 89.05 101.782 88.3 98.9824 87.4C98.9824 84.9 99.3324 81.3 100.032 76.6C105.932 75 116.032 74.2 130.332 74.2ZM130.332 45.85C131.232 50.35 131.682 53.8 131.682 56.2C131.682 58.5 131.482 61.1 131.082 64C127.082 64.9 123.682 65.35 120.882 65.35C118.182 65.35 114.882 65.2 110.982 64.9C110.082 60.4 109.632 57 109.632 54.7C109.632 52.3 109.832 49.65 110.232 46.75C114.232 45.85 117.582 45.4 120.282 45.4C123.082 45.4 126.432 45.55 130.332 45.85ZM189.525 89.2C189.325 88.7 188.325 88.45 186.525 88.45C184.725 88.45 181.625 89.8 177.225 92.5C176.825 112.1 176.575 126.8 176.475 136.6L188.175 138.1C188.175 142.4 187.025 146.7 184.725 151H147.375L146.025 142.75C152.225 140.45 156.725 138.95 159.525 138.25L157.875 89.65C152.675 89.25 148.325 88.5 144.825 87.4L145.875 76.6C148.575 75.4 158.325 74.6 175.125 74.2C176.025 75.1 176.475 76.85 176.475 79.45C185.275 75.15 190.825 73 193.125 73C195.525 73 198.425 73.6 201.825 74.8C205.325 75.9 207.975 77.1 209.775 78.4V80.95C209.775 89.15 208.775 96.75 206.775 103.75C205.075 104.45 202.825 104.8 200.025 104.8C197.225 104.8 194.625 104.65 192.225 104.35C191.925 103.05 191.025 98 189.525 89.2ZM254.058 85.45L251.658 85.3C246.058 85.3 241.558 87.25 238.158 91.15C234.858 94.95 233.208 101.4 233.208 110.5C233.208 119.5 234.458 126.35 236.958 131.05C239.558 135.75 244.508 138.1 251.808 138.1C255.208 138.1 262.408 135.8 273.408 131.2C275.908 134.7 277.258 138.35 277.458 142.15C271.958 145.55 266.558 148.2 261.258 150.1C256.058 152 252.358 152.95 250.158 152.95C237.858 152.95 228.658 149.6 222.558 142.9C216.458 136.1 213.408 126.6 213.408 114.4C213.408 86.8 225.858 73 250.758 73C255.058 73 259.458 73.55 263.958 74.65C268.558 75.65 272.158 76.95 274.758 78.55C274.458 88.55 273.358 95.8 271.458 100.3C268.158 101.1 263.508 101.5 257.508 101.5L254.058 85.45ZM313.11 39.55L316.71 39.7C316.71 44.9 316.06 49.45 314.76 53.35C314.56 64.75 314.46 73.3 314.46 79C317.66 77.6 321.31 76.25 325.41 74.95C329.51 73.65 332.06 73 333.06 73C343.26 73 350.56 75.3 354.96 79.9C359.46 84.5 361.71 91.75 361.71 101.65C361.71 102.65 361.21 114.3 360.21 136.6L371.91 138.1C371.91 142.4 370.76 146.7 368.46 151H331.11L329.76 142.75C336.46 140.05 340.76 138.6 342.66 138.4C342.46 127.6 342.21 118.05 341.91 109.75C341.61 101.35 340.81 95.8 339.51 93.1C338.21 90.4 336.11 89.05 333.21 89.05C330.41 89.05 327.16 89.4 323.46 90.1C319.86 90.7 317.06 91.45 315.06 92.35L313.41 136.6L325.11 137.95C325.11 142.05 323.96 146.4 321.66 151H284.31L282.96 142.75C289.16 140.45 293.66 138.95 296.46 138.25L293.61 55C288.91 54.5 284.96 53.75 281.76 52.75C281.76 50.25 282.11 46.65 282.81 41.95C288.71 40.35 298.81 39.55 313.11 39.55ZM402.688 39.55C405.088 39.55 406.638 39.6 407.338 39.7C407.338 44.9 406.688 49.45 405.388 53.35L404.938 78.55C414.238 74.85 420.638 73 424.138 73C434.038 73 441.338 76.7 446.038 84.1C450.838 91.4 453.238 100.9 453.238 112.6C453.238 124.3 450.588 133.95 445.288 141.55C439.988 149.05 432.288 152.8 422.188 152.8C415.588 152.8 408.638 150.3 401.338 145.3C400.938 147.6 400.338 149.7 399.538 151.6C397.738 151.8 395.938 151.9 394.138 151.9C392.338 151.9 390.088 151.6 387.388 151L384.238 55C379.538 54.5 375.588 53.75 372.388 52.75C372.388 49.05 372.738 45.45 373.438 41.95C379.238 40.35 388.988 39.55 402.688 39.55ZM421.588 88.75C415.088 88.75 409.488 89.9 404.788 92.2C404.588 109 404.388 121.7 404.188 130.3C406.588 132.3 409.338 134.1 412.438 135.7C415.538 137.3 418.188 138.1 420.388 138.1C429.088 138.1 433.438 130.1 433.438 114.1C433.438 107.3 432.488 101.4 430.588 96.4C428.788 91.3 425.788 88.75 421.588 88.75ZM483.582 152.8C475.082 152.8 468.482 151.05 463.782 147.55C459.182 144.05 456.882 138.15 456.882 129.85C456.882 121.95 459.632 115.5 465.132 110.5C468.332 107.6 472.782 105.9 478.482 105.4C484.182 104.9 492.032 104.65 502.032 104.65V102.25C502.032 96.15 501.032 91.7 499.032 88.9C497.132 86 493.732 84.55 488.832 84.55C486.332 84.55 484.082 85.05 482.082 86.05L478.482 99.1L467.382 98.8C464.882 95 463.532 88.95 463.332 80.65C465.332 79.65 470.032 78.15 477.432 76.15C484.832 74.05 489.582 73 491.682 73C502.482 73 510.332 75.25 515.232 79.75C520.132 84.15 522.582 91.2 522.582 100.9C522.582 110.5 522.132 123.2 521.232 139C526.932 139.5 531.332 140.35 534.432 141.55C534.532 142.75 534.582 144.2 534.582 145.9L534.432 149.2C527.232 151.6 519.982 152.8 512.682 152.8C510.782 152.8 509.382 152.75 508.482 152.65C506.982 149.65 506.082 146.05 505.782 141.85H505.032C503.132 143.65 499.782 145.95 494.982 148.75C490.282 151.45 486.482 152.8 483.582 152.8ZM476.082 130.75C476.082 134.05 477.082 136.5 479.082 138.1C481.182 139.6 483.532 140.35 486.132 140.35C488.732 140.35 491.832 139.2 495.432 136.9C499.032 134.5 501.932 132.35 504.132 130.45L503.382 116.65C495.482 117.05 489.532 117.8 485.532 118.9C479.232 120.2 476.082 124.15 476.082 130.75ZM580.492 89.2C580.292 88.7 579.292 88.45 577.492 88.45C575.692 88.45 572.592 89.8 568.192 92.5C567.792 112.1 567.542 126.8 567.442 136.6L579.142 138.1C579.142 142.4 577.992 146.7 575.692 151H538.342L536.992 142.75C543.192 140.45 547.692 138.95 550.492 138.25L548.842 89.65C543.642 89.25 539.292 88.5 535.792 87.4L536.842 76.6C539.542 75.4 549.292 74.6 566.092 74.2C566.992 75.1 567.442 76.85 567.442 79.45C576.242 75.15 581.792 73 584.092 73C586.492 73 589.392 73.6 592.792 74.8C596.292 75.9 598.942 77.1 600.742 78.4V80.95C600.742 89.15 599.742 96.75 597.742 103.75C596.042 104.45 593.792 104.8 590.992 104.8C588.192 104.8 585.592 104.65 583.192 104.35C582.892 103.05 581.992 98 580.492 89.2ZM633.625 125.05L633.475 136.6L645.175 137.95C645.175 142.05 644.025 146.4 641.725 151H604.375L603.025 142.75C609.225 140.45 613.725 138.95 616.525 138.25L613.675 55C608.975 54.5 605.025 53.75 601.825 52.75C601.825 49.05 602.175 45.45 602.875 41.95C608.775 40.35 618.875 39.55 633.175 39.55C635.075 39.55 636.275 39.6 636.775 39.7C636.775 44.9 636.125 49.45 634.825 53.35C634.225 77.35 633.925 95.15 633.925 106.75L651.775 89.05L642.475 87.85C642.475 83.75 643.625 79.4 645.925 74.8H683.275L684.625 83.05C678.425 85.35 673.925 86.85 671.125 87.55L654.625 104.05L675.625 136.6L687.325 137.95C687.325 142.05 686.175 146.4 683.875 151H664.675L642.475 116.2L633.625 125.05ZM803.363 138.4L802.763 103H763.463C763.263 118 763.163 129.2 763.163 136.6L773.513 137.95C773.513 142.05 772.363 146.4 770.063 151H733.613L732.263 142.75C737.863 140.45 742.063 139 744.863 138.4C744.863 138.1 744.413 111.65 743.513 59.05L731.063 55.15L732.263 46H771.113C772.713 48.7 773.663 52.65 773.963 57.85C768.863 58.65 765.513 59.15 763.913 59.35C763.713 72.35 763.613 82.1 763.613 88.6H802.463L802.013 59.05L789.563 55.15L790.763 46H829.613C831.213 48.7 832.163 52.65 832.463 57.85C827.363 58.65 824.013 59.15 822.413 59.35L821.663 136.6L832.013 137.95C832.013 142.05 830.863 146.4 828.563 151H792.113L790.763 142.75C796.363 140.45 800.563 139 803.363 138.4ZM882.734 138.1C886.134 138.1 893.034 135.75 903.434 131.05C905.634 134.25 907.284 137.95 908.384 142.15C902.884 145.55 897.484 148.2 892.184 150.1C886.984 151.9 883.284 152.8 881.084 152.8C868.984 152.8 859.784 149.45 853.484 142.75C847.284 136.05 844.184 126.55 844.184 114.25C844.184 101.85 847.284 91.9 853.484 84.4C859.684 76.8 868.884 73 881.084 73C890.784 73 898.184 76.15 903.284 82.45C908.384 88.75 910.934 96.95 910.934 107.05C910.934 109.15 909.734 111.55 907.334 114.25L864.134 113.5C864.334 121.5 865.834 127.6 868.634 131.8C871.434 136 876.134 138.1 882.734 138.1ZM879.734 85.45C875.934 85.45 872.384 86.2 869.084 87.7C866.784 92.5 865.334 96.95 864.734 101.05C872.534 100.75 881.384 100.55 891.284 100.45C890.784 90.45 886.934 85.45 879.734 85.45ZM947.791 152.8C939.291 152.8 932.691 151.05 927.991 147.55C923.391 144.05 921.091 138.15 921.091 129.85C921.091 121.95 923.841 115.5 929.341 110.5C932.541 107.6 936.991 105.9 942.691 105.4C948.391 104.9 956.241 104.65 966.241 104.65V102.25C966.241 96.15 965.241 91.7 963.241 88.9C961.341 86 957.941 84.55 953.041 84.55C950.541 84.55 948.291 85.05 946.291 86.05L942.691 99.1L931.591 98.8C929.091 95 927.741 88.95 927.541 80.65C929.541 79.65 934.241 78.15 941.641 76.15C949.041 74.05 953.791 73 955.891 73C966.691 73 974.541 75.25 979.441 79.75C984.341 84.15 986.791 91.2 986.791 100.9C986.791 110.5 986.341 123.2 985.441 139C991.141 139.5 995.541 140.35 998.641 141.55C998.741 142.75 998.791 144.2 998.791 145.9L998.641 149.2C991.441 151.6 984.191 152.8 976.891 152.8C974.991 152.8 973.591 152.75 972.691 152.65C971.191 149.65 970.291 146.05 969.991 141.85H969.241C967.341 143.65 963.991 145.95 959.191 148.75C954.491 151.45 950.691 152.8 947.791 152.8ZM940.291 130.75C940.291 134.05 941.291 136.5 943.291 138.1C945.391 139.6 947.741 140.35 950.341 140.35C952.941 140.35 956.041 139.2 959.641 136.9C963.241 134.5 966.141 132.35 968.341 130.45L967.591 116.65C959.691 117.05 953.741 117.8 949.741 118.9C943.441 120.2 940.291 124.15 940.291 130.75ZM1030 39.55C1031.9 39.55 1033.1 39.6 1033.6 39.7C1033.6 44.9 1032.95 49.45 1031.65 53.35C1031.55 59.55 1031.4 68.3 1031.2 79.6C1030.8 104.4 1030.5 123.4 1030.3 136.6L1042 137.95C1042 142.05 1040.85 146.4 1038.55 151H1001.2L999.851 142.75C1006.05 140.45 1010.55 138.95 1013.35 138.25L1010.5 55C1005.8 54.5 1001.85 53.75 998.651 52.75C998.651 49.05 999.001 45.45 999.701 41.95C1005.6 40.35 1015.7 39.55 1030 39.55ZM1062.84 152.8L1059.54 152.65C1058.94 151.55 1058.14 149.5 1057.14 146.5C1056.14 143.5 1055.59 141.25 1055.49 139.75C1054.99 129.85 1054.44 112.7 1053.84 88.3H1043.34L1043.79 79.75C1046.09 78.15 1048.84 76.7 1052.04 75.4L1064.19 56.2C1068.09 56.6 1071.14 57.65 1073.34 59.35L1073.19 73.6C1079.49 73.8 1085.34 74.4 1090.74 75.4C1090.74 79.4 1089.49 83.7 1086.99 88.3H1073.04C1072.64 109.3 1072.39 125.05 1072.29 135.55C1076.29 135.95 1081.74 137.1 1088.64 139L1088.49 146.8C1086.79 147.9 1082.99 149.2 1077.09 150.7C1071.29 152.1 1066.54 152.8 1062.84 152.8ZM1126.54 39.55L1130.14 39.7C1130.14 44.9 1129.49 49.45 1128.19 53.35C1127.99 64.75 1127.89 73.3 1127.89 79C1131.09 77.6 1134.74 76.25 1138.84 74.95C1142.94 73.65 1145.49 73 1146.49 73C1156.69 73 1163.99 75.3 1168.39 79.9C1172.89 84.5 1175.14 91.75 1175.14 101.65C1175.14 102.65 1174.64 114.3 1173.64 136.6L1185.34 138.1C1185.34 142.4 1184.19 146.7 1181.89 151H1144.54L1143.19 142.75C1149.89 140.05 1154.19 138.6 1156.09 138.4C1155.89 127.6 1155.64 118.05 1155.34 109.75C1155.04 101.35 1154.24 95.8 1152.94 93.1C1151.64 90.4 1149.54 89.05 1146.64 89.05C1143.84 89.05 1140.59 89.4 1136.89 90.1C1133.29 90.7 1130.49 91.45 1128.49 92.35L1126.84 136.6L1138.54 137.95C1138.54 142.05 1137.39 146.4 1135.09 151H1097.74L1096.39 142.75C1102.59 140.45 1107.09 138.95 1109.89 138.25L1107.04 55C1102.34 54.5 1098.39 53.75 1095.19 52.75C1095.19 50.25 1095.54 46.65 1096.24 41.95C1102.14 40.35 1112.24 39.55 1126.54 39.55Z" fill="white"/>
<path d="M1585.51 100.996C1584.68 100.601 1583.85 100.227 1583.01 99.8654C1585.12 95.0902 1586.61 90.1539 1587.42 85.1883C1590.36 67.1223 1584.74 47.6783 1572.4 33.1753C1561.48 20.3536 1546.44 13 1531.13 13C1524.83 13 1519.72 18.1043 1519.72 24.4001C1519.72 36.9726 1509.48 47.201 1496.89 47.201H1337.11C1324.52 47.201 1314.28 36.9726 1314.28 24.4001C1314.28 18.1043 1309.17 13 1302.87 13C1287.56 13 1272.52 20.3542 1261.6 33.1753C1249.26 47.6783 1243.64 67.1223 1246.58 85.189C1247.39 90.1533 1248.88 95.0895 1250.99 99.8654C1250.15 100.228 1249.32 100.601 1248.49 100.996C1242.8 103.714 1240.4 110.52 1243.12 116.2C1245.84 121.882 1252.66 124.284 1258.34 121.563C1274.26 113.958 1293.26 115.309 1307.95 125.09C1332.6 141.5 1364.45 141.503 1389.09 125.09C1406.05 113.8 1427.95 113.8 1444.91 125.09C1469.55 141.502 1501.4 141.502 1526.05 125.09C1540.73 115.308 1559.74 113.956 1575.66 121.563C1581.35 124.283 1588.16 121.881 1590.88 116.2C1593.6 110.52 1591.2 103.714 1585.51 100.996ZM1564.89 81.5283C1564.2 85.7906 1562.64 90.0734 1560.37 94.1657C1544.03 92.7542 1527.36 96.8089 1513.38 106.117C1496.43 117.406 1474.52 117.406 1457.57 106.117C1432.92 89.7046 1401.08 89.7046 1376.43 106.117C1359.48 117.406 1337.57 117.406 1320.62 106.117C1306.64 96.8089 1289.97 92.7542 1273.63 94.1657C1271.36 90.0727 1269.8 85.7899 1269.11 81.5289C1267.23 69.9772 1270.92 57.4232 1278.99 47.9473C1283.2 43.0056 1288.13 39.465 1293.38 37.5237C1299.04 56.2917 1316.5 70.0012 1337.11 70.0012H1496.89C1517.5 70.0012 1534.96 56.2917 1540.61 37.5237C1545.87 39.465 1550.8 43.0056 1555.01 47.9473C1563.08 57.4238 1566.77 69.9773 1564.89 81.5283Z" fill="#4CA9EE"/>
<path d="M1585.51 146.598C1562.37 135.535 1534.74 137.5 1513.39 151.72C1496.43 163.009 1474.52 163.009 1457.57 151.72C1432.93 135.307 1401.08 135.307 1376.43 151.72C1359.48 163.009 1337.57 163.009 1320.62 151.72C1299.27 137.501 1271.63 135.536 1248.49 146.598C1242.81 149.315 1240.4 156.122 1243.12 161.802C1245.84 167.482 1252.66 169.885 1258.34 167.165C1274.26 159.559 1293.27 160.91 1307.96 170.691C1332.6 187.101 1364.45 187.104 1389.09 170.691C1406.05 159.402 1427.96 159.402 1444.91 170.691C1469.56 187.103 1501.4 187.103 1526.05 170.691C1540.74 160.909 1559.75 159.557 1575.66 167.165C1581.35 169.884 1588.16 167.482 1590.88 161.802C1593.6 156.123 1591.2 149.315 1585.51 146.598Z" fill="#4CA9EE"/>
</svg>
