<svg width="1977" height="600" viewBox="0 0 1977 600" fill="none" xmlns="http://www.w3.org/2000/svg">
<path d="M237.85 340.2C253.35 340.2 261.1 334.65 261.1 323.55C261.1 315.45 259.2 310.35 255.4 308.25C251.7 306.05 243.3 304.95 230.2 304.95L229.6 339.9C233 340.1 235.75 340.2 237.85 340.2ZM236.95 292.65C244.65 292.45 250.1 291.45 253.3 289.65C256.5 287.85 258.1 284.1 258.1 278.4C258.1 272.6 256.25 268.75 252.55 266.85C248.85 264.95 243.25 264 235.75 264H230.35C230.15 276.6 230.05 286.1 230.05 292.5L236.95 292.65ZM237.1 354.15H200.05L198.7 345.9C203.9 343.8 208.1 342.35 211.3 341.55C211.3 341.25 210.85 314.8 209.95 262.2C208.35 261.8 204.2 260.5 197.5 258.3L198.7 249.15H240.25C252.15 249.15 261.4 251.45 268 256.05C274.6 260.65 277.9 267.3 277.9 276C277.9 280.2 276.75 284.75 274.45 289.65C272.25 294.55 269.7 297.45 266.8 298.35C271.2 300.75 274.65 304.1 277.15 308.4C279.65 312.7 280.9 317.65 280.9 323.25C280.9 332.45 277.15 339.9 269.65 345.6C262.15 351.3 251.3 354.15 237.1 354.15ZM323.332 277.2C325.232 277.2 326.432 277.25 326.932 277.35C326.932 282.25 326.082 286.8 324.382 291C323.982 312.6 323.732 328.8 323.632 339.6L335.332 340.95C335.332 345.05 334.182 349.4 331.882 354H294.532L293.182 345.75C299.382 343.45 303.882 341.95 306.682 341.25L305.032 292.65C299.132 292.05 294.782 291.3 291.982 290.4C291.982 287.9 292.332 284.3 293.032 279.6C298.932 278 309.032 277.2 323.332 277.2ZM323.332 248.85C324.232 253.35 324.682 256.8 324.682 259.2C324.682 261.5 324.482 264.1 324.082 267C320.082 267.9 316.682 268.35 313.882 268.35C311.182 268.35 307.882 268.2 303.982 267.9C303.082 263.4 302.632 260 302.632 257.7C302.632 255.3 302.832 252.65 303.232 249.75C307.232 248.85 310.582 248.4 313.282 248.4C316.082 248.4 319.432 248.55 323.332 248.85ZM382.525 292.2C382.325 291.7 381.325 291.45 379.525 291.45C377.725 291.45 374.625 292.8 370.225 295.5C369.825 315.1 369.575 329.8 369.475 339.6L381.175 341.1C381.175 345.4 380.025 349.7 377.725 354H340.375L339.025 345.75C345.225 343.45 349.725 341.95 352.525 341.25L350.875 292.65C345.675 292.25 341.325 291.5 337.825 290.4L338.875 279.6C341.575 278.4 351.325 277.6 368.125 277.2C369.025 278.1 369.475 279.85 369.475 282.45C378.275 278.15 383.825 276 386.125 276C388.525 276 391.425 276.6 394.825 277.8C398.325 278.9 400.975 280.1 402.775 281.4V283.95C402.775 292.15 401.775 299.75 399.775 306.75C398.075 307.45 395.825 307.8 393.025 307.8C390.225 307.8 387.625 307.65 385.225 307.35C384.925 306.05 384.025 301 382.525 292.2ZM447.058 288.45L444.658 288.3C439.058 288.3 434.558 290.25 431.158 294.15C427.858 297.95 426.208 304.4 426.208 313.5C426.208 322.5 427.458 329.35 429.958 334.05C432.558 338.75 437.508 341.1 444.808 341.1C448.208 341.1 455.408 338.8 466.408 334.2C468.908 337.7 470.258 341.35 470.458 345.15C464.958 348.55 459.558 351.2 454.258 353.1C449.058 355 445.358 355.95 443.158 355.95C430.858 355.95 421.658 352.6 415.558 345.9C409.458 339.1 406.408 329.6 406.408 317.4C406.408 289.8 418.858 276 443.758 276C448.058 276 452.458 276.55 456.958 277.65C461.558 278.65 465.158 279.95 467.758 281.55C467.458 291.55 466.358 298.8 464.458 303.3C461.158 304.1 456.508 304.5 450.508 304.5L447.058 288.45ZM506.11 242.55L509.71 242.7C509.71 247.9 509.06 252.45 507.76 256.35C507.56 267.75 507.46 276.3 507.46 282C510.66 280.6 514.31 279.25 518.41 277.95C522.51 276.65 525.06 276 526.06 276C536.26 276 543.56 278.3 547.96 282.9C552.46 287.5 554.71 294.75 554.71 304.65C554.71 305.65 554.21 317.3 553.21 339.6L564.91 341.1C564.91 345.4 563.76 349.7 561.46 354H524.11L522.76 345.75C529.46 343.05 533.76 341.6 535.66 341.4C535.46 330.6 535.21 321.05 534.91 312.75C534.61 304.35 533.81 298.8 532.51 296.1C531.21 293.4 529.11 292.05 526.21 292.05C523.41 292.05 520.16 292.4 516.46 293.1C512.86 293.7 510.06 294.45 508.06 295.35L506.41 339.6L518.11 340.95C518.11 345.05 516.96 349.4 514.66 354H477.31L475.96 345.75C482.16 343.45 486.66 341.95 489.46 341.25L486.61 258C481.91 257.5 477.96 256.75 474.76 255.75C474.76 253.25 475.11 249.65 475.81 244.95C481.71 243.35 491.81 242.55 506.11 242.55ZM595.688 242.55C598.088 242.55 599.638 242.6 600.338 242.7C600.338 247.9 599.688 252.45 598.388 256.35L597.938 281.55C607.238 277.85 613.638 276 617.138 276C627.038 276 634.338 279.7 639.038 287.1C643.838 294.4 646.238 303.9 646.238 315.6C646.238 327.3 643.588 336.95 638.288 344.55C632.988 352.05 625.288 355.8 615.188 355.8C608.588 355.8 601.638 353.3 594.338 348.3C593.938 350.6 593.338 352.7 592.538 354.6C590.738 354.8 588.938 354.9 587.138 354.9C585.338 354.9 583.088 354.6 580.388 354L577.238 258C572.538 257.5 568.588 256.75 565.388 255.75C565.388 252.05 565.738 248.45 566.438 244.95C572.238 243.35 581.988 242.55 595.688 242.55ZM614.588 291.75C608.088 291.75 602.488 292.9 597.788 295.2C597.588 312 597.388 324.7 597.188 333.3C599.588 335.3 602.338 337.1 605.438 338.7C608.538 340.3 611.188 341.1 613.388 341.1C622.088 341.1 626.438 333.1 626.438 317.1C626.438 310.3 625.488 304.4 623.588 299.4C621.788 294.3 618.788 291.75 614.588 291.75ZM676.582 355.8C668.082 355.8 661.482 354.05 656.782 350.55C652.182 347.05 649.882 341.15 649.882 332.85C649.882 324.95 652.632 318.5 658.132 313.5C661.332 310.6 665.782 308.9 671.482 308.4C677.182 307.9 685.032 307.65 695.032 307.65V305.25C695.032 299.15 694.032 294.7 692.032 291.9C690.132 289 686.732 287.55 681.832 287.55C679.332 287.55 677.082 288.05 675.082 289.05L671.482 302.1L660.382 301.8C657.882 298 656.532 291.95 656.332 283.65C658.332 282.65 663.032 281.15 670.432 279.15C677.832 277.05 682.582 276 684.682 276C695.482 276 703.332 278.25 708.232 282.75C713.132 287.15 715.582 294.2 715.582 303.9C715.582 313.5 715.132 326.2 714.232 342C719.932 342.5 724.332 343.35 727.432 344.55C727.532 345.75 727.582 347.2 727.582 348.9L727.432 352.2C720.232 354.6 712.982 355.8 705.682 355.8C703.782 355.8 702.382 355.75 701.482 355.65C699.982 352.65 699.082 349.05 698.782 344.85H698.032C696.132 346.65 692.782 348.95 687.982 351.75C683.282 354.45 679.482 355.8 676.582 355.8ZM669.082 333.75C669.082 337.05 670.082 339.5 672.082 341.1C674.182 342.6 676.532 343.35 679.132 343.35C681.732 343.35 684.832 342.2 688.432 339.9C692.032 337.5 694.932 335.35 697.132 333.45L696.382 319.65C688.482 320.05 682.532 320.8 678.532 321.9C672.232 323.2 669.082 327.15 669.082 333.75ZM773.492 292.2C773.292 291.7 772.292 291.45 770.492 291.45C768.692 291.45 765.592 292.8 761.192 295.5C760.792 315.1 760.542 329.8 760.442 339.6L772.142 341.1C772.142 345.4 770.992 349.7 768.692 354H731.342L729.992 345.75C736.192 343.45 740.692 341.95 743.492 341.25L741.842 292.65C736.642 292.25 732.292 291.5 728.792 290.4L729.842 279.6C732.542 278.4 742.292 277.6 759.092 277.2C759.992 278.1 760.442 279.85 760.442 282.45C769.242 278.15 774.792 276 777.092 276C779.492 276 782.392 276.6 785.792 277.8C789.292 278.9 791.942 280.1 793.742 281.4V283.95C793.742 292.15 792.742 299.75 790.742 306.75C789.042 307.45 786.792 307.8 783.992 307.8C781.192 307.8 778.592 307.65 776.192 307.35C775.892 306.05 774.992 301 773.492 292.2ZM826.625 328.05L826.475 339.6L838.175 340.95C838.175 345.05 837.025 349.4 834.725 354H797.375L796.025 345.75C802.225 343.45 806.725 341.95 809.525 341.25L806.675 258C801.975 257.5 798.025 256.75 794.825 255.75C794.825 252.05 795.175 248.45 795.875 244.95C801.775 243.35 811.875 242.55 826.175 242.55C828.075 242.55 829.275 242.6 829.775 242.7C829.775 247.9 829.125 252.45 827.825 256.35C827.225 280.35 826.925 298.15 826.925 309.75L844.775 292.05L835.475 290.85C835.475 286.75 836.625 282.4 838.925 277.8H876.275L877.625 286.05C871.425 288.35 866.925 289.85 864.125 290.55L847.625 307.05L868.625 339.6L880.325 340.95C880.325 345.05 879.175 349.4 876.875 354H857.675L835.475 319.2L826.625 328.05ZM996.363 341.4L995.763 306H956.463C956.263 321 956.163 332.2 956.163 339.6L966.513 340.95C966.513 345.05 965.363 349.4 963.063 354H926.613L925.263 345.75C930.863 343.45 935.063 342 937.863 341.4C937.863 341.1 937.413 314.65 936.513 262.05L924.063 258.15L925.263 249H964.113C965.713 251.7 966.663 255.65 966.963 260.85C961.863 261.65 958.513 262.15 956.913 262.35C956.713 275.35 956.613 285.1 956.613 291.6H995.463L995.013 262.05L982.563 258.15L983.763 249H1022.61C1024.21 251.7 1025.16 255.65 1025.46 260.85C1020.36 261.65 1017.01 262.15 1015.41 262.35L1014.66 339.6L1025.01 340.95C1025.01 345.05 1023.86 349.4 1021.56 354H985.113L983.763 345.75C989.363 343.45 993.563 342 996.363 341.4ZM1075.73 341.1C1079.13 341.1 1086.03 338.75 1096.43 334.05C1098.63 337.25 1100.28 340.95 1101.38 345.15C1095.88 348.55 1090.48 351.2 1085.18 353.1C1079.98 354.9 1076.28 355.8 1074.08 355.8C1061.98 355.8 1052.78 352.45 1046.48 345.75C1040.28 339.05 1037.18 329.55 1037.18 317.25C1037.18 304.85 1040.28 294.9 1046.48 287.4C1052.68 279.8 1061.88 276 1074.08 276C1083.78 276 1091.18 279.15 1096.28 285.45C1101.38 291.75 1103.93 299.95 1103.93 310.05C1103.93 312.15 1102.73 314.55 1100.33 317.25L1057.13 316.5C1057.33 324.5 1058.83 330.6 1061.63 334.8C1064.43 339 1069.13 341.1 1075.73 341.1ZM1072.73 288.45C1068.93 288.45 1065.38 289.2 1062.08 290.7C1059.78 295.5 1058.33 299.95 1057.73 304.05C1065.53 303.75 1074.38 303.55 1084.28 303.45C1083.78 293.45 1079.93 288.45 1072.73 288.45ZM1140.79 355.8C1132.29 355.8 1125.69 354.05 1120.99 350.55C1116.39 347.05 1114.09 341.15 1114.09 332.85C1114.09 324.95 1116.84 318.5 1122.34 313.5C1125.54 310.6 1129.99 308.9 1135.69 308.4C1141.39 307.9 1149.24 307.65 1159.24 307.65V305.25C1159.24 299.15 1158.24 294.7 1156.24 291.9C1154.34 289 1150.94 287.55 1146.04 287.55C1143.54 287.55 1141.29 288.05 1139.29 289.05L1135.69 302.1L1124.59 301.8C1122.09 298 1120.74 291.95 1120.54 283.65C1122.54 282.65 1127.24 281.15 1134.64 279.15C1142.04 277.05 1146.79 276 1148.89 276C1159.69 276 1167.54 278.25 1172.44 282.75C1177.34 287.15 1179.79 294.2 1179.79 303.9C1179.79 313.5 1179.34 326.2 1178.44 342C1184.14 342.5 1188.54 343.35 1191.64 344.55C1191.74 345.75 1191.79 347.2 1191.79 348.9L1191.64 352.2C1184.44 354.6 1177.19 355.8 1169.89 355.8C1167.99 355.8 1166.59 355.75 1165.69 355.65C1164.19 352.65 1163.29 349.05 1162.99 344.85H1162.24C1160.34 346.65 1156.99 348.95 1152.19 351.75C1147.49 354.45 1143.69 355.8 1140.79 355.8ZM1133.29 333.75C1133.29 337.05 1134.29 339.5 1136.29 341.1C1138.39 342.6 1140.74 343.35 1143.34 343.35C1145.94 343.35 1149.04 342.2 1152.64 339.9C1156.24 337.5 1159.14 335.35 1161.34 333.45L1160.59 319.65C1152.69 320.05 1146.74 320.8 1142.74 321.9C1136.44 323.2 1133.29 327.15 1133.29 333.75ZM1223 242.55C1224.9 242.55 1226.1 242.6 1226.6 242.7C1226.6 247.9 1225.95 252.45 1224.65 256.35C1224.55 262.55 1224.4 271.3 1224.2 282.6C1223.8 307.4 1223.5 326.4 1223.3 339.6L1235 340.95C1235 345.05 1233.85 349.4 1231.55 354H1194.2L1192.85 345.75C1199.05 343.45 1203.55 341.95 1206.35 341.25L1203.5 258C1198.8 257.5 1194.85 256.75 1191.65 255.75C1191.65 252.05 1192 248.45 1192.7 244.95C1198.6 243.35 1208.7 242.55 1223 242.55ZM1255.84 355.8L1252.54 355.65C1251.94 354.55 1251.14 352.5 1250.14 349.5C1249.14 346.5 1248.59 344.25 1248.49 342.75C1247.99 332.85 1247.44 315.7 1246.84 291.3H1236.34L1236.79 282.75C1239.09 281.15 1241.84 279.7 1245.04 278.4L1257.19 259.2C1261.09 259.6 1264.14 260.65 1266.34 262.35L1266.19 276.6C1272.49 276.8 1278.34 277.4 1283.74 278.4C1283.74 282.4 1282.49 286.7 1279.99 291.3H1266.04C1265.64 312.3 1265.39 328.05 1265.29 338.55C1269.29 338.95 1274.74 340.1 1281.64 342L1281.49 349.8C1279.79 350.9 1275.99 352.2 1270.09 353.7C1264.29 355.1 1259.54 355.8 1255.84 355.8ZM1319.54 242.55L1323.14 242.7C1323.14 247.9 1322.49 252.45 1321.19 256.35C1320.99 267.75 1320.89 276.3 1320.89 282C1324.09 280.6 1327.74 279.25 1331.84 277.95C1335.94 276.65 1338.49 276 1339.49 276C1349.69 276 1356.99 278.3 1361.39 282.9C1365.89 287.5 1368.14 294.75 1368.14 304.65C1368.14 305.65 1367.64 317.3 1366.64 339.6L1378.34 341.1C1378.34 345.4 1377.19 349.7 1374.89 354H1337.54L1336.19 345.75C1342.89 343.05 1347.19 341.6 1349.09 341.4C1348.89 330.6 1348.64 321.05 1348.34 312.75C1348.04 304.35 1347.24 298.8 1345.94 296.1C1344.64 293.4 1342.54 292.05 1339.64 292.05C1336.84 292.05 1333.59 292.4 1329.89 293.1C1326.29 293.7 1323.49 294.45 1321.49 295.35L1319.84 339.6L1331.54 340.95C1331.54 345.05 1330.39 349.4 1328.09 354H1290.74L1289.39 345.75C1295.59 343.45 1300.09 341.95 1302.89 341.25L1300.04 258C1295.34 257.5 1291.39 256.75 1288.19 255.75C1288.19 253.25 1288.54 249.65 1289.24 244.95C1295.14 243.35 1305.24 242.55 1319.54 242.55Z" fill="white"/>
<path d="M1778.51 303.996C1777.68 303.601 1776.85 303.227 1776.01 302.865C1778.12 298.09 1779.61 293.154 1780.42 288.188C1783.36 270.122 1777.74 250.678 1765.4 236.175C1754.48 223.354 1739.44 216 1724.13 216C1717.83 216 1712.72 221.104 1712.72 227.4C1712.72 239.973 1702.48 250.201 1689.89 250.201H1530.11C1517.52 250.201 1507.28 239.973 1507.28 227.4C1507.28 221.104 1502.17 216 1495.87 216C1480.56 216 1465.52 223.354 1454.6 236.175C1442.26 250.678 1436.64 270.122 1439.58 288.189C1440.39 293.153 1441.88 298.09 1443.99 302.865C1443.15 303.228 1442.32 303.601 1441.49 303.996C1435.8 306.714 1433.4 313.52 1436.12 319.2C1438.84 324.882 1445.66 327.284 1451.34 324.563C1467.26 316.958 1486.26 318.309 1500.95 328.09C1525.6 344.5 1557.45 344.503 1582.09 328.09C1599.05 316.8 1620.95 316.8 1637.91 328.09C1662.55 344.502 1694.4 344.502 1719.05 328.09C1733.73 318.308 1752.74 316.956 1768.66 324.563C1774.35 327.283 1781.16 324.881 1783.88 319.2C1786.6 313.52 1784.2 306.714 1778.51 303.996ZM1757.89 284.528C1757.2 288.791 1755.64 293.073 1753.37 297.166C1737.03 295.754 1720.36 299.809 1706.38 309.117C1689.43 320.406 1667.52 320.406 1650.57 309.117C1625.92 292.705 1594.08 292.705 1569.43 309.117C1552.48 320.406 1530.57 320.406 1513.62 309.117C1499.64 299.809 1482.97 295.754 1466.63 297.166C1464.36 293.073 1462.8 288.79 1462.11 284.529C1460.23 272.977 1463.92 260.423 1471.99 250.947C1476.2 246.006 1481.13 242.465 1486.38 240.524C1492.04 259.292 1509.5 273.001 1530.11 273.001H1689.89C1710.5 273.001 1727.96 259.292 1733.61 240.524C1738.87 242.465 1743.8 246.006 1748.01 250.947C1756.08 260.424 1759.77 272.977 1757.89 284.528Z" fill="#4CA9EE"/>
<path d="M1778.51 349.598C1755.37 338.535 1727.74 340.5 1706.39 354.72C1689.43 366.009 1667.52 366.009 1650.57 354.72C1625.93 338.307 1594.08 338.307 1569.43 354.72C1552.48 366.009 1530.57 366.009 1513.62 354.72C1492.27 340.501 1464.63 338.536 1441.49 349.598C1435.81 352.315 1433.4 359.122 1436.12 364.802C1438.84 370.482 1445.66 372.885 1451.34 370.165C1467.26 362.559 1486.27 363.91 1500.96 373.691C1525.6 390.101 1557.45 390.104 1582.09 373.691C1599.05 362.402 1620.96 362.402 1637.91 373.691C1662.56 390.103 1694.4 390.103 1719.05 373.691C1733.74 363.909 1752.75 362.557 1768.66 370.165C1774.35 372.884 1781.16 370.482 1783.88 364.802C1786.6 359.123 1784.2 352.315 1778.51 349.598Z" fill="#4CA9EE"/>
</svg>
