<svg width="1186" height="381" viewBox="0 0 1186 381" fill="none" xmlns="http://www.w3.org/2000/svg">
<path d="M44.85 323.2C60.35 323.2 68.1 317.65 68.1 306.55C68.1 298.45 66.2 293.35 62.4 291.25C58.7 289.05 50.3 287.95 37.2 287.95L36.6 322.9C40 323.1 42.75 323.2 44.85 323.2ZM43.95 275.65C51.65 275.45 57.1 274.45 60.3 272.65C63.5 270.85 65.1 267.1 65.1 261.4C65.1 255.6 63.25 251.75 59.55 249.85C55.85 247.95 50.25 247 42.75 247H37.35C37.15 259.6 37.05 269.1 37.05 275.5L43.95 275.65ZM44.1 337.15H7.05L5.7 328.9C10.9 326.8 15.1 325.35 18.3 324.55C18.3 324.25 17.85 297.8 16.95 245.2C15.35 244.8 11.2 243.5 4.5 241.3L5.7 232.15H47.25C59.15 232.15 68.4 234.45 75 239.05C81.6 243.65 84.9 250.3 84.9 259C84.9 263.2 83.75 267.75 81.45 272.65C79.25 277.55 76.7 280.45 73.8 281.35C78.2 283.75 81.65 287.1 84.15 291.4C86.65 295.7 87.9 300.65 87.9 306.25C87.9 315.45 84.15 322.9 76.65 328.6C69.15 334.3 58.3 337.15 44.1 337.15ZM130.332 260.2C132.232 260.2 133.432 260.25 133.932 260.35C133.932 265.25 133.082 269.8 131.382 274C130.982 295.6 130.732 311.8 130.632 322.6L142.332 323.95C142.332 328.05 141.182 332.4 138.882 337H101.532L100.182 328.75C106.382 326.45 110.882 324.95 113.682 324.25L112.032 275.65C106.132 275.05 101.782 274.3 98.9824 273.4C98.9824 270.9 99.3324 267.3 100.032 262.6C105.932 261 116.032 260.2 130.332 260.2ZM130.332 231.85C131.232 236.35 131.682 239.8 131.682 242.2C131.682 244.5 131.482 247.1 131.082 250C127.082 250.9 123.682 251.35 120.882 251.35C118.182 251.35 114.882 251.2 110.982 250.9C110.082 246.4 109.632 243 109.632 240.7C109.632 238.3 109.832 235.65 110.232 232.75C114.232 231.85 117.582 231.4 120.282 231.4C123.082 231.4 126.432 231.55 130.332 231.85ZM189.525 275.2C189.325 274.7 188.325 274.45 186.525 274.45C184.725 274.45 181.625 275.8 177.225 278.5C176.825 298.1 176.575 312.8 176.475 322.6L188.175 324.1C188.175 328.4 187.025 332.7 184.725 337H147.375L146.025 328.75C152.225 326.45 156.725 324.95 159.525 324.25L157.875 275.65C152.675 275.25 148.325 274.5 144.825 273.4L145.875 262.6C148.575 261.4 158.325 260.6 175.125 260.2C176.025 261.1 176.475 262.85 176.475 265.45C185.275 261.15 190.825 259 193.125 259C195.525 259 198.425 259.6 201.825 260.8C205.325 261.9 207.975 263.1 209.775 264.4V266.95C209.775 275.15 208.775 282.75 206.775 289.75C205.075 290.45 202.825 290.8 200.025 290.8C197.225 290.8 194.625 290.65 192.225 290.35C191.925 289.05 191.025 284 189.525 275.2ZM254.058 271.45L251.658 271.3C246.058 271.3 241.558 273.25 238.158 277.15C234.858 280.95 233.208 287.4 233.208 296.5C233.208 305.5 234.458 312.35 236.958 317.05C239.558 321.75 244.508 324.1 251.808 324.1C255.208 324.1 262.408 321.8 273.408 317.2C275.908 320.7 277.258 324.35 277.458 328.15C271.958 331.55 266.558 334.2 261.258 336.1C256.058 338 252.358 338.95 250.158 338.95C237.858 338.95 228.658 335.6 222.558 328.9C216.458 322.1 213.408 312.6 213.408 300.4C213.408 272.8 225.858 259 250.758 259C255.058 259 259.458 259.55 263.958 260.65C268.558 261.65 272.158 262.95 274.758 264.55C274.458 274.55 273.358 281.8 271.458 286.3C268.158 287.1 263.508 287.5 257.508 287.5L254.058 271.45ZM313.11 225.55L316.71 225.7C316.71 230.9 316.06 235.45 314.76 239.35C314.56 250.75 314.46 259.3 314.46 265C317.66 263.6 321.31 262.25 325.41 260.95C329.51 259.65 332.06 259 333.06 259C343.26 259 350.56 261.3 354.96 265.9C359.46 270.5 361.71 277.75 361.71 287.65C361.71 288.65 361.21 300.3 360.21 322.6L371.91 324.1C371.91 328.4 370.76 332.7 368.46 337H331.11L329.76 328.75C336.46 326.05 340.76 324.6 342.66 324.4C342.46 313.6 342.21 304.05 341.91 295.75C341.61 287.35 340.81 281.8 339.51 279.1C338.21 276.4 336.11 275.05 333.21 275.05C330.41 275.05 327.16 275.4 323.46 276.1C319.86 276.7 317.06 277.45 315.06 278.35L313.41 322.6L325.11 323.95C325.11 328.05 323.96 332.4 321.66 337H284.31L282.96 328.75C289.16 326.45 293.66 324.95 296.46 324.25L293.61 241C288.91 240.5 284.96 239.75 281.76 238.75C281.76 236.25 282.11 232.65 282.81 227.95C288.71 226.35 298.81 225.55 313.11 225.55ZM402.688 225.55C405.088 225.55 406.638 225.6 407.338 225.7C407.338 230.9 406.688 235.45 405.388 239.35L404.938 264.55C414.238 260.85 420.638 259 424.138 259C434.038 259 441.338 262.7 446.038 270.1C450.838 277.4 453.238 286.9 453.238 298.6C453.238 310.3 450.588 319.95 445.288 327.55C439.988 335.05 432.288 338.8 422.188 338.8C415.588 338.8 408.638 336.3 401.338 331.3C400.938 333.6 400.338 335.7 399.538 337.6C397.738 337.8 395.938 337.9 394.138 337.9C392.338 337.9 390.088 337.6 387.388 337L384.238 241C379.538 240.5 375.588 239.75 372.388 238.75C372.388 235.05 372.738 231.45 373.438 227.95C379.238 226.35 388.988 225.55 402.688 225.55ZM421.588 274.75C415.088 274.75 409.488 275.9 404.788 278.2C404.588 295 404.388 307.7 404.188 316.3C406.588 318.3 409.338 320.1 412.438 321.7C415.538 323.3 418.188 324.1 420.388 324.1C429.088 324.1 433.438 316.1 433.438 300.1C433.438 293.3 432.488 287.4 430.588 282.4C428.788 277.3 425.788 274.75 421.588 274.75ZM483.582 338.8C475.082 338.8 468.482 337.05 463.782 333.55C459.182 330.05 456.882 324.15 456.882 315.85C456.882 307.95 459.632 301.5 465.132 296.5C468.332 293.6 472.782 291.9 478.482 291.4C484.182 290.9 492.032 290.65 502.032 290.65V288.25C502.032 282.15 501.032 277.7 499.032 274.9C497.132 272 493.732 270.55 488.832 270.55C486.332 270.55 484.082 271.05 482.082 272.05L478.482 285.1L467.382 284.8C464.882 281 463.532 274.95 463.332 266.65C465.332 265.65 470.032 264.15 477.432 262.15C484.832 260.05 489.582 259 491.682 259C502.482 259 510.332 261.25 515.232 265.75C520.132 270.15 522.582 277.2 522.582 286.9C522.582 296.5 522.132 309.2 521.232 325C526.932 325.5 531.332 326.35 534.432 327.55C534.532 328.75 534.582 330.2 534.582 331.9L534.432 335.2C527.232 337.6 519.982 338.8 512.682 338.8C510.782 338.8 509.382 338.75 508.482 338.65C506.982 335.65 506.082 332.05 505.782 327.85H505.032C503.132 329.65 499.782 331.95 494.982 334.75C490.282 337.45 486.482 338.8 483.582 338.8ZM476.082 316.75C476.082 320.05 477.082 322.5 479.082 324.1C481.182 325.6 483.532 326.35 486.132 326.35C488.732 326.35 491.832 325.2 495.432 322.9C499.032 320.5 501.932 318.35 504.132 316.45L503.382 302.65C495.482 303.05 489.532 303.8 485.532 304.9C479.232 306.2 476.082 310.15 476.082 316.75ZM580.492 275.2C580.292 274.7 579.292 274.45 577.492 274.45C575.692 274.45 572.592 275.8 568.192 278.5C567.792 298.1 567.542 312.8 567.442 322.6L579.142 324.1C579.142 328.4 577.992 332.7 575.692 337H538.342L536.992 328.75C543.192 326.45 547.692 324.95 550.492 324.25L548.842 275.65C543.642 275.25 539.292 274.5 535.792 273.4L536.842 262.6C539.542 261.4 549.292 260.6 566.092 260.2C566.992 261.1 567.442 262.85 567.442 265.45C576.242 261.15 581.792 259 584.092 259C586.492 259 589.392 259.6 592.792 260.8C596.292 261.9 598.942 263.1 600.742 264.4V266.95C600.742 275.15 599.742 282.75 597.742 289.75C596.042 290.45 593.792 290.8 590.992 290.8C588.192 290.8 585.592 290.65 583.192 290.35C582.892 289.05 581.992 284 580.492 275.2ZM633.625 311.05L633.475 322.6L645.175 323.95C645.175 328.05 644.025 332.4 641.725 337H604.375L603.025 328.75C609.225 326.45 613.725 324.95 616.525 324.25L613.675 241C608.975 240.5 605.025 239.75 601.825 238.75C601.825 235.05 602.175 231.45 602.875 227.95C608.775 226.35 618.875 225.55 633.175 225.55C635.075 225.55 636.275 225.6 636.775 225.7C636.775 230.9 636.125 235.45 634.825 239.35C634.225 263.35 633.925 281.15 633.925 292.75L651.775 275.05L642.475 273.85C642.475 269.75 643.625 265.4 645.925 260.8H683.275L684.625 269.05C678.425 271.35 673.925 272.85 671.125 273.55L654.625 290.05L675.625 322.6L687.325 323.95C687.325 328.05 686.175 332.4 683.875 337H664.675L642.475 302.2L633.625 311.05ZM803.363 324.4L802.763 289H763.463C763.263 304 763.163 315.2 763.163 322.6L773.513 323.95C773.513 328.05 772.363 332.4 770.063 337H733.613L732.263 328.75C737.863 326.45 742.063 325 744.863 324.4C744.863 324.1 744.413 297.65 743.513 245.05L731.063 241.15L732.263 232H771.113C772.713 234.7 773.663 238.65 773.963 243.85C768.863 244.65 765.513 245.15 763.913 245.35C763.713 258.35 763.613 268.1 763.613 274.6H802.463L802.013 245.05L789.563 241.15L790.763 232H829.613C831.213 234.7 832.163 238.65 832.463 243.85C827.363 244.65 824.013 245.15 822.413 245.35L821.663 322.6L832.013 323.95C832.013 328.05 830.863 332.4 828.563 337H792.113L790.763 328.75C796.363 326.45 800.563 325 803.363 324.4ZM882.734 324.1C886.134 324.1 893.034 321.75 903.434 317.05C905.634 320.25 907.284 323.95 908.384 328.15C902.884 331.55 897.484 334.2 892.184 336.1C886.984 337.9 883.284 338.8 881.084 338.8C868.984 338.8 859.784 335.45 853.484 328.75C847.284 322.05 844.184 312.55 844.184 300.25C844.184 287.85 847.284 277.9 853.484 270.4C859.684 262.8 868.884 259 881.084 259C890.784 259 898.184 262.15 903.284 268.45C908.384 274.75 910.934 282.95 910.934 293.05C910.934 295.15 909.734 297.55 907.334 300.25L864.134 299.5C864.334 307.5 865.834 313.6 868.634 317.8C871.434 322 876.134 324.1 882.734 324.1ZM879.734 271.45C875.934 271.45 872.384 272.2 869.084 273.7C866.784 278.5 865.334 282.95 864.734 287.05C872.534 286.75 881.384 286.55 891.284 286.45C890.784 276.45 886.934 271.45 879.734 271.45ZM947.791 338.8C939.291 338.8 932.691 337.05 927.991 333.55C923.391 330.05 921.091 324.15 921.091 315.85C921.091 307.95 923.841 301.5 929.341 296.5C932.541 293.6 936.991 291.9 942.691 291.4C948.391 290.9 956.241 290.65 966.241 290.65V288.25C966.241 282.15 965.241 277.7 963.241 274.9C961.341 272 957.941 270.55 953.041 270.55C950.541 270.55 948.291 271.05 946.291 272.05L942.691 285.1L931.591 284.8C929.091 281 927.741 274.95 927.541 266.65C929.541 265.65 934.241 264.15 941.641 262.15C949.041 260.05 953.791 259 955.891 259C966.691 259 974.541 261.25 979.441 265.75C984.341 270.15 986.791 277.2 986.791 286.9C986.791 296.5 986.341 309.2 985.441 325C991.141 325.5 995.541 326.35 998.641 327.55C998.741 328.75 998.791 330.2 998.791 331.9L998.641 335.2C991.441 337.6 984.191 338.8 976.891 338.8C974.991 338.8 973.591 338.75 972.691 338.65C971.191 335.65 970.291 332.05 969.991 327.85H969.241C967.341 329.65 963.991 331.95 959.191 334.75C954.491 337.45 950.691 338.8 947.791 338.8ZM940.291 316.75C940.291 320.05 941.291 322.5 943.291 324.1C945.391 325.6 947.741 326.35 950.341 326.35C952.941 326.35 956.041 325.2 959.641 322.9C963.241 320.5 966.141 318.35 968.341 316.45L967.591 302.65C959.691 303.05 953.741 303.8 949.741 304.9C943.441 306.2 940.291 310.15 940.291 316.75ZM1030 225.55C1031.9 225.55 1033.1 225.6 1033.6 225.7C1033.6 230.9 1032.95 235.45 1031.65 239.35C1031.55 245.55 1031.4 254.3 1031.2 265.6C1030.8 290.4 1030.5 309.4 1030.3 322.6L1042 323.95C1042 328.05 1040.85 332.4 1038.55 337H1001.2L999.851 328.75C1006.05 326.45 1010.55 324.95 1013.35 324.25L1010.5 241C1005.8 240.5 1001.85 239.75 998.651 238.75C998.651 235.05 999.001 231.45 999.701 227.95C1005.6 226.35 1015.7 225.55 1030 225.55ZM1062.84 338.8L1059.54 338.65C1058.94 337.55 1058.14 335.5 1057.14 332.5C1056.14 329.5 1055.59 327.25 1055.49 325.75C1054.99 315.85 1054.44 298.7 1053.84 274.3H1043.34L1043.79 265.75C1046.09 264.15 1048.84 262.7 1052.04 261.4L1064.19 242.2C1068.09 242.6 1071.14 243.65 1073.34 245.35L1073.19 259.6C1079.49 259.8 1085.34 260.4 1090.74 261.4C1090.74 265.4 1089.49 269.7 1086.99 274.3H1073.04C1072.64 295.3 1072.39 311.05 1072.29 321.55C1076.29 321.95 1081.74 323.1 1088.64 325L1088.49 332.8C1086.79 333.9 1082.99 335.2 1077.09 336.7C1071.29 338.1 1066.54 338.8 1062.84 338.8ZM1126.54 225.55L1130.14 225.7C1130.14 230.9 1129.49 235.45 1128.19 239.35C1127.99 250.75 1127.89 259.3 1127.89 265C1131.09 263.6 1134.74 262.25 1138.84 260.95C1142.94 259.65 1145.49 259 1146.49 259C1156.69 259 1163.99 261.3 1168.39 265.9C1172.89 270.5 1175.14 277.75 1175.14 287.65C1175.14 288.65 1174.64 300.3 1173.64 322.6L1185.34 324.1C1185.34 328.4 1184.19 332.7 1181.89 337H1144.54L1143.19 328.75C1149.89 326.05 1154.19 324.6 1156.09 324.4C1155.89 313.6 1155.64 304.05 1155.34 295.75C1155.04 287.35 1154.24 281.8 1152.94 279.1C1151.64 276.4 1149.54 275.05 1146.64 275.05C1143.84 275.05 1140.59 275.4 1136.89 276.1C1133.29 276.7 1130.49 277.45 1128.49 278.35L1126.84 322.6L1138.54 323.95C1138.54 328.05 1137.39 332.4 1135.09 337H1097.74L1096.39 328.75C1102.59 326.45 1107.09 324.95 1109.89 324.25L1107.04 241C1102.34 240.5 1098.39 239.75 1095.19 238.75C1095.19 236.25 1095.54 232.65 1096.24 227.95C1102.14 226.35 1112.24 225.55 1126.54 225.55Z" fill="white"/>
<path d="M760.511 87.9962C759.684 87.6008 758.851 87.2273 758.013 86.8654C760.122 82.0902 761.613 77.1539 762.421 72.1883C765.362 54.1223 759.745 34.6783 747.396 20.1753C736.479 7.35356 721.437 0 706.129 0C699.826 0 694.716 5.10426 694.716 11.4001C694.716 23.9726 684.477 34.201 671.891 34.201H512.11C499.523 34.201 489.284 23.9726 489.284 11.4001C489.284 5.10426 484.174 0 477.871 0C462.563 0 447.521 7.35424 436.604 20.1753C424.256 34.6783 418.638 54.1223 421.579 72.189C422.387 77.1533 423.878 82.0895 425.987 86.8654C425.15 87.228 424.316 87.6008 423.489 87.9962C417.803 90.7139 415.4 97.5205 418.12 103.2C420.841 108.882 427.656 111.284 433.342 108.563C449.255 100.958 468.265 102.309 482.954 112.09C507.597 128.5 539.446 128.503 564.092 112.09C581.045 100.8 602.954 100.8 619.908 112.09C644.554 128.502 676.402 128.502 701.047 112.09C715.734 102.308 734.745 100.956 750.658 108.563C756.346 111.283 763.159 108.881 765.879 103.2C768.599 97.5205 766.196 90.7139 760.511 87.9962ZM739.89 68.5283C739.196 72.7906 737.645 77.0734 735.368 81.1657C719.031 79.7542 702.36 83.8089 688.384 93.1168C671.431 104.406 649.522 104.406 632.569 93.1168C607.924 76.7046 576.075 76.7046 551.43 93.1168C534.477 104.406 512.568 104.406 495.615 93.1168C481.638 83.8089 464.968 79.7542 448.63 81.1657C446.355 77.0727 444.803 72.7899 444.109 68.5289C442.229 56.9772 445.923 44.4232 453.991 34.9473C458.199 30.0056 463.127 26.465 468.384 24.5237C474.04 43.2917 491.501 57.0012 512.109 57.0012H671.889C692.497 57.0012 709.959 43.2917 715.614 24.5237C720.871 26.465 725.799 30.0056 730.007 34.9473C738.076 44.4238 741.771 56.9773 739.89 68.5283Z" fill="#4CA9EE"/>
<path d="M760.511 133.597C737.373 122.535 709.736 124.5 688.385 138.719C671.433 150.009 649.524 150.009 632.57 138.719C607.926 122.307 576.077 122.307 551.431 138.719C534.479 150.009 512.57 150.009 495.617 138.719C474.265 124.501 446.629 122.536 423.491 133.597C417.805 136.315 415.402 143.122 418.122 148.802C420.842 154.482 427.658 156.884 433.343 154.165C449.257 146.559 468.266 147.91 482.955 157.691C507.599 174.101 539.448 174.104 564.094 157.691C581.047 146.401 602.956 146.401 619.91 157.691C644.555 174.103 676.403 174.103 701.048 157.691C715.736 147.909 734.746 146.557 750.659 154.165C756.347 156.884 763.16 154.482 765.881 148.802C768.599 143.122 766.196 136.315 760.511 133.597Z" fill="#4CA9EE"/>
</svg>
