<svg width="1440" height="849" viewBox="0 0 1440 849" fill="none" xmlns="http://www.w3.org/2000/svg">
<path d="M1440 825L1405.8 831.7C1371.45 838.3 1303.05 851.7 1234.5 848.5C1165.95 845.3 1097.55 825.7 1029 809.5C960.45 793.3 892.05 780.7 823.2 781.2C754.5 781.7 685.5 795.3 616.8 809.8C547.95 824.3 479.55 839.7 411 840.3C342.45 841 274.05 827 205.5 820.3C136.95 813.7 68.5499 814.3 34.2 814.7L2.97116e-06 815L2.42149e-05 572L34.2 572C68.55 572 136.95 572 205.5 572C274.05 572 342.45 572 411 572C479.55 572 547.95 572 616.8 572C685.5 572 754.5 572 823.2 572C892.05 572 960.45 572 1029 572C1097.55 572 1165.95 572 1234.5 572C1303.05 572 1371.45 572 1405.8 572L1440 572L1440 825Z" fill="#98CBF1"/>
<path d="M1440 725L1405.8 721.2C1371.45 717.3 1303.05 709.7 1234.5 712.3C1165.95 715 1097.55 728 1029 734.7C960.45 741.3 892.05 741.7 823.2 738C754.5 734.3 685.5 726.7 616.8 734.2C547.95 741.7 479.55 764.3 411 761.7C342.45 759 274.05 731 205.5 725.8C136.95 720.7 68.5499 738.3 34.2 747.2L5.16416e-07 756L1.66022e-05 572L34.2 572C68.5499 572 136.95 572 205.5 572C274.05 572 342.45 572 411 572C479.55 572 547.95 572 616.8 572C685.5 572 754.5 572 823.2 572C892.05 572 960.45 572 1029 572C1097.55 572 1165.95 572 1234.5 572C1303.05 572 1371.45 572 1405.8 572L1440 572L1440 725Z" fill="#77B9EA"/>
<path d="M1440 714L1405.8 702.7C1371.45 691.3 1303.05 668.7 1234.5 662.2C1165.95 655.7 1097.55 665.3 1029 674.3C960.45 683.3 892.05 691.7 823.2 697.3C754.5 703 685.5 706 616.8 693.2C547.95 680.3 479.55 651.7 411 650.8C342.45 650 274.05 677 205.5 682.2C136.95 687.3 68.5499 670.7 34.2 662.3L5.24537e-06 654L1.2414e-05 572L34.2 572C68.5499 572 136.95 572 205.5 572C274.05 572 342.45 572 411 572C479.55 572 547.95 572 616.8 572C685.5 572 754.5 572 823.2 572C892.05 572 960.45 572 1029 572C1097.55 572 1165.95 572 1234.5 572C1303.05 572 1371.45 572 1405.8 572L1440 572L1440 714Z" fill="#4CA9EE"/>
<rect y="276" width="1440" height="297" fill="#4CA9EE"/>
<path d="M0 24L34.2 17.3C68.55 10.7 136.95 -2.7 205.5 0.500001C274.05 3.7 342.45 23.3 411 39.5C479.55 55.7 547.95 68.3 616.8 67.8C685.5 67.3 754.5 53.7 823.2 39.2C892.05 24.7 960.45 9.30001 1029 8.70001C1097.55 8.00001 1165.95 22 1234.5 28.7C1303.05 35.3 1371.45 34.7 1405.8 34.3L1440 34V277H1405.8C1371.45 277 1303.05 277 1234.5 277C1165.95 277 1097.55 277 1029 277C960.45 277 892.05 277 823.2 277C754.5 277 685.5 277 616.8 277C547.95 277 479.55 277 411 277C342.45 277 274.05 277 205.5 277C136.95 277 68.55 277 34.2 277H0V24Z" fill="#98CBF1"/>
<path d="M0 124L34.2 127.8C68.55 131.7 136.95 139.3 205.5 136.7C274.05 134 342.45 121 411 114.3C479.55 107.7 547.95 107.3 616.8 111C685.5 114.7 754.5 122.3 823.2 114.8C892.05 107.3 960.45 84.6999 1029 87.2999C1097.55 89.9999 1165.95 118 1234.5 123.2C1303.05 128.3 1371.45 110.7 1405.8 101.8L1440 92.9999V277H1405.8C1371.45 277 1303.05 277 1234.5 277C1165.95 277 1097.55 277 1029 277C960.45 277 892.05 277 823.2 277C754.5 277 685.5 277 616.8 277C547.95 277 479.55 277 411 277C342.45 277 274.05 277 205.5 277C136.95 277 68.55 277 34.2 277H0V124Z" fill="#77B9EA"/>
<path d="M0 135L34.2 146.3C68.55 157.7 136.95 180.3 205.5 186.8C274.05 193.3 342.45 183.7 411 174.7C479.55 165.7 547.95 157.3 616.8 151.7C685.5 146 754.5 143 823.2 155.8C892.05 168.7 960.45 197.3 1029 198.2C1097.55 199 1165.95 172 1234.5 166.8C1303.05 161.7 1371.45 178.3 1405.8 186.7L1440 195V277H1405.8C1371.45 277 1303.05 277 1234.5 277C1165.95 277 1097.55 277 1029 277C960.45 277 892.05 277 823.2 277C754.5 277 685.5 277 616.8 277C547.95 277 479.55 277 411 277C342.45 277 274.05 277 205.5 277C136.95 277 68.55 277 34.2 277H0V135Z" fill="#4CA9EE"/>
</svg>
