<svg width="264" height="84" viewBox="0 0 264 84" fill="none" xmlns="http://www.w3.org/2000/svg">
<path d="M11.76 36.16C14.8533 36.16 16.4 34.84 16.4 32.2C16.4 31.08 15.8133 30.1333 14.64 29.36C13.7867 28.7733 12.6133 28.1467 11.12 27.48C9.65333 26.7867 8.54667 26.24 7.8 25.84C7.08 25.44 6.24 24.88 5.28 24.16C3.44 22.7467 2.52 20.9867 2.52 18.88C2.52 16.7733 3.33333 15.0267 4.96 13.64C6.61333 12.2267 8.84 11.52 11.64 11.52C14.44 11.52 17.4267 12.4133 20.6 14.2C20.6 16.12 20.4 18.2 20 20.44C19.1467 20.7067 17.88 20.84 16.2 20.84L15.04 16.08C14.0533 15.7867 12.9733 15.64 11.8 15.64C10.6267 15.64 9.72 15.8933 9.08 16.4C8.44 16.9067 8.12 17.6667 8.12 18.68C8.12 19.6667 8.61333 20.56 9.6 21.36C10.6133 22.1333 11.8267 22.8533 13.24 23.52C14.6533 24.16 15.6267 24.6133 16.16 24.88C16.6933 25.1467 17.3733 25.5467 18.2 26.08C19.0267 26.6133 19.6533 27.12 20.08 27.6C21.1733 28.88 21.72 30.3067 21.72 31.88C21.72 34.6533 20.8 36.7867 18.96 38.28C17.12 39.7733 14.72 40.52 11.76 40.52C10.1867 40.52 8.45333 40.2533 6.56 39.72C4.69333 39.16 3.10667 38.4533 1.8 37.6C1.85333 35.9733 2.06667 33.7733 2.44 31C3.50667 30.7867 4.78667 30.68 6.28 30.68L7.12 35.48C8.58667 35.9333 10.1333 36.16 11.76 36.16ZM29.6897 49.68C28.9164 49.68 28.063 49.5467 27.1297 49.28C26.1964 49.0133 25.1964 48.6133 24.1297 48.08C24.2897 45.0133 24.4364 43.1867 24.5697 42.6C25.583 42.3333 26.4097 42.2 27.0497 42.2C27.7164 42.2 28.143 42.2133 28.3297 42.24L29.6097 46.24L29.9697 46.2C30.583 46.12 31.2097 45.3867 31.8497 44C32.4897 42.6133 32.9564 41.28 33.2497 40H31.5697L25.6497 23.52L22.5297 23.16C22.5297 22.0667 22.8364 20.9067 23.4497 19.68H33.4097L33.7697 21.88C32.6764 22.3867 31.7564 22.7333 31.0097 22.92L34.0497 32.4L34.4097 34.12H35.2897L38.6897 22.92C37.783 22.76 36.663 22.4133 35.3297 21.88L35.6897 19.68H45.6497C46.263 20.9067 46.5697 22.0667 46.5697 23.16C45.5297 23.32 44.4897 23.4267 43.4497 23.48C41.0497 30.52 39.1697 35.96 37.8097 39.8C36.4764 43.64 35.263 46.24 34.1697 47.6C33.0764 48.9867 31.583 49.68 29.6897 49.68ZM75.9234 28.44C75.8701 26.5733 75.6434 25.28 75.2434 24.56C74.8701 23.84 73.9901 23.48 72.6034 23.48C71.2434 23.48 69.9768 23.7733 68.8034 24.36C68.8034 27.7733 68.6301 31.7067 68.2834 36.16L71.4434 36.52C71.4434 37.6133 71.1368 38.7733 70.5234 40H60.5634L60.2034 37.8C61.5901 37.2933 62.8034 36.8933 63.8434 36.6L63.5234 28.28C63.4701 26.5467 63.2568 25.32 62.8834 24.6C62.5368 23.8533 61.8568 23.48 60.8434 23.48C60.3101 23.48 59.5368 23.5733 58.5234 23.76C57.5101 23.9467 56.7368 24.1467 56.2034 24.36C56.2034 24.44 56.0834 28.3733 55.8434 36.16L58.9634 36.52C58.9634 37.6933 58.6568 38.8533 58.0434 40H48.0834L47.7234 37.8C49.2968 37.1867 50.4968 36.7867 51.3234 36.6L50.8034 23.68C49.7101 23.5733 48.6568 23.3733 47.6434 23.08L47.8434 20.2C48.2968 20.0667 49.2701 19.9067 50.7634 19.72C52.2568 19.5333 53.3901 19.44 54.1634 19.44C54.2701 19.52 54.4701 19.7733 54.7634 20.2C55.0568 20.6 55.2568 20.92 55.3634 21.16C56.2701 20.7067 57.3634 20.2667 58.6434 19.84C59.9501 19.4133 60.7501 19.2 61.0434 19.2C63.8701 19.2 65.9368 19.9333 67.2434 21.4C68.2568 20.8667 69.4834 20.3733 70.9234 19.92C72.3634 19.44 73.2568 19.2 73.6034 19.2C76.1368 19.2 78.0301 19.8 79.2834 21C80.5368 22.2 81.1634 24.2 81.1634 27C81.1634 28.5467 81.0434 31.6 80.8034 36.16L83.9234 36.52C83.9234 37.6933 83.6168 38.8533 83.0034 40H73.0834L72.7234 37.8C73.9768 37.2933 75.1234 36.8933 76.1634 36.6C76.1368 35.9867 76.1101 35.12 76.0834 34C76.0301 32.16 75.9768 30.3067 75.9234 28.44ZM97.6328 40.48C96.0861 40.48 94.4595 39.9733 92.7528 38.96C92.6995 41.7867 92.6728 43.92 92.6728 45.36L95.7928 45.72C95.7928 46.8933 95.4861 48.0533 94.8728 49.2H84.9128L84.5528 47C86.2595 46.36 87.4595 45.96 88.1528 45.8L87.3928 23.6C86.1395 23.4933 85.0861 23.2933 84.2328 23C84.2328 22.0133 84.3261 21.0533 84.5128 20.12C85.6328 19.88 88.1128 19.6667 91.9528 19.48C92.1661 19.8267 92.4061 20.4133 92.6728 21.24C95.4461 19.88 97.2728 19.2 98.1528 19.2C100.793 19.2 102.753 20.1333 104.033 22C105.313 23.84 105.953 26.32 105.953 29.44C105.953 32.56 105.233 35.1867 103.793 37.32C102.379 39.4267 100.326 40.48 97.6328 40.48ZM92.9928 24.76L92.8328 34.88C93.4461 35.44 94.1661 35.9333 94.9928 36.36C95.8461 36.76 96.5661 36.96 97.1528 36.96C99.4995 36.96 100.673 34.7067 100.673 30.2C100.673 28.52 100.499 27.1733 100.153 26.16C99.8328 25.1467 99.4461 24.44 98.9928 24.04C98.5661 23.6133 98.0595 23.4 97.4728 23.4C96.2995 23.4 94.8061 23.8533 92.9928 24.76ZM111.353 40.48L110.473 40.44C110.313 40.1467 110.1 39.6 109.833 38.8C109.567 38 109.42 37.4 109.393 37C109.26 34.36 109.113 29.7867 108.953 23.28H106.153L106.273 21C106.887 20.5733 107.62 20.1867 108.473 19.84L111.713 14.72C112.753 14.8267 113.567 15.1067 114.153 15.56L114.113 19.36C115.793 19.4133 117.353 19.5733 118.793 19.84C118.793 20.9067 118.46 22.0533 117.793 23.28H114.073C113.967 28.88 113.9 33.08 113.873 35.88C114.94 35.9867 116.393 36.2933 118.233 36.8L118.193 38.88C117.74 39.1733 116.727 39.52 115.153 39.92C113.607 40.2933 112.34 40.48 111.353 40.48ZM130.98 22.4C130.02 22.4 128.926 22.64 127.7 23.12C127.353 23.6533 127.02 24.6 126.7 25.96C126.406 27.2933 126.26 28.64 126.26 30C126.26 32.5067 126.633 34.2933 127.38 35.36C128.126 36.4 129.326 36.92 130.98 36.92C132.66 36.92 133.873 36.4 134.62 35.36C135.366 34.2933 135.74 32.48 135.74 29.92C135.74 27.3333 135.353 25.44 134.58 24.24C133.833 23.0133 132.633 22.4 130.98 22.4ZM130.98 19.2C134.1 19.2 136.606 20.16 138.5 22.08C140.42 23.9733 141.38 26.6267 141.38 30.04C141.38 33.4267 140.433 36.0133 138.54 37.8C136.646 39.5867 134.126 40.48 130.98 40.48C127.833 40.48 125.313 39.5867 123.42 37.8C121.553 36.0133 120.62 33.4267 120.62 30.04C120.62 26.6267 121.566 23.9733 123.46 22.08C125.353 20.16 127.86 19.2 130.98 19.2ZM170.103 28.44C170.05 26.5733 169.823 25.28 169.423 24.56C169.05 23.84 168.17 23.48 166.783 23.48C165.423 23.48 164.156 23.7733 162.983 24.36C162.983 27.7733 162.81 31.7067 162.463 36.16L165.623 36.52C165.623 37.6133 165.316 38.7733 164.703 40H154.743L154.383 37.8C155.77 37.2933 156.983 36.8933 158.023 36.6L157.703 28.28C157.65 26.5467 157.436 25.32 157.063 24.6C156.716 23.8533 156.036 23.48 155.023 23.48C154.49 23.48 153.716 23.5733 152.703 23.76C151.69 23.9467 150.916 24.1467 150.383 24.36C150.383 24.44 150.263 28.3733 150.023 36.16L153.143 36.52C153.143 37.6933 152.836 38.8533 152.223 40H142.263L141.903 37.8C143.476 37.1867 144.676 36.7867 145.503 36.6L144.983 23.68C143.89 23.5733 142.836 23.3733 141.823 23.08L142.023 20.2C142.476 20.0667 143.45 19.9067 144.943 19.72C146.436 19.5333 147.57 19.44 148.343 19.44C148.45 19.52 148.65 19.7733 148.943 20.2C149.236 20.6 149.436 20.92 149.543 21.16C150.45 20.7067 151.543 20.2667 152.823 19.84C154.13 19.4133 154.93 19.2 155.223 19.2C158.05 19.2 160.116 19.9333 161.423 21.4C162.436 20.8667 163.663 20.3733 165.103 19.92C166.543 19.44 167.436 19.2 167.783 19.2C170.316 19.2 172.21 19.8 173.463 21C174.716 22.2 175.343 24.2 175.343 27C175.343 28.5467 175.223 31.6 174.983 36.16L178.103 36.52C178.103 37.6933 177.796 38.8533 177.183 40H167.263L166.903 37.8C168.156 37.2933 169.303 36.8933 170.343 36.6C170.316 35.9867 170.29 35.12 170.263 34C170.21 32.16 170.156 30.3067 170.103 28.44Z" fill="white"/>
<path d="M133.928 58.4918C133.928 56.5651 132.908 55.6018 130.868 55.6018C130.664 55.6018 130.403 55.6245 130.086 55.6698L129.304 59.8178C127.717 59.8178 126.663 59.7498 126.142 59.6138C125.689 58.3445 125.462 56.9731 125.462 55.4998V55.1938C125.983 54.5591 126.833 53.9925 128.012 53.4938C129.213 52.9725 130.256 52.7118 131.14 52.7118C133.248 52.7118 134.982 53.2331 136.342 54.2758C137.702 55.2958 138.382 56.5538 138.382 58.0498C138.382 60.0218 137.396 61.6311 135.424 62.8778C136.512 63.2178 137.43 63.8865 138.178 64.8838C138.926 65.8585 139.3 67.0938 139.3 68.5898C139.3 70.0858 138.813 71.4458 137.838 72.6698C136.863 73.9165 135.73 74.8231 134.438 75.3898C133.146 75.9791 131.741 76.2738 130.222 76.2738C128.726 76.2738 126.981 75.9338 124.986 75.2538C125.031 74.0978 125.281 73.1911 125.734 72.5338L126.754 72.7378C127.842 73.0098 128.726 73.1458 129.406 73.1458C130.109 73.1458 130.641 73.1118 131.004 73.0438C131.367 72.9758 131.877 72.8285 132.534 72.6018C133.191 72.3751 133.735 71.9558 134.166 71.3438C134.597 70.7318 134.812 69.9158 134.812 68.8958C134.812 67.8758 134.461 67.0258 133.758 66.3458C133.055 65.6431 132.149 65.2918 131.038 65.2918C130.97 65.2918 130.188 65.3598 128.692 65.4958C128.465 64.5438 128.352 63.9205 128.352 63.6258C128.352 63.3311 128.375 62.9571 128.42 62.5038L130.426 62.2318C131.401 62.0958 132.228 61.6991 132.908 61.0418C133.588 60.3618 133.928 59.5118 133.928 58.4918ZM154.622 46.8978C154.758 47.3965 154.826 47.9178 154.826 48.4618C154.826 48.9831 154.769 49.4025 154.656 49.7198C149.964 50.0825 147.244 52.6551 146.496 57.4378C148.06 56.5991 149.476 56.1798 150.746 56.1798C153.08 56.1798 154.939 56.8031 156.322 58.0498C157.704 59.2738 158.396 61.1891 158.396 63.7958C158.396 66.4025 157.682 68.3971 156.254 69.7798C154.826 71.1625 152.944 71.8538 150.61 71.8538C149 71.8538 147.606 71.5138 146.428 70.8338C145.249 70.1538 144.342 69.2245 143.708 68.0458C142.461 65.8018 141.838 63.0365 141.838 59.7498C141.838 57.6418 142.223 55.7491 142.994 54.0718C143.787 52.3718 144.818 51.0231 146.088 50.0258C148.672 47.9405 151.516 46.8978 154.622 46.8978ZM146.462 61.3818L146.564 63.3538V63.4218C146.7 64.9858 147.108 66.2778 147.788 67.2978C148.468 68.2951 149.352 68.7938 150.44 68.7938C152.752 68.7938 153.908 66.9578 153.908 63.2858C153.908 61.9031 153.636 60.8945 153.092 60.2598C152.57 59.6251 151.709 59.3078 150.508 59.3078C149.329 59.3078 147.98 59.8065 146.462 60.8038V61.3818ZM168.548 52.6778C171.358 52.6778 173.41 53.4938 174.702 55.1258C175.994 56.7351 176.64 59.0358 176.64 62.0278C176.64 64.9971 175.994 67.3771 174.702 69.1678C173.41 70.9585 171.347 71.8538 168.514 71.8538C165.68 71.8538 163.652 71.0605 162.428 69.4738C161.204 67.8645 160.592 65.4391 160.592 62.1978C160.592 55.8511 163.244 52.6778 168.548 52.6778ZM166.814 68.3858C167.29 68.6351 167.868 68.7598 168.548 68.7598C169.228 68.7598 169.794 68.6351 170.248 68.3858C170.724 68.1365 171.075 67.8305 171.302 67.4678C171.551 67.1051 171.744 66.5951 171.88 65.9378C172.061 65.0765 172.152 63.8185 172.152 62.1638C172.152 57.9025 170.95 55.7718 168.548 55.7718C167.89 55.7718 167.324 55.9078 166.848 56.1798C166.372 56.4518 166.009 56.7691 165.76 57.1318C165.51 57.4945 165.318 57.9818 165.182 58.5938C165 59.4098 164.91 60.3845 164.91 61.5178C164.91 62.6285 164.921 63.4671 164.944 64.0338C164.989 64.5778 165.068 65.1898 165.182 65.8698C165.318 66.5271 165.51 67.0485 165.76 67.4338C166.009 67.7965 166.36 68.1138 166.814 68.3858Z" fill="#4CA9EE"/>
<path opacity="0.5" fill-rule="evenodd" clip-rule="evenodd" d="M187.917 31.9799C187.917 47.3977 199.323 56.2915 209.035 63.8638C210.044 64.6509 211.035 65.4238 211.993 66.1881C215.584 69.0529 219.042 71.75 222.5 71.75V19.2522C206.938 2.88913 187.917 14.9596 187.917 31.9799Z" fill="#4CA9EE"/>
<path d="M229.417 26.2475L222.5 19.2522V71.75C225.958 71.75 229.417 69.0529 233.007 66.1881C233.965 65.4237 234.957 64.6509 235.966 63.8638C245.677 56.2915 257.083 47.3977 257.083 31.9798C257.083 16.3613 241.066 4.9108 226.403 15.7749L233.084 22.5345C234.097 23.5594 234.098 25.2215 233.085 26.2468C232.072 27.2721 230.43 27.2724 229.417 26.2475Z" fill="#4CA9EE"/>
</svg>
