<svg width="140" height="140" viewBox="0 0 140 140" fill="none" xmlns="http://www.w3.org/2000/svg">
<path fill-rule="evenodd" clip-rule="evenodd" d="M134.167 23.3333C134.167 18.1764 127.488 16.3421 123.069 15.1286C122.663 15.0171 122.276 14.9108 121.915 14.8078C116.397 13.231 108.56 11.6666 99.1668 11.6666C89.1113 11.6666 80.8204 15.015 75.1271 18.2686C74.2562 18.7662 73.3403 19.4537 72.5126 20.075C71.4194 20.8958 70.4802 21.6013 70.0002 21.6013C69.5201 21.6013 68.5809 20.8958 67.4877 20.075C66.66 19.4537 65.7442 18.7662 64.8732 18.2686C59.1799 15.015 50.8889 11.6666 40.8335 11.6666C31.4405 11.6666 23.6036 13.231 18.0851 14.8078C17.7381 14.9069 17.3663 15.0092 16.9761 15.1167C12.5768 16.3281 5.8335 18.1849 5.8335 23.3333V99.1666C5.8335 101.188 6.88029 103.066 8.60007 104.129C11.336 105.82 14.9466 104.34 18.1461 103.028C19.2624 102.57 20.3286 102.133 21.2902 101.859C25.9801 100.519 32.7264 99.1666 40.8335 99.1666C48.1911 99.1666 53.6991 101.594 57.8283 104.135C58.8888 104.788 59.961 105.62 61.0612 106.474C63.7807 108.586 66.674 110.833 70.0002 110.833C73.3357 110.833 76.2144 108.594 78.9292 106.483C80.0306 105.626 81.1051 104.791 82.172 104.135C86.3014 101.594 91.8092 99.1666 99.1668 99.1666C107.274 99.1666 114.02 100.519 118.71 101.859C119.716 102.146 120.808 102.607 121.941 103.086C125.092 104.417 128.563 105.883 131.4 104.129C133.12 103.066 134.167 101.188 134.167 99.1666V23.3333ZM19.4399 26.5853C18.268 26.9593 17.5002 28.0628 17.5002 29.293V86.9114C17.5002 88.8591 19.372 90.2609 21.2654 89.8047C26.4588 88.554 33.1205 87.4999 40.8335 87.4999C51.1182 87.4999 58.7967 90.9965 64.1668 94.3372V31.8247C62.9937 30.8929 61.2717 29.6476 59.0854 28.398C54.5706 25.8183 48.2781 23.3333 40.8335 23.3333C31.5882 23.3333 24.0912 25.1006 19.4399 26.5853ZM99.1668 87.4999C88.8821 87.4999 81.2037 90.9965 75.8335 94.3372V31.8247C77.0066 30.8929 78.7286 29.6476 80.9149 28.398C85.4299 25.8183 91.7223 23.3333 99.1668 23.3333C108.412 23.3333 115.909 25.1006 120.561 26.5853C121.732 26.9593 122.5 28.0628 122.5 29.293V86.9114C122.5 88.8591 120.628 90.2609 118.735 89.8047C113.541 88.554 106.88 87.4999 99.1668 87.4999Z" fill="white"/>
<path d="M12.176 119.051C10.8592 116.111 12.1753 112.66 15.1155 111.343C17.8469 110.129 20.6746 109.108 23.5186 108.196C28.2371 106.682 34.7613 105 40.8331 105C47.64 105 53.4498 108.669 57.6605 111.327C57.8766 111.464 58.0885 111.598 58.2961 111.728C63.2022 114.812 66.5021 116.667 69.9998 116.667C73.4934 116.667 76.7735 114.817 81.6735 111.73C81.8747 111.604 82.0795 111.474 82.2883 111.342C86.5029 108.677 92.3164 105 99.1665 105C105.271 105 111.794 106.681 116.51 108.197C120.745 109.558 123.887 110.905 124.694 111.259C127.646 112.565 129.175 116.05 127.819 119.061C126.506 121.978 123.001 123.273 120.093 121.98C117.765 120.954 115.36 120.082 112.939 119.303C108.583 117.903 103.439 116.667 99.1665 116.667C95.905 116.667 92.7714 118.525 87.54 121.824C83.2035 124.559 77.2174 128.333 69.9998 128.333C62.7775 128.333 56.7719 124.554 52.4231 121.817C47.1812 118.518 44.0546 116.667 40.8331 116.667C36.5968 116.667 31.4544 117.902 27.0832 119.304C24.6478 120.086 22.2233 120.955 19.8827 121.991C16.9427 123.307 13.4926 121.991 12.176 119.051Z" fill="white"/>
</svg>
