<svg width="140" height="140" viewBox="0 0 140 140" fill="none" xmlns="http://www.w3.org/2000/svg">
<g clip-path="url(#clip0_533_1716)">
<path d="M78.5347 0.124912C48.4886 -1.73419 23.1899 17.2719 23.7621 48.2387L23.7392 51.0414L10.6855 74.2199C9.98338 75.4687 9.92084 76.9808 10.5188 78.2876C11.1119 79.5946 12.2959 80.5333 13.6956 80.8081L21.7628 83.047L24.2951 107.628C24.3647 109.995 25.4119 112.222 27.1868 113.783C28.9639 115.335 31.311 116.073 33.651 115.81L40.0942 116.327C41.35 116.185 42.6107 116.588 43.5511 117.436C44.4941 118.287 45.0317 119.5 45.0317 120.772V140H99.5327C99.5327 140 99.5327 130.721 99.5327 126.984C99.5327 123.247 100.814 114.704 103.251 110.795C112.086 96.5901 126.469 89.0326 128.895 59.897C131.321 30.7658 114.03 2.32417 78.5347 0.124912ZM116.104 54.3005C113.43 54.3005 110.638 54.3005 110.638 54.3005C109.308 54.2984 108.228 53.2128 108.226 51.8754V48.4903C108.226 47.2508 107.223 46.2421 105.99 46.2421C104.755 46.2421 103.752 47.2508 103.752 48.4903V51.8754C103.754 55.7008 106.836 58.7972 110.638 58.7994C110.645 58.7994 112.918 58.7994 115.327 58.7994C112.758 69.4624 105.68 73.4789 98.5831 69.4484C93.9583 66.8182 94.3521 62.8925 92.1953 59.6356V47.74C92.1953 46.5005 91.1919 45.4918 89.957 45.4918C88.7222 45.4918 87.7212 46.5007 87.7212 47.74V56.1082C84.5099 54.7246 79.3964 53.8368 70.8585 53.8368C68.5462 53.8368 66.4124 53.8182 64.4221 53.7807V44.7439C64.4221 43.4998 63.4189 42.4932 62.184 42.4932C60.9489 42.4932 59.9482 43.4998 59.9482 44.7439V53.6574C41.8553 52.9492 39.1955 50.0253 37.773 42.6729C37.7151 42.2348 37.6734 41.8017 37.6362 41.3705H47.1333C51.6373 41.3705 55.2889 37.6988 55.2889 33.1723V29.631C55.2889 28.3893 54.286 27.3828 53.0506 27.3828C51.8157 27.3828 50.815 28.3893 50.815 29.631V33.1723C50.8104 35.2154 49.1654 36.8697 47.1333 36.8741H37.6245C38.1714 30.6165 41.1115 25.5005 45.6806 20.8222C49.1722 17.2413 53.4794 14.4667 58.3658 12.5819C58.3658 15.4896 58.3658 18.3271 58.3658 19.4665C58.3794 21.3956 59.0516 23.3619 60.3444 25.0343C60.993 25.8639 61.818 26.6142 62.8258 27.1591C63.8265 27.7087 65.0198 28.0396 66.2919 28.0374C69.8852 28.0374 73.4813 28.0374 73.4813 28.0374C74.7162 28.0374 75.7172 27.0287 75.7172 25.7892C75.7172 24.5475 74.7162 23.5388 73.4813 23.5388C73.4813 23.5388 69.8852 23.5388 66.2919 23.5388C65.7681 23.5364 65.3488 23.4152 64.9504 23.2009C64.3595 22.8839 63.808 22.2993 63.4189 21.5816C63.0319 20.8734 62.8326 20.0437 62.8394 19.4662C62.8394 18.1406 62.8394 14.5157 62.8394 11.1559C66.5489 10.1915 70.5085 9.68128 74.649 9.68128C75.7008 9.68128 76.7666 9.71382 77.8325 9.78136C87.2159 10.3616 95.3392 13.3202 101.701 18.4034V38.1806C101.701 39.4247 102.705 40.4332 103.94 40.4332C105.175 40.4332 106.175 39.4244 106.175 38.1806V22.6466C106.294 22.7792 106.416 22.9075 106.534 23.0425C112.943 30.5 116.398 40.7903 116.307 51.7051C116.263 52.6071 116.192 53.4641 116.104 54.3005Z" fill="white"/>
<path d="M87.721 23.5624C86.4861 23.5624 85.4829 24.5711 85.4829 25.8128V33.0816C85.4805 34.6516 84.2157 35.933 82.6491 35.9354H74.6719C73.437 35.9354 72.436 36.9395 72.436 38.1814C72.436 39.4256 73.437 40.434 74.6719 40.434H82.6491C86.6876 40.4272 89.9568 37.1421 89.9568 33.0816V25.8128C89.9568 24.5711 88.9558 23.5624 87.721 23.5624Z" fill="white"/>
</g>
<defs>
<clipPath id="clip0_533_1716">
<rect width="139.231" height="140" fill="white"/>
</clipPath>
</defs>
</svg>
