<svg width="65" height="64" viewBox="0 0 65 64" fill="none" xmlns="http://www.w3.org/2000/svg">
<path d="M8.5 24H56.5M24.5 40L29.8333 45.3333L40.5 34.6667M19.1667 8V13.3333M45.8333 8V13.3333M17.0333 56H47.9667C50.9536 56 52.4472 56 53.588 55.4187C54.5915 54.9075 55.4075 54.0915 55.9187 53.088C56.5 51.9472 56.5 50.4536 56.5 47.4667V21.8667C56.5 18.8797 56.5 17.3862 55.9187 16.2454C55.4075 15.2418 54.5915 14.4259 53.588 13.9146C52.4472 13.3333 50.9536 13.3333 47.9667 13.3333H17.0333C14.0464 13.3333 12.5529 13.3333 11.4121 13.9146C10.4085 14.4259 9.59261 15.2418 9.08131 16.2454C8.5 17.3862 8.5 18.8797 8.5 21.8667V47.4667C8.5 50.4536 8.5 51.9472 9.08131 53.088C9.59261 54.0915 10.4085 54.9075 11.4121 55.4187C12.5529 56 14.0464 56 17.0333 56Z" stroke="white" stroke-width="5.33333" stroke-linecap="round" stroke-linejoin="round"/>
</svg>
