<svg width="140" height="140" viewBox="0 0 140 140" fill="none" xmlns="http://www.w3.org/2000/svg">
<path d="M110.254 18.4378H98.528C95.7807 16.6427 92.7893 15.3336 90.0246 14.3872C88.7338 10.9969 86.6708 7.94551 84.0153 5.55556C80.1181 2.04757 75.1404 0.115356 70.0002 0.115356C64.8597 0.115356 59.8825 2.04734 55.9851 5.55579C53.3298 7.94597 51.2666 10.9974 49.976 14.3875C47.2111 15.3338 44.2199 16.6429 41.4726 18.4381H29.7466C22.3504 18.4381 16.333 24.4555 16.333 31.8517V126.471C16.333 133.867 22.3504 139.885 29.7466 139.885H110.254C117.65 139.885 123.668 133.867 123.668 126.471V31.8515C123.667 24.4553 117.65 18.4378 110.254 18.4378ZM58.5725 20.155C58.6858 19.5665 58.8376 18.9936 59.0217 18.4381C60.6522 13.5158 64.951 9.99908 70.0002 9.99908C75.0493 9.99908 79.3482 13.5158 80.9786 18.4381C81.1627 18.9939 81.3145 19.5665 81.4278 20.155C81.6855 21.4955 82.7134 22.5494 84.0335 22.8971C88.8252 24.1597 92.7311 26.0495 95.223 28.3216C95.616 28.6799 95.9749 29.0474 96.2954 29.4237C97.8762 31.28 96.5725 34.1341 94.1343 34.1341H45.866C43.4279 34.1341 42.1244 31.2802 43.705 29.4237C44.0254 29.0472 44.3844 28.6799 44.7773 28.3216C47.2692 26.0493 51.1754 24.1595 55.9669 22.8971C57.287 22.5491 58.3146 21.4952 58.5725 20.155ZM113.784 126.471C113.784 128.421 112.203 130.001 110.254 130.001H29.7469C27.7973 130.001 26.217 128.421 26.217 126.471V31.8515C26.217 29.9019 27.7973 28.3216 29.7469 28.3216H33.4786C33.3617 28.8114 33.2724 29.309 33.214 29.8138C32.9455 32.1389 33.3243 34.4954 34.3099 36.6286C35.2932 38.7574 36.8373 40.5696 38.7751 41.8697C40.87 43.275 43.322 44.0179 45.866 44.0179H94.1345C96.6786 44.0179 99.1306 43.275 101.225 41.8695C103.163 40.5694 104.708 38.7569 105.691 36.6284C106.676 34.4952 107.055 32.1387 106.787 29.8136C106.728 29.309 106.639 28.8114 106.522 28.3216H110.254C112.203 28.3216 113.784 29.9019 113.784 31.8515L113.784 126.471Z" fill="white"/>
<path d="M110.254 140H29.7467C22.2869 140 16.2178 133.931 16.2178 126.471V31.8517C16.2178 24.3918 22.2869 18.3227 29.7467 18.3227H41.4383C43.8592 16.7449 46.7013 15.3904 49.8875 14.2959C51.1924 10.8926 53.2734 7.84145 55.9082 5.46996C59.8268 1.9426 64.8314 0 70.0003 0C75.1692 0 80.174 1.9426 84.0925 5.46996C86.727 7.84122 88.808 10.8922 90.1131 14.2959C93.2999 15.3908 96.1423 16.7453 98.5623 18.3227H110.254C117.714 18.3227 123.783 24.3918 123.783 31.8517V126.471C123.783 133.931 117.714 140 110.254 140ZM29.7467 18.5534C22.414 18.5534 16.4485 24.519 16.4485 31.8517V126.471C16.4485 133.804 22.414 139.77 29.7467 139.77H110.254C117.587 139.77 123.552 133.804 123.552 126.471V31.8515C123.552 24.5187 117.587 18.5532 110.254 18.5532H98.4938L98.4649 18.5343C96.0417 16.9509 93.1897 15.5925 89.9872 14.4964L89.9359 14.4788L89.9168 14.4283C88.6259 11.0384 86.5585 7.99995 83.9379 5.64138C80.0621 2.15232 75.1122 0.230712 70.0003 0.230712C64.8884 0.230712 59.9385 2.15232 56.0625 5.64138C53.4418 8.00041 51.3744 11.0389 50.0838 14.4283L50.0647 14.4788L50.0135 14.4964C46.8119 15.592 43.9596 16.9507 41.5357 18.5343L41.5069 18.5532L29.7467 18.5534ZM110.254 130.117H29.747C27.737 130.117 26.1017 128.481 26.1017 126.471V31.8515C26.1017 29.8415 27.737 28.2062 29.747 28.2062H33.625L33.5911 28.3483C33.4737 28.8402 33.3853 29.3379 33.3288 29.827C33.0628 32.1311 33.4382 34.4661 34.415 36.5799C35.3893 38.6896 36.9194 40.4854 38.8398 41.7737C40.9155 43.1663 43.3452 43.9023 45.8666 43.9023H94.1351C96.6564 43.9023 99.0862 43.1663 101.162 41.7735C103.082 40.4852 104.612 38.6891 105.587 36.5797C106.563 34.4659 106.939 32.1309 106.673 29.8265C106.616 29.3379 106.528 28.8404 106.41 28.3481L106.376 28.206H110.255C112.265 28.206 113.9 29.8413 113.9 31.8512V126.471C113.899 128.481 112.264 130.117 110.254 130.117ZM29.747 28.4369C27.8641 28.4369 26.3324 29.9686 26.3324 31.8515V126.471C26.3324 128.354 27.8641 129.886 29.747 129.886H110.254C112.137 129.886 113.669 128.354 113.669 126.471V31.8515C113.669 29.9686 112.137 28.4369 110.254 28.4369H106.668C106.771 28.8917 106.849 29.3496 106.902 29.8002C107.173 32.1468 106.79 34.5247 105.796 36.6766C104.804 38.8245 103.246 40.6531 101.29 41.9652C99.1764 43.3834 96.702 44.133 94.1349 44.133H45.8664C43.2993 44.133 40.8249 43.3834 38.7111 41.9652C36.7553 40.6531 35.1973 38.8245 34.2053 36.6766C33.2109 34.5243 32.8286 32.1465 33.0997 29.8004C33.1518 29.3492 33.2305 28.8912 33.3336 28.4367H29.747V28.4369ZM94.1347 34.2495H45.8662C44.6974 34.2495 43.6672 33.5915 43.1779 32.5321C42.6853 31.4657 42.8535 30.2459 43.6172 29.3489C43.9344 28.9766 44.2985 28.6021 44.6997 28.2364C47.2121 25.9457 51.098 24.0608 55.9377 22.7856C57.2248 22.4462 58.2148 21.4053 58.4596 20.1334C58.5708 19.5561 58.7233 18.9736 58.9125 18.4019C60.6002 13.307 65.0561 9.88395 70.0005 9.88395C74.9449 9.88395 79.4007 13.307 81.0886 18.4019C81.278 18.974 81.4305 19.5568 81.5417 20.1334C81.7865 21.4055 82.7762 22.4465 84.0634 22.7859C88.9035 24.0612 92.7894 25.9461 95.3014 28.2367C95.7019 28.6019 96.066 28.9761 96.3839 29.3492C97.1478 30.2462 97.316 31.4657 96.8234 32.5321C96.3338 33.5913 95.3035 34.2495 94.1347 34.2495ZM70.0003 10.1144C65.1556 10.1144 60.7877 13.4741 59.1314 18.4743C58.9453 19.0365 58.7953 19.6094 58.6862 20.177C58.4245 21.5354 57.369 22.647 55.9965 23.0087C51.1929 24.2744 47.3402 26.1411 44.8552 28.4069C44.4611 28.7661 44.1038 29.1334 43.793 29.4984C43.0882 30.326 42.9329 31.4514 43.3874 32.4352C43.8387 33.4118 44.7885 34.0185 45.8664 34.0185H94.1349C95.2128 34.0185 96.1629 33.4118 96.6139 32.4349C97.0684 31.4512 96.9129 30.3258 96.2081 29.4982C95.8966 29.1325 95.5392 28.7652 95.1459 28.4067C92.6613 26.1411 88.8087 24.2744 84.0048 23.0085C82.6323 22.647 81.5765 21.5354 81.3151 20.1767C81.206 19.6099 81.0563 19.0372 80.8696 18.4743C79.2129 13.4738 74.845 10.1144 70.0003 10.1144Z" fill="white"/>
<path d="M70.0002 25.2087C72.7551 25.2087 74.9886 22.9754 74.9886 20.2203C74.9886 19.592 74.8712 18.9915 74.6594 18.4378C73.9417 16.5633 72.1267 15.2318 70 15.2318C67.8732 15.2318 66.0585 16.5633 65.3409 18.4378C65.1292 18.9913 65.0117 19.592 65.0117 20.2203C65.0119 22.9754 67.2452 25.2087 70.0002 25.2087Z" fill="white"/>
<path d="M70.0005 25.3241C67.1865 25.3241 64.8969 23.0345 64.8965 20.2203C64.8965 19.5944 65.0098 18.9807 65.2333 18.3967C65.9843 16.4348 67.8999 15.1167 70.0001 15.1167C72.1002 15.1167 74.0159 16.4348 74.7673 18.3967C74.9908 18.9809 75.1041 19.5944 75.1041 20.2203C75.1044 23.0345 72.8148 25.3241 70.0005 25.3241ZM70.0003 15.3472C67.9952 15.3472 66.1661 16.6057 65.4488 18.4791C65.2354 19.0367 65.1272 19.6225 65.1272 20.2203C65.1274 22.9072 67.3137 25.0934 70.0005 25.0934C72.6874 25.0934 74.8736 22.9074 74.8736 20.2203C74.8736 19.6227 74.7654 19.037 74.552 18.4791C73.8347 16.6059 72.0057 15.3472 70.0003 15.3472Z" fill="white"/>
<path d="M43.31 64.1822H68.4429C71.1722 64.1822 73.3848 61.9697 73.3848 59.2403C73.3848 56.511 71.172 54.2985 68.4429 54.2985H43.31C40.5807 54.2985 38.3682 56.511 38.3682 59.2403C38.3682 61.9697 40.5807 64.1822 43.31 64.1822Z" fill="white"/>
<path d="M68.443 64.2975H43.3101C40.5215 64.2975 38.2529 62.0289 38.2529 59.2403C38.2529 56.4517 40.5215 54.1831 43.3101 54.1831H68.443C71.2317 54.1831 73.5003 56.4517 73.5003 59.2403C73.5003 62.0289 71.2317 64.2975 68.443 64.2975ZM43.3101 54.4138C40.6489 54.4138 38.4836 56.5791 38.4836 59.2403C38.4836 61.9016 40.6489 64.0668 43.3101 64.0668H68.443C71.1045 64.0668 73.2695 61.9016 73.2695 59.2403C73.2695 56.5788 71.1043 54.4138 68.443 54.4138H43.3101Z" fill="white"/>
<path d="M96.69 80.9503H43.31C40.5807 80.9503 38.3682 83.1628 38.3682 85.8922C38.3682 88.6215 40.5807 90.834 43.31 90.834H96.69C99.4193 90.834 101.632 88.6215 101.632 85.8922C101.632 83.1628 99.4193 80.9503 96.69 80.9503Z" fill="white"/>
<path d="M96.6901 90.9494H43.3101C40.5215 90.9494 38.2529 88.6808 38.2529 85.8922C38.2529 83.1036 40.5215 80.835 43.3101 80.835H96.6901C99.4787 80.835 101.747 83.1036 101.747 85.8922C101.747 88.6808 99.4787 90.9494 96.6901 90.9494ZM43.3101 81.0657C40.6489 81.0657 38.4836 83.2309 38.4836 85.8922C38.4836 88.5534 40.6489 90.7187 43.3101 90.7187H96.6901C99.3513 90.7187 101.517 88.5534 101.517 85.8922C101.517 83.2309 99.3513 81.0657 96.6901 81.0657H43.3101Z" fill="white"/>
<path d="M81.4161 107.709H43.31C40.5807 107.709 38.3682 109.922 38.3682 112.651C38.3682 115.38 40.5807 117.593 43.31 117.593H81.4161C84.1454 117.593 86.358 115.38 86.358 112.651C86.358 109.922 84.1454 107.709 81.4161 107.709Z" fill="white"/>
<path d="M81.4162 117.708H43.3101C40.5215 117.708 38.2529 115.44 38.2529 112.651C38.2529 109.862 40.5215 107.594 43.3101 107.594H81.4162C84.2048 107.594 86.4734 109.862 86.4734 112.651C86.4734 115.44 84.2048 117.708 81.4162 117.708ZM43.3101 107.825C40.6489 107.825 38.4836 109.99 38.4836 112.651C38.4836 115.312 40.6489 117.478 43.3101 117.478H81.4162C84.0775 117.478 86.2427 115.312 86.2427 112.651C86.2427 109.99 84.0775 107.825 81.4162 107.825H43.3101Z" fill="white"/>
</svg>
