<svg width="1447" height="750" viewBox="0 0 1447 750" fill="none" xmlns="http://www.w3.org/2000/svg">
<g clip-path="url(#clip0_329_639)">
<path fill-rule="evenodd" clip-rule="evenodd" d="M1189.07 341.238L1063.59 587.592L1021.75 546.544C1021.75 546.544 926.658 749.451 938.269 749.451H1440V749.388L1334.68 525.373L1303.67 544.682L1189.07 341.238ZM1113.32 545.029L1190.65 395.128L1262.74 523.89L1231.63 545.029L1189.36 504.391L1113.32 545.029Z" fill="#4CA9EE"/>
<path fill-rule="evenodd" clip-rule="evenodd" d="M739.612 219.085L614.131 465.439L572.294 424.391C572.294 424.391 477.198 627.298 488.809 627.298H990.54V627.235L885.222 403.22L854.207 422.529L739.612 219.085ZM663.857 422.876L741.189 272.975L813.284 401.737L782.175 422.876L739.896 382.238L663.857 422.876Z" fill="#4CA9EE"/>
<path fill-rule="evenodd" clip-rule="evenodd" d="M1019.92 272.332L873.377 560.045L824.516 512.105C824.516 512.105 713.455 749.077 727.015 749.077H1312.98V749.003L1189.98 487.379L1153.76 509.931L1019.92 272.332ZM931.45 510.336L1021.77 335.269L1105.96 485.648L1069.63 510.336L1020.25 462.875L931.45 510.336Z" fill="#4CA9EE"/>
<path fill-rule="evenodd" clip-rule="evenodd" d="M375.625 140L188.428 507.522L126.013 446.284C126.013 446.284 -15.8555 748.991 1.46626 748.991H749.973V748.897L592.853 414.7L546.584 443.507L375.625 140ZM262.61 444.024L377.979 220.395L485.534 412.488L439.123 444.024L376.049 383.398L262.61 444.024Z" fill="#4CA9EE"/>
<path d="M151.722 572.304L250.467 660.536L312.417 557.286L396.894 511.856L490.006 600.088L610.152 491.581L705.893 451.408L864.71 469.054L934.169 564.795L1026.16 533.256L1084.35 581.315L1132.03 557.286L1153.43 572.304L1191.73 557.286L1229.65 593.705L1270.2 607.221L1322.39 620.362L1374.2 749.143L63.116 749.142L151.722 572.304Z" fill="#0080EC"/>
</g>
<defs>
<clipPath id="clip0_329_639">
<rect width="1447" height="749.406" fill="white"/>
</clipPath>
</defs>
</svg>
