<svg width="1447" height="750" viewBox="0 0 1447 750" fill="none" xmlns="http://www.w3.org/2000/svg">
<g clip-path="url(#clip0_329_639)">
<path d="M373.848 206.5L495.5 419L444.5 453.5L363.848 425L248.848 453.5L373.848 206.5Z" fill="#81C5FF"/>
<path d="M741 256L862.652 468.5L811.652 503L731 474.5L616 503L741 256Z" fill="#81C5FF"/>
<path d="M1021 320L1142.65 532.5L1091.65 567L1011 538.5L896 567L1021 320Z" fill="#81C5FF"/>
<path d="M1191 380L1312.65 592.5L1261.65 627L1181 598.5L1066 627L1191 380Z" fill="#81C5FF"/>
<path fill-rule="evenodd" clip-rule="evenodd" d="M1189.07 341.238L1063.59 587.592L1021.75 546.544C1021.75 546.544 926.658 749.451 938.269 749.451H1440V749.388L1334.68 525.373L1303.67 544.682L1189.07 341.238ZM1113.32 545.029L1190.65 395.128L1262.74 523.89L1231.63 545.029L1189.36 504.391L1113.32 545.029Z" fill="#4CA9EE"/>
<path fill-rule="evenodd" clip-rule="evenodd" d="M739.612 219.085L614.132 465.439L581 508C581 508 477.199 627.298 488.81 627.298H990.541V627.235L885.222 403.22L854.207 422.529L739.612 219.085ZM663.857 422.876L741.19 272.975L813.285 401.737L782.175 422.876L739.896 382.238L663.857 422.876Z" fill="#4CA9EE"/>
<path fill-rule="evenodd" clip-rule="evenodd" d="M1019.92 272.332L873.377 560.045L824.516 512.105C824.516 512.105 713.455 749.077 727.015 749.077H1312.98V749.003L1189.98 487.379L1153.76 509.931L1019.92 272.332ZM931.45 510.336L1021.77 335.269L1105.96 485.648L1069.63 510.336L1020.25 462.875L931.45 510.336Z" fill="#4CA9EE"/>
<path fill-rule="evenodd" clip-rule="evenodd" d="M375.625 140L188.428 507.522L126.013 446.284C126.013 446.284 -15.8555 748.991 1.46626 748.991H749.973V748.897L592.853 414.7L546.584 443.507L375.625 140ZM262.61 444.024L377.979 220.395L485.534 412.488L439.123 444.024L376.049 383.398L262.61 444.024Z" fill="#4CA9EE"/>
<path d="M134.5 542.098L199.5 598.098L247 512.098L365 448.097L435.5 512.098L501.5 468.597L535.5 515.598L582 488.098L610.5 542.098L666.998 473.097L737.498 448.097L780.998 483.597L824.998 456.097L844.498 483.597L871.498 468.597L921.499 571.097L1011.5 529.097L1072.5 581.883L1121 546.097L1141.5 571.097L1179.5 546.097L1238 608.597L1277.5 581.883L1300.5 608.597L1317.5 596.901L1398 773.739L37.4982 773.739L134.5 542.098Z" fill="#0080EC"/>
</g>
<defs>
<clipPath id="clip0_329_639">
<rect width="1447" height="749.406" fill="white"/>
</clipPath>
</defs>
</svg>
