<svg width="96" height="96" viewBox="0 0 96 96" fill="none" xmlns="http://www.w3.org/2000/svg">
<path d="M80.6204 48.5992C80.46 48.5202 80.2984 48.4454 80.1359 48.373C80.5449 47.418 80.8341 46.4308 80.9908 45.4376C81.5612 41.8244 80.4718 37.9356 78.0768 35.035C75.9596 32.4708 73.0424 31 70.0736 31C68.8512 31 67.8601 32.0208 67.8601 33.28C67.8601 35.7946 65.8744 37.8402 63.4334 37.8402H32.4456C30.0045 37.8402 28.0188 35.7946 28.0188 33.28C28.0188 32.0208 27.0277 31 25.8053 31C22.8365 31 19.9193 32.4708 17.802 35.035C15.4073 37.9356 14.3177 41.8244 14.8881 45.4378C15.0448 46.4306 15.334 47.418 15.743 48.373C15.5807 48.4456 15.4189 48.5202 15.2585 48.5992C14.1558 49.1428 13.6897 50.504 14.2173 51.64C14.745 52.7764 16.0667 53.2568 17.1694 52.7126C20.2556 51.1916 23.9423 51.4618 26.7911 53.418C31.5704 56.7 37.7471 56.7006 42.527 53.418C45.8148 51.16 50.0639 51.16 53.3519 53.418C58.1317 56.7004 64.3083 56.7004 69.0879 53.418C71.9363 51.4616 75.6233 51.1912 78.7095 52.7126C79.8126 53.2566 81.1339 52.7762 81.6614 51.64C82.1889 50.504 81.7229 49.1428 80.6204 48.5992ZM76.6211 44.7056C76.4865 45.5582 76.1857 46.4146 75.7441 47.2332C72.5758 46.9508 69.3426 47.7618 66.6321 49.6234C63.3442 51.8812 59.0952 51.8812 55.8074 49.6234C51.0277 46.341 44.851 46.341 40.0713 49.6234C36.7835 51.8812 32.5344 51.8812 29.2466 49.6234C26.5359 47.7618 23.3029 46.9508 20.1344 47.2332C19.6931 46.4146 19.3921 45.558 19.2576 44.7058C18.8929 42.3954 19.6094 39.8846 21.1741 37.9894C21.9902 37.0012 22.9459 36.293 23.9654 35.9048C25.0623 39.6584 28.4487 42.4002 32.4454 42.4002H63.4331C67.4298 42.4002 70.8163 39.6584 71.9131 35.9048C72.9326 36.293 73.8883 37.0012 74.7044 37.9894C76.2693 39.8848 76.9859 42.3954 76.6211 44.7056Z" fill="#4CA9EE"/>
<path d="M80.6202 57.7194C76.1326 55.507 70.7727 55.9 66.6321 58.7438C63.3442 61.0018 59.0952 61.0018 55.8074 58.7438C51.0277 55.4614 44.851 55.4614 40.0713 58.7438C36.7835 61.0018 32.5345 61.0018 29.2466 58.7438C25.1056 55.9002 19.7459 55.5072 15.2585 57.7194C14.1558 58.263 13.6897 59.6244 14.2173 60.7604C14.745 61.8964 16.0667 62.3768 17.1694 61.833C20.2556 60.3118 23.9424 60.582 26.7911 62.5382C31.5704 65.8202 37.7472 65.8208 42.527 62.5382C45.8148 60.2802 50.0638 60.2802 53.3519 62.5382C58.1317 65.8206 64.3083 65.8206 69.0878 62.5382C71.9363 60.5818 75.6233 60.3114 78.7095 61.833C79.8126 62.3768 81.1337 61.8964 81.6614 60.7604C82.1888 59.6244 81.7225 58.263 80.6202 57.7194Z" fill="#4CA9EE"/>
</svg>
