<svg width="320" height="164" viewBox="0 0 320 164" fill="none" xmlns="http://www.w3.org/2000/svg">
<g filter="url(#filter0_d_768_1949)">
<path d="M54.3411 106.84C57.3471 106.84 58.8502 105.73 58.8502 103.51C58.8502 101.89 58.4817 100.87 57.7447 100.45C57.0271 100.01 55.398 99.7901 52.8574 99.7901L52.7411 106.78C53.4005 106.82 53.9338 106.84 54.3411 106.84ZM54.1665 97.3301C55.6599 97.2901 56.7168 97.0901 57.3374 96.7301C57.9581 96.3701 58.2684 95.6201 58.2684 94.4801C58.2684 93.3201 57.9096 92.5501 57.192 92.1701C56.4744 91.7901 55.3884 91.6001 53.9338 91.6001H52.8865C52.8477 94.1201 52.8284 96.0201 52.8284 97.3001L54.1665 97.3301ZM54.1956 109.63H47.0102L46.7484 107.98C47.7568 107.56 48.5714 107.27 49.192 107.11C49.192 107.05 49.1047 101.76 48.9302 91.2401C48.6199 91.1601 47.815 90.9001 46.5156 90.4601L46.7484 88.6301H54.8065C57.1144 88.6301 58.9084 89.0901 60.1884 90.0101C61.4684 90.9301 62.1084 92.2601 62.1084 94.0001C62.1084 94.8401 61.8853 95.7501 61.4393 96.7301C61.0126 97.7101 60.5181 98.2901 59.9556 98.4701C60.809 98.9501 61.4781 99.6201 61.9629 100.48C62.4477 101.34 62.6902 102.33 62.6902 103.45C62.6902 105.29 61.9629 106.78 60.5084 107.92C59.0538 109.06 56.9496 109.63 54.1956 109.63ZM70.9194 94.2401C71.2879 94.2401 71.5206 94.2501 71.6176 94.2701C71.6176 95.2501 71.4527 96.1601 71.123 97.0001C71.0455 101.32 70.997 104.56 70.9776 106.72L73.2467 106.99C73.2467 107.81 73.0237 108.68 72.5776 109.6H65.334L65.0721 107.95C66.2746 107.49 67.1473 107.19 67.6903 107.05L67.3703 97.3301C66.2261 97.2101 65.3824 97.0601 64.8394 96.8801C64.8394 96.3801 64.9073 95.6601 65.043 94.7201C66.1873 94.4001 68.1461 94.2401 70.9194 94.2401ZM70.9194 88.5701C71.094 89.4701 71.1812 90.1601 71.1812 90.6401C71.1812 91.1001 71.1424 91.6201 71.0649 92.2001C70.2891 92.3801 69.6297 92.4701 69.0867 92.4701C68.563 92.4701 67.923 92.4401 67.1667 92.3801C66.9921 91.4801 66.9049 90.8001 66.9049 90.3401C66.9049 89.8601 66.9437 89.3301 67.0212 88.7501C67.797 88.5701 68.4467 88.4801 68.9703 88.4801C69.5134 88.4801 70.163 88.5101 70.9194 88.5701ZM82.3993 97.2401C82.3605 97.1401 82.1665 97.0901 81.8174 97.0901C81.4684 97.0901 80.8671 97.3601 80.0138 97.9001C79.9362 101.82 79.8878 104.76 79.8684 106.72L82.1374 107.02C82.1374 107.88 81.9144 108.74 81.4684 109.6H74.2247L73.9629 107.95C75.1653 107.49 76.0381 107.19 76.5811 107.05L76.2611 97.3301C75.2526 97.2501 74.409 97.1001 73.7302 96.8801L73.9338 94.7201C74.4574 94.4801 76.3484 94.3201 79.6065 94.2401C79.7811 94.4201 79.8684 94.7701 79.8684 95.2901C81.575 94.4301 82.6514 94.0001 83.0974 94.0001C83.5629 94.0001 84.1253 94.1201 84.7847 94.3601C85.4635 94.5801 85.9774 94.8201 86.3265 95.0801V95.5901C86.3265 97.2301 86.1326 98.7501 85.7447 100.15C85.415 100.29 84.9787 100.36 84.4356 100.36C83.8926 100.36 83.3884 100.33 82.9229 100.27C82.8647 100.01 82.6902 99.0001 82.3993 97.2401ZM94.9148 96.4901L94.4493 96.4601C93.3632 96.4601 92.4905 96.8501 91.8311 97.6301C91.1911 98.3901 90.8711 99.6801 90.8711 101.5C90.8711 103.3 91.1135 104.67 91.5984 105.61C92.1026 106.55 93.0626 107.02 94.4784 107.02C95.1378 107.02 96.5341 106.56 98.6675 105.64C99.1523 106.34 99.4142 107.07 99.4529 107.83C98.3863 108.51 97.339 109.04 96.3111 109.42C95.3026 109.8 94.5851 109.99 94.1584 109.99C91.7729 109.99 89.9887 109.32 88.8057 107.98C87.6226 106.62 87.0311 104.72 87.0311 102.28C87.0311 96.7601 89.4457 94.0001 94.2748 94.0001C95.1087 94.0001 95.962 94.1101 96.8348 94.3301C97.7269 94.5301 98.4251 94.7901 98.9293 95.1101C98.8711 97.1101 98.6578 98.5601 98.2893 99.4601C97.6493 99.6201 96.7475 99.7001 95.5838 99.7001L94.9148 96.4901ZM106.367 87.3101L107.065 87.3401C107.065 88.3801 106.939 89.2901 106.687 90.0701C106.648 92.3501 106.629 94.0601 106.629 95.2001C107.25 94.9201 107.958 94.6501 108.753 94.3901C109.548 94.1301 110.042 94.0001 110.236 94.0001C112.215 94.0001 113.63 94.4601 114.484 95.3801C115.356 96.3001 115.793 97.7501 115.793 99.7301C115.793 99.9301 115.696 102.26 115.502 106.72L117.771 107.02C117.771 107.88 117.548 108.74 117.102 109.6H109.858L109.596 107.95C110.896 107.41 111.73 107.12 112.098 107.08C112.059 104.92 112.011 103.01 111.953 101.35C111.895 99.6701 111.739 98.5601 111.487 98.0201C111.235 97.4801 110.828 97.2101 110.265 97.2101C109.722 97.2101 109.092 97.2801 108.375 97.4201C107.676 97.5401 107.133 97.6901 106.745 97.8701L106.425 106.72L108.695 106.99C108.695 107.81 108.472 108.68 108.025 109.6H100.782L100.52 107.95C101.722 107.49 102.595 107.19 103.138 107.05L102.585 90.4001C101.674 90.3001 100.908 90.1501 100.287 89.9501C100.287 89.4501 100.355 88.7301 100.491 87.7901C101.635 87.4701 103.594 87.3101 106.367 87.3101ZM123.74 87.3101C124.205 87.3101 124.506 87.3201 124.642 87.3401C124.642 88.3801 124.516 89.2901 124.264 90.0701L124.176 95.1101C125.98 94.3701 127.221 94.0001 127.9 94.0001C129.82 94.0001 131.236 94.7401 132.147 96.2201C133.078 97.6801 133.544 99.5801 133.544 101.92C133.544 104.26 133.03 106.19 132.002 107.71C130.974 109.21 129.481 109.96 127.522 109.96C126.242 109.96 124.894 109.46 123.478 108.46C123.401 108.92 123.284 109.34 123.129 109.72C122.78 109.76 122.431 109.78 122.082 109.78C121.733 109.78 121.296 109.72 120.773 109.6L120.162 90.4001C119.25 90.3001 118.484 90.1501 117.864 89.9501C117.864 89.2101 117.931 88.4901 118.067 87.7901C119.192 87.4701 121.083 87.3101 123.74 87.3101ZM127.405 97.1501C126.145 97.1501 125.059 97.3801 124.147 97.8401C124.108 101.2 124.07 103.74 124.031 105.46C124.496 105.86 125.03 106.22 125.631 106.54C126.232 106.86 126.746 107.02 127.173 107.02C128.86 107.02 129.704 105.42 129.704 102.22C129.704 100.86 129.519 99.6801 129.151 98.6801C128.802 97.6601 128.22 97.1501 127.405 97.1501ZM139.429 109.96C137.78 109.96 136.5 109.61 135.589 108.91C134.696 108.21 134.25 107.03 134.25 105.37C134.25 103.79 134.784 102.5 135.85 101.5C136.471 100.92 137.334 100.58 138.439 100.48C139.545 100.38 141.067 100.33 143.007 100.33V99.8501C143.007 98.6301 142.813 97.7401 142.425 97.1801C142.056 96.6001 141.397 96.3101 140.447 96.3101C139.962 96.3101 139.525 96.4101 139.138 96.6101L138.439 99.2201L136.287 99.1601C135.802 98.4001 135.54 97.1901 135.501 95.5301C135.889 95.3301 136.801 95.0301 138.236 94.6301C139.671 94.2101 140.592 94.0001 140.999 94.0001C143.094 94.0001 144.616 94.4501 145.567 95.3501C146.517 96.2301 146.992 97.6401 146.992 99.5801C146.992 101.5 146.905 104.04 146.73 107.2C147.836 107.3 148.689 107.47 149.29 107.71C149.31 107.95 149.319 108.24 149.319 108.58L149.29 109.24C147.894 109.72 146.488 109.96 145.072 109.96C144.704 109.96 144.432 109.95 144.258 109.93C143.967 109.33 143.792 108.61 143.734 107.77H143.589C143.22 108.13 142.57 108.59 141.639 109.15C140.728 109.69 139.991 109.96 139.429 109.96ZM137.974 105.55C137.974 106.21 138.168 106.7 138.556 107.02C138.963 107.32 139.419 107.47 139.923 107.47C140.427 107.47 141.029 107.24 141.727 106.78C142.425 106.3 142.987 105.87 143.414 105.49L143.269 102.73C141.736 102.81 140.582 102.96 139.807 103.18C138.585 103.44 137.974 104.23 137.974 105.55ZM158.223 97.2401C158.184 97.1401 157.99 97.0901 157.641 97.0901C157.292 97.0901 156.691 97.3601 155.838 97.9001C155.76 101.82 155.712 104.76 155.692 106.72L157.961 107.02C157.961 107.88 157.738 108.74 157.292 109.6H150.049L149.787 107.95C150.989 107.49 151.862 107.19 152.405 107.05L152.085 97.3301C151.077 97.2501 150.233 97.1001 149.554 96.8801L149.758 94.7201C150.281 94.4801 152.172 94.3201 155.43 94.2401C155.605 94.4201 155.692 94.7701 155.692 95.2901C157.399 94.4301 158.475 94.0001 158.921 94.0001C159.387 94.0001 159.949 94.1201 160.609 94.3601C161.287 94.5801 161.801 94.8201 162.15 95.0801V95.5901C162.15 97.2301 161.957 98.7501 161.569 100.15C161.239 100.29 160.803 100.36 160.26 100.36C159.717 100.36 159.212 100.33 158.747 100.27C158.689 100.01 158.514 99.0001 158.223 97.2401ZM168.528 104.41L168.499 106.72L170.768 106.99C170.768 107.81 170.545 108.68 170.099 109.6H162.855L162.593 107.95C163.796 107.49 164.668 107.19 165.211 107.05L164.659 90.4001C163.747 90.3001 162.981 90.1501 162.36 89.9501C162.36 89.2101 162.428 88.4901 162.564 87.7901C163.708 87.4701 165.667 87.3101 168.44 87.3101C168.809 87.3101 169.042 87.3201 169.139 87.3401C169.139 88.3801 169.013 89.2901 168.76 90.0701C168.644 94.8701 168.586 98.4301 168.586 100.75L172.048 97.2101L170.244 96.9701C170.244 96.1501 170.467 95.2801 170.913 94.3601H178.157L178.419 96.0101C177.216 96.4701 176.344 96.7701 175.8 96.9101L172.6 100.21L176.673 106.72L178.942 106.99C178.942 107.81 178.719 108.68 178.273 109.6H174.55L170.244 102.64L168.528 104.41ZM201.447 107.08L201.33 100H193.708C193.67 103 193.65 105.24 193.65 106.72L195.658 106.99C195.658 107.81 195.435 108.68 194.988 109.6H187.919L187.658 107.95C188.744 107.49 189.558 107.2 190.101 107.08C190.101 107.02 190.014 101.73 189.839 91.2101L187.425 90.4301L187.658 88.6001H195.192C195.502 89.1401 195.687 89.9301 195.745 90.9701C194.756 91.1301 194.106 91.2301 193.796 91.2701C193.757 93.8701 193.738 95.8201 193.738 97.1201H201.272L201.185 91.2101L198.77 90.4301L199.003 88.6001H206.538C206.848 89.1401 207.032 89.9301 207.09 90.9701C206.101 91.1301 205.452 91.2301 205.141 91.2701L204.996 106.72L207.003 106.99C207.003 107.81 206.78 108.68 206.334 109.6H199.265L199.003 107.95C200.089 107.49 200.904 107.2 201.447 107.08ZM216.839 107.02C217.498 107.02 218.837 106.55 220.854 105.61C221.28 106.25 221.6 106.99 221.814 107.83C220.747 108.51 219.7 109.04 218.672 109.42C217.663 109.78 216.946 109.96 216.519 109.96C214.172 109.96 212.388 109.29 211.166 107.95C209.964 106.61 209.363 104.71 209.363 102.25C209.363 99.7701 209.964 97.7801 211.166 96.2801C212.369 94.7601 214.153 94.0001 216.519 94.0001C218.4 94.0001 219.835 94.6301 220.824 95.8901C221.814 97.1501 222.308 98.7901 222.308 100.81C222.308 101.23 222.075 101.71 221.61 102.25L213.232 102.1C213.271 103.7 213.561 104.92 214.104 105.76C214.648 106.6 215.559 107.02 216.839 107.02ZM216.257 96.4901C215.52 96.4901 214.832 96.6401 214.192 96.9401C213.746 97.9001 213.464 98.7901 213.348 99.6101C214.861 99.5501 216.577 99.5101 218.497 99.4901C218.4 97.4901 217.654 96.4901 216.257 96.4901ZM229.457 109.96C227.808 109.96 226.528 109.61 225.617 108.91C224.725 108.21 224.279 107.03 224.279 105.37C224.279 103.79 224.812 102.5 225.879 101.5C226.499 100.92 227.362 100.58 228.468 100.48C229.573 100.38 231.096 100.33 233.035 100.33V99.8501C233.035 98.6301 232.841 97.7401 232.453 97.1801C232.085 96.6001 231.425 96.3101 230.475 96.3101C229.99 96.3101 229.554 96.4101 229.166 96.6101L228.468 99.2201L226.315 99.1601C225.83 98.4001 225.568 97.1901 225.529 95.5301C225.917 95.3301 226.829 95.0301 228.264 94.6301C229.699 94.2101 230.62 94.0001 231.028 94.0001C233.122 94.0001 234.645 94.4501 235.595 95.3501C236.545 96.2301 237.02 97.6401 237.02 99.5801C237.02 101.5 236.933 104.04 236.759 107.2C237.864 107.3 238.717 107.47 239.319 107.71C239.338 107.95 239.348 108.24 239.348 108.58L239.319 109.24C237.922 109.72 236.516 109.96 235.1 109.96C234.732 109.96 234.46 109.95 234.286 109.93C233.995 109.33 233.82 108.61 233.762 107.77H233.617C233.248 108.13 232.599 108.59 231.668 109.15C230.756 109.69 230.019 109.96 229.457 109.96ZM228.002 105.55C228.002 106.21 228.196 106.7 228.584 107.02C228.991 107.32 229.447 107.47 229.951 107.47C230.456 107.47 231.057 107.24 231.755 106.78C232.453 106.3 233.016 105.87 233.442 105.49L233.297 102.73C231.765 102.81 230.611 102.96 229.835 103.18C228.613 103.44 228.002 104.23 228.002 105.55ZM245.4 87.3101C245.769 87.3101 246.002 87.3201 246.099 87.3401C246.099 88.3801 245.973 89.2901 245.721 90.0701C245.701 91.3101 245.672 93.0601 245.633 95.3201C245.556 100.28 245.497 104.08 245.459 106.72L247.728 106.99C247.728 107.81 247.505 108.68 247.059 109.6H239.815L239.553 107.95C240.756 107.49 241.628 107.19 242.171 107.05L241.619 90.4001C240.707 90.3001 239.941 90.1501 239.32 89.9501C239.32 89.2101 239.388 88.4901 239.524 87.7901C240.668 87.4701 242.627 87.3101 245.4 87.3101ZM251.769 109.96L251.129 109.93C251.013 109.71 250.858 109.3 250.664 108.7C250.47 108.1 250.363 107.65 250.344 107.35C250.247 105.37 250.14 101.94 250.024 97.0601H247.988L248.075 95.3501C248.521 95.0301 249.054 94.7401 249.675 94.4801L252.031 90.6401C252.788 90.7201 253.379 90.9301 253.806 91.2701L253.777 94.1201C254.999 94.1601 256.133 94.2801 257.18 94.4801C257.18 95.2801 256.938 96.1401 256.453 97.0601H253.748C253.67 101.26 253.622 104.41 253.602 106.51C254.378 106.59 255.435 106.82 256.773 107.2L256.744 108.76C256.414 108.98 255.677 109.24 254.533 109.54C253.408 109.82 252.487 109.96 251.769 109.96ZM264.123 87.3101L264.822 87.3401C264.822 88.3801 264.696 89.2901 264.443 90.0701C264.405 92.3501 264.385 94.0601 264.385 95.2001C265.006 94.9201 265.714 94.6501 266.509 94.3901C267.304 94.1301 267.799 94.0001 267.992 94.0001C269.971 94.0001 271.386 94.4601 272.24 95.3801C273.113 96.3001 273.549 97.7501 273.549 99.7301C273.549 99.9301 273.452 102.26 273.258 106.72L275.527 107.02C275.527 107.88 275.304 108.74 274.858 109.6H267.614L267.352 107.95C268.652 107.41 269.486 107.12 269.854 107.08C269.816 104.92 269.767 103.01 269.709 101.35C269.651 99.6701 269.496 98.5601 269.243 98.0201C268.991 97.4801 268.584 97.2101 268.022 97.2101C267.479 97.2101 266.848 97.2801 266.131 97.4201C265.433 97.5401 264.889 97.6901 264.502 97.8701L264.182 106.72L266.451 106.99C266.451 107.81 266.228 108.68 265.782 109.6H258.538L258.276 107.95C259.479 107.49 260.351 107.19 260.894 107.05L260.342 90.4001C259.43 90.3001 258.664 90.1501 258.043 89.9501C258.043 89.4501 258.111 88.7301 258.247 87.7901C259.391 87.4701 261.35 87.3101 264.123 87.3101Z" fill="white"/>
<path d="M193.136 59.7992C192.976 59.7201 192.814 59.6454 192.652 59.573C193.061 58.618 193.35 57.6308 193.506 56.6376C194.077 53.0244 192.987 49.1356 190.592 46.235C188.475 43.6708 185.558 42.2 182.589 42.2C181.367 42.2 180.376 43.2208 180.376 44.48C180.376 46.9946 178.39 49.0402 175.949 49.0402H144.961C142.52 49.0402 140.534 46.9946 140.534 44.48C140.534 43.2208 139.543 42.2 138.321 42.2C135.352 42.2 132.435 43.6708 130.318 46.235C127.923 49.1356 126.833 53.0244 127.404 56.6377C127.56 57.6305 127.85 58.618 128.259 59.573C128.096 59.6456 127.935 59.7201 127.774 59.7992C126.671 60.3428 126.205 61.7039 126.733 62.8399C127.261 63.9763 128.582 64.4568 129.685 63.9125C132.771 62.3916 136.458 62.6617 139.307 64.6179C144.086 67.8999 150.263 67.9005 155.043 64.6179C158.33 62.3599 162.579 62.3599 165.868 64.6179C170.647 67.9003 176.824 67.9003 181.604 64.6179C184.452 62.6615 188.139 62.3912 191.225 63.9125C192.328 64.4566 193.65 63.9761 194.177 62.8399C194.705 61.7039 194.239 60.3428 193.136 59.7992ZM189.137 55.9056C189.002 56.7582 188.701 57.6146 188.26 58.4331C185.091 58.1508 181.858 58.9618 179.148 60.8234C175.86 63.0812 171.611 63.0812 168.323 60.8234C163.543 57.541 157.367 57.541 152.587 60.8234C149.299 63.0812 145.05 63.0812 141.762 60.8234C139.052 58.9618 135.819 58.1508 132.65 58.4331C132.209 57.6146 131.908 56.758 131.773 55.9058C131.409 53.5954 132.125 51.0846 133.69 49.1894C134.506 48.2012 135.462 47.493 136.481 47.1048C137.578 50.8584 140.964 53.6002 144.961 53.6002H175.949C179.945 53.6002 183.332 50.8584 184.429 47.1048C185.448 47.493 186.404 48.2012 187.22 49.1894C188.785 51.0848 189.502 53.5954 189.137 55.9056Z" fill="#4CA9EE"/>
<path d="M193.136 68.9195C188.648 66.7071 183.288 67.1001 179.148 69.9439C175.86 72.2019 171.611 72.2019 168.323 69.9439C163.543 66.6615 157.367 66.6615 152.587 69.9439C149.299 72.2019 145.05 72.2019 141.762 69.9439C137.621 67.1003 132.262 66.7073 127.774 68.9195C126.671 69.4631 126.205 70.8245 126.733 71.9605C127.261 73.0965 128.582 73.5769 129.685 73.0331C132.771 71.5119 136.458 71.7821 139.307 73.7383C144.086 77.0203 150.263 77.0209 155.043 73.7383C158.33 71.4803 162.579 71.4803 165.868 73.7383C170.647 77.0207 176.824 77.0207 181.603 73.7383C184.452 71.7819 188.139 71.5115 191.225 73.0331C192.328 73.5769 193.649 73.0965 194.177 71.9605C194.704 70.8245 194.238 69.4631 193.136 68.9195Z" fill="#4CA9EE"/>
</g>
<defs>
<filter id="filter0_d_768_1949" x="11" y="22" width="298.908" height="128" filterUnits="userSpaceOnUse" color-interpolation-filters="sRGB">
<feFlood flood-opacity="0" result="BackgroundImageFix"/>
<feColorMatrix in="SourceAlpha" type="matrix" values="0 0 0 0 0 0 0 0 0 0 0 0 0 0 0 0 0 0 127 0" result="hardAlpha"/>
<feOffset dy="4"/>
<feGaussianBlur stdDeviation="2"/>
<feComposite in2="hardAlpha" operator="out"/>
<feColorMatrix type="matrix" values="0 0 0 0 0 0 0 0 0 0 0 0 0 0 0 0 0 0 0.25 0"/>
<feBlend mode="normal" in2="BackgroundImageFix" result="effect1_dropShadow_768_1949"/>
<feBlend mode="normal" in="SourceGraphic" in2="effect1_dropShadow_768_1949" result="shape"/>
</filter>
</defs>
</svg>
