<svg width="302" height="94" viewBox="0 0 302 94" fill="none" xmlns="http://www.w3.org/2000/svg">
<path d="M14.517 43.0887C18.2041 43.0887 20.0476 41.5273 20.0476 38.4045C20.0476 37.0796 19.3483 35.9598 17.9498 35.0451C16.9327 34.3511 15.5342 33.6098 13.7542 32.8212C12.0061 32.0011 10.687 31.3545 9.79704 30.8813C8.93886 30.4082 7.93764 29.7457 6.7934 28.8941C4.60026 27.2222 3.50369 25.1404 3.50369 22.6484C3.50369 20.1565 4.47312 18.0904 6.41198 16.4501C8.38262 14.7783 11.0366 13.9424 14.374 13.9424C17.7114 13.9424 21.2713 14.9991 25.0536 17.1125C25.0536 19.3837 24.8153 21.8441 24.3385 24.4937C23.3214 24.8092 21.8116 24.9669 19.8092 24.9669L18.4266 19.3363C17.2505 18.9894 15.9632 18.8159 14.5647 18.8159C13.1662 18.8159 12.0855 19.1155 11.3227 19.7149C10.5599 20.3142 10.1785 21.2132 10.1785 22.4118C10.1785 23.579 10.7665 24.6357 11.9425 25.582C13.1503 26.4967 14.5965 27.3484 16.2811 28.137C17.9657 28.8941 19.1258 29.4303 19.7615 29.7457C20.3972 30.0612 21.2077 30.5343 22.193 31.1652C23.1783 31.7961 23.9253 32.3954 24.4338 32.9632C25.737 34.4773 26.3886 36.1649 26.3886 38.0259C26.3886 41.3065 25.292 43.83 23.0989 45.5964C20.9058 47.3629 18.0451 48.2461 14.517 48.2461C12.6418 48.2461 10.5758 47.9306 8.31906 47.2998C6.09414 46.6374 4.20295 45.8014 2.64551 44.7921C2.70908 42.8679 2.96335 40.2655 3.40834 36.985C4.67972 36.7327 6.20538 36.6065 7.98532 36.6065L8.98653 42.2843C10.7347 42.8206 12.5782 43.0887 14.517 43.0887ZM35.8877 59.0813C34.966 59.0813 33.9489 58.9236 32.8364 58.6082C31.724 58.2927 30.5321 57.8196 29.2607 57.1887C29.4514 53.5612 29.6263 51.4004 29.7852 50.7065C30.993 50.391 31.9783 50.2333 32.7411 50.2333C33.5357 50.2333 34.0442 50.2491 34.2667 50.2806L35.7924 55.0122L36.2215 54.9649C36.9525 54.8702 37.6995 54.0028 38.4623 52.3625C39.2251 50.7223 39.7813 49.1451 40.131 47.631H38.1285L31.0725 28.137L27.3537 27.7112C27.3537 26.4179 27.7192 25.0457 28.4502 23.5947H40.3217L40.7508 26.1971C39.4476 26.7964 38.351 27.2065 37.4611 27.4273L41.0845 38.641L41.5136 40.6756H42.5625L46.615 27.4273C45.5344 27.238 44.1994 26.828 42.6102 26.1971L43.0393 23.5947H54.9108C55.6419 25.0457 56.0074 26.4179 56.0074 27.7112C54.7678 27.9004 53.5282 28.0266 52.2886 28.0897C49.428 36.4172 47.1871 42.8521 45.5661 47.3944C43.9769 51.9367 42.5307 55.0122 41.2275 56.6209C39.9244 58.2612 38.1444 59.0813 35.8877 59.0813ZM90.9949 33.9568C90.9313 31.7488 90.6611 30.2189 90.1844 29.3672C89.7394 28.5155 88.6905 28.0897 87.0377 28.0897C85.4167 28.0897 83.9069 28.4367 82.5084 29.1306C82.5084 33.1682 82.3018 37.8209 81.8886 43.0887L85.6551 43.5145C85.6551 44.8078 85.2896 46.18 84.5585 47.631H72.687L72.2579 45.0286C73.9107 44.4293 75.3569 43.9561 76.5965 43.6092L76.2151 33.7676C76.1515 31.7172 75.8972 30.2662 75.4522 29.4145C75.039 28.5313 74.2285 28.0897 73.0207 28.0897C72.385 28.0897 71.4633 28.2001 70.2554 28.4209C69.0476 28.6417 68.1259 28.8783 67.4902 29.1306C67.4902 29.2253 67.3472 33.878 67.0611 43.0887L70.7799 43.5145C70.7799 44.9025 70.4144 46.2746 69.6833 47.631H57.8118L57.3827 45.0286C59.258 44.3031 60.6883 43.83 61.6736 43.6092L61.0538 28.3263C59.7506 28.2001 58.4951 27.9635 57.2873 27.6165L57.5257 24.2098C58.0661 24.0521 59.2262 23.8629 61.0061 23.642C62.7861 23.4212 64.1369 23.3108 65.0587 23.3108C65.1858 23.4055 65.4242 23.7051 65.7738 24.2098C66.1235 24.683 66.3618 25.0615 66.489 25.3454C67.5697 24.8092 68.8728 24.2887 70.3985 23.784C71.9559 23.2793 72.9095 23.0269 73.2591 23.0269C76.6283 23.0269 79.0916 23.8944 80.649 25.6293C81.8568 24.9984 83.3189 24.4149 85.0353 23.8786C86.7516 23.3108 87.8164 23.0269 88.2296 23.0269C91.2492 23.0269 93.5059 23.7367 94.9997 25.1561C96.4936 26.5756 97.2406 28.9414 97.2406 32.2535C97.2406 34.083 97.0975 37.6947 96.8115 43.0887L100.53 43.5145C100.53 44.9025 100.165 46.2746 99.4337 47.631H87.6098L87.1807 45.0286C88.6746 44.4293 90.0414 43.9561 91.281 43.6092C91.2492 42.8837 91.2174 41.8585 91.1856 40.5337C91.122 38.3572 91.0585 36.1649 90.9949 33.9568ZM116.871 48.1988C115.027 48.1988 113.088 47.5994 111.054 46.4008C110.991 49.7444 110.959 52.2679 110.959 53.9712L114.678 54.3971C114.678 55.785 114.312 57.1572 113.581 58.5135H101.709L101.28 55.9112C103.315 55.1541 104.745 54.681 105.571 54.4917L104.665 28.2316C103.172 28.1055 101.916 27.8689 100.899 27.5219C100.899 26.3548 101.01 25.2192 101.233 24.1152C102.568 23.8313 105.524 23.579 110.101 23.3582C110.355 23.7682 110.641 24.4622 110.959 25.44C114.264 23.8313 116.442 23.0269 117.491 23.0269C120.637 23.0269 122.973 24.131 124.499 26.339C126.025 28.5155 126.788 31.4491 126.788 35.1397C126.788 38.8303 125.929 41.9374 124.213 44.4608C122.528 46.9528 120.081 48.1988 116.871 48.1988ZM111.34 29.6038L111.149 41.5746C111.881 42.237 112.739 42.8206 113.724 43.3253C114.741 43.7984 115.599 44.035 116.299 44.035C119.096 44.035 120.494 41.3696 120.494 36.0387C120.494 34.0514 120.288 32.4585 119.874 31.2598C119.493 30.0612 119.032 29.2253 118.492 28.7521C117.983 28.2474 117.379 27.9951 116.68 27.9951C115.281 27.9951 113.502 28.5313 111.34 29.6038ZM133.225 48.1988L132.176 48.1514C131.985 47.8045 131.731 47.1578 131.413 46.2115C131.095 45.2652 130.92 44.5555 130.888 44.0823C130.729 40.9595 130.555 35.5498 130.364 27.8531H127.027L127.17 25.1561C127.901 24.6514 128.775 24.1941 129.792 23.784L133.654 17.7276C134.893 17.8538 135.863 18.185 136.562 18.7212L136.514 23.2162C138.517 23.2793 140.376 23.4686 142.092 23.784C142.092 25.0457 141.695 26.4021 140.9 27.8531H136.467C136.339 34.4773 136.26 39.4454 136.228 42.7575C137.5 42.8837 139.232 43.2464 141.425 43.8457L141.377 46.3061C140.837 46.6531 139.629 47.0632 137.754 47.5363C135.91 47.978 134.401 48.1988 133.225 48.1988ZM156.618 26.8122C155.473 26.8122 154.17 27.0961 152.708 27.6639C152.295 28.2947 151.898 29.4145 151.516 31.0233C151.167 32.6004 150.992 34.1934 150.992 35.8021C150.992 38.7672 151.437 40.8806 152.327 42.1424C153.217 43.3726 154.647 43.9877 156.618 43.9877C158.62 43.9877 160.066 43.3726 160.956 42.1424C161.846 40.8806 162.291 38.7357 162.291 35.7075C162.291 32.6478 161.83 30.4082 160.909 28.9887C160.019 27.5377 158.588 26.8122 156.618 26.8122ZM156.618 23.0269C160.336 23.0269 163.324 24.1625 165.581 26.4337C167.869 28.6733 169.014 31.8118 169.014 35.8494C169.014 39.8555 167.885 42.9152 165.629 45.0286C163.372 47.1421 160.368 48.1988 156.618 48.1988C152.867 48.1988 149.863 47.1421 147.607 45.0286C145.382 42.9152 144.269 39.8555 144.269 35.8494C144.269 31.8118 145.398 28.6733 147.654 26.4337C149.911 24.1625 152.899 23.0269 156.618 23.0269ZM203.25 33.9568C203.186 31.7488 202.916 30.2189 202.439 29.3672C201.994 28.5155 200.945 28.0897 199.293 28.0897C197.672 28.0897 196.162 28.4367 194.763 29.1306C194.763 33.1682 194.557 37.8209 194.143 43.0887L197.91 43.5145C197.91 44.8078 197.544 46.18 196.813 47.631H184.942L184.513 45.0286C186.166 44.4293 187.612 43.9561 188.851 43.6092L188.47 33.7676C188.406 31.7172 188.152 30.2662 187.707 29.4145C187.294 28.5313 186.483 28.0897 185.276 28.0897C184.64 28.0897 183.718 28.2001 182.51 28.4209C181.303 28.6417 180.381 28.8783 179.745 29.1306C179.745 29.2253 179.602 33.878 179.316 43.0887L183.035 43.5145C183.035 44.9025 182.669 46.2746 181.938 47.631H170.067L169.638 45.0286C171.513 44.3031 172.943 43.83 173.928 43.6092L173.309 28.3263C172.006 28.2001 170.75 27.9635 169.542 27.6165L169.781 24.2098C170.321 24.0521 171.481 23.8629 173.261 23.642C175.041 23.4212 176.392 23.3108 177.314 23.3108C177.441 23.4055 177.679 23.7051 178.029 24.2098C178.378 24.683 178.617 25.0615 178.744 25.3454C179.825 24.8092 181.128 24.2887 182.653 23.784C184.211 23.2793 185.164 23.0269 185.514 23.0269C188.883 23.0269 191.346 23.8944 192.904 25.6293C194.112 24.9984 195.574 24.4149 197.29 23.8786C199.007 23.3108 200.071 23.0269 200.485 23.0269C203.504 23.0269 205.761 23.7367 207.255 25.1561C208.748 26.5756 209.495 28.9414 209.495 32.2535C209.495 34.083 209.352 37.6947 209.066 43.0887L212.785 43.5145C212.785 44.9025 212.42 46.2746 211.689 47.631H199.865L199.436 45.0286C200.929 44.4293 202.296 43.9561 203.536 43.6092C203.504 42.8837 203.472 41.8585 203.44 40.5337C203.377 38.3572 203.313 36.1649 203.25 33.9568Z" fill="white"/>
<path d="M162.125 67.3063C162.125 65.0721 160.933 63.9548 158.549 63.9548C158.311 63.9548 158.006 63.981 157.635 64.0337L156.722 68.8441C154.868 68.8441 153.636 68.7652 153.027 68.6075C152.497 67.1353 152.232 65.5452 152.232 63.8365V63.4816C152.841 62.7457 153.835 62.0884 155.212 61.5102C156.616 60.9055 157.834 60.6033 158.867 60.6033C161.33 60.6033 163.357 61.208 164.946 62.417C166.535 63.5999 167.33 65.0588 167.33 66.7937C167.33 69.0806 166.177 70.9471 163.873 72.3927C165.144 72.787 166.217 73.5624 167.091 74.7191C167.965 75.8493 168.402 77.282 168.402 79.0169C168.402 80.7518 167.833 82.329 166.694 83.7484C165.555 85.1941 164.231 86.2457 162.721 86.9028C161.211 87.5863 159.569 87.928 157.794 87.928C156.046 87.928 154.007 87.5337 151.676 86.7451C151.729 85.4045 152.02 84.3531 152.55 83.5907L153.742 83.8273C155.013 84.1427 156.046 84.3004 156.841 84.3004C157.662 84.3004 158.284 84.261 158.708 84.1821C159.132 84.1033 159.728 83.9323 160.496 83.6696C161.264 83.4068 161.9 82.9204 162.403 82.2107C162.906 81.5009 163.158 80.5546 163.158 79.3717C163.158 78.1889 162.747 77.2031 161.926 76.4145C161.105 75.5998 160.046 75.1922 158.748 75.1922C158.668 75.1922 157.755 75.2711 156.006 75.4288C155.742 74.3248 155.609 73.6018 155.609 73.2602C155.609 72.9185 155.636 72.4848 155.689 71.959L158.033 71.6436C159.172 71.4858 160.138 71.0259 160.933 70.2635C161.728 69.4749 162.125 68.4892 162.125 67.3063ZM186.306 53.8608C186.465 54.439 186.545 55.0437 186.545 55.6746C186.545 56.2793 186.479 56.7654 186.346 57.1335C180.863 57.554 177.685 60.5377 176.811 66.084C178.638 65.1115 180.294 64.6251 181.777 64.6251C184.505 64.6251 186.677 65.3481 188.293 66.7937C189.908 68.2132 190.716 70.4345 190.716 73.4573C190.716 76.4801 189.882 78.7935 188.213 80.3969C186.545 82.0003 184.346 82.8021 181.618 82.8021C179.737 82.8021 178.108 82.4078 176.731 81.6192C175.354 80.8306 174.294 79.7528 173.553 78.386C172.096 75.7837 171.368 72.5766 171.368 68.7652C171.368 66.3206 171.818 64.1258 172.718 62.1805C173.646 60.209 174.851 58.6451 176.334 57.4884C179.353 55.0699 182.678 53.8608 186.306 53.8608ZM176.771 70.6578L176.89 72.9447V73.0236C177.049 74.8373 177.526 76.3357 178.32 77.5186C179.115 78.6753 180.148 79.2535 181.419 79.2535C184.121 79.2535 185.472 77.1243 185.472 72.8659C185.472 71.2625 185.154 70.0926 184.518 69.3566C183.909 68.6207 182.903 68.2526 181.499 68.2526C180.122 68.2526 178.546 68.8308 176.771 69.9875V70.6578ZM202.58 60.5639C205.864 60.5639 208.261 61.5102 209.771 63.4028C211.281 65.2692 212.036 67.9372 212.036 71.407C212.036 74.8506 211.281 77.6107 209.771 79.6872C208.261 81.7637 205.851 82.8021 202.54 82.8021C199.229 82.8021 196.859 81.882 195.428 80.042C193.998 78.1756 193.283 75.3632 193.283 71.6041C193.283 64.2441 196.382 60.5639 202.58 60.5639ZM200.553 78.7803C201.11 79.0696 201.785 79.214 202.58 79.214C203.374 79.214 204.037 79.0696 204.566 78.7803C205.123 78.491 205.533 78.1362 205.798 77.7157C206.089 77.2952 206.314 76.7038 206.473 75.9414C206.685 74.9424 206.791 73.4835 206.791 71.5647C206.791 66.6228 205.388 64.1519 202.58 64.1519C201.812 64.1519 201.149 64.3097 200.593 64.6251C200.037 64.9405 199.613 65.3087 199.322 65.7291C199.031 66.1496 198.805 66.7149 198.646 67.4246C198.435 68.3709 198.329 69.5011 198.329 70.8155C198.329 72.1035 198.342 73.0763 198.368 73.7333C198.421 74.3642 198.514 75.0739 198.646 75.8625C198.805 76.6249 199.031 77.2293 199.322 77.6763C199.613 78.0968 200.024 78.4649 200.553 78.7803Z" fill="#4CA9EE"/>
<path opacity="0.5" fill-rule="evenodd" clip-rule="evenodd" d="M221.668 37.321C221.668 53.185 233.636 62.3361 243.826 70.1274C244.885 70.9371 245.925 71.7323 246.93 72.519C250.698 75.4664 254.327 78.2416 257.955 78.2416V24.2254C241.627 7.38905 221.668 19.8086 221.668 37.321Z" fill="#4CA9EE"/>
<path d="M265.212 31.423L257.955 24.2254V78.2416C261.584 78.2416 265.212 75.4664 268.98 72.519C269.986 71.7323 271.026 70.9371 272.084 70.1274C282.274 62.3361 294.243 53.185 294.243 37.321C294.243 21.2509 277.436 9.46922 262.05 20.6475L269.061 27.6026C270.124 28.6572 270.124 30.3673 269.062 31.4223C267.999 32.4772 266.275 32.4775 265.212 31.423Z" fill="#4CA9EE"/>
</svg>
