<svg width="25" height="24" viewBox="0 0 25 24" fill="none" xmlns="http://www.w3.org/2000/svg">
<path fill-rule="evenodd" clip-rule="evenodd" d="M1.99988 17.25C1.99988 17.4489 2.07889 17.6396 2.21955 17.7803C2.3602 17.921 2.55096 18 2.74988 18H20.4394L15.7189 22.719C15.578 22.8598 15.4989 23.0508 15.4989 23.25C15.4989 23.4491 15.578 23.6401 15.7189 23.781C15.8597 23.9218 16.0507 24.0009 16.2499 24.0009C16.449 24.0009 16.64 23.9218 16.7809 23.781L22.7809 17.781C22.8507 17.7113 22.9061 17.6285 22.9439 17.5374C22.9818 17.4463 23.0012 17.3486 23.0012 17.25C23.0012 17.1513 22.9818 17.0536 22.9439 16.9625C22.9061 16.8714 22.8507 16.7886 22.7809 16.719L16.7809 10.719C16.64 10.5781 16.449 10.499 16.2499 10.499C16.0507 10.499 15.8597 10.5781 15.7189 10.719C15.578 10.8598 15.4989 11.0508 15.4989 11.25C15.4989 11.4491 15.578 11.6401 15.7189 11.781L20.4394 16.5H2.74988C2.55096 16.5 2.3602 16.579 2.21955 16.7196C2.07889 16.8603 1.99988 17.0511 1.99988 17.25ZM22.9999 6.74997C22.9999 6.94888 22.9209 7.13965 22.7802 7.2803C22.6396 7.42095 22.4488 7.49997 22.2499 7.49997H4.56038L9.28088 12.219C9.35061 12.2887 9.40592 12.3715 9.44366 12.4626C9.4814 12.5537 9.50082 12.6514 9.50082 12.75C9.50082 12.8486 9.4814 12.9462 9.44366 13.0373C9.40592 13.1285 9.35061 13.2112 9.28088 13.281C9.21114 13.3507 9.12836 13.406 9.03725 13.4438C8.94614 13.4815 8.84849 13.5009 8.74988 13.5009C8.65126 13.5009 8.55361 13.4815 8.4625 13.4438C8.37139 13.406 8.28861 13.3507 8.21888 13.281L2.21888 7.28097C2.14903 7.2113 2.09362 7.12854 2.05581 7.03742C2.018 6.9463 1.99854 6.84862 1.99854 6.74997C1.99854 6.65132 2.018 6.55364 2.05581 6.46252C2.09362 6.3714 2.14903 6.28864 2.21888 6.21897L8.21888 0.218971C8.35971 0.0781409 8.55071 -0.000976562 8.74988 -0.000976562C8.94904 -0.000976563 9.14005 0.0781409 9.28088 0.218971C9.42171 0.359801 9.50082 0.550807 9.50082 0.749971C9.50082 0.949135 9.42171 1.14014 9.28088 1.28097L4.56038 5.99997H22.2499C22.4488 5.99997 22.6396 6.07899 22.7802 6.21964C22.9209 6.36029 22.9999 6.55106 22.9999 6.74997Z" fill="white"/>
</svg>
