<svg width="36" height="36" viewBox="0 0 36 36" fill="none" xmlns="http://www.w3.org/2000/svg">
<path d="M18 4.99604C15.7837 3.09029 12.5708 2.80679 9.64575 3.09929C6.23925 3.44354 2.80125 4.61129 0.65925 5.58554C0.46271 5.67493 0.296044 5.81898 0.179147 6.00051C0.0622501 6.18204 5.97857e-05 6.39338 0 6.60929L0 31.3593C5.21145e-05 31.5475 0.0473336 31.7327 0.137513 31.898C0.227693 32.0632 0.357889 32.2031 0.516174 32.305C0.67446 32.4069 0.855775 32.4674 1.04351 32.481C1.23125 32.4947 1.41941 32.461 1.59075 32.383C3.57525 31.483 6.7725 30.4008 9.87075 30.088C13.041 29.7685 15.6983 30.2838 17.1225 32.0613C17.2279 32.1927 17.3615 32.2987 17.5134 32.3716C17.6652 32.4445 17.8315 32.4823 18 32.4823C18.1685 32.4823 18.3348 32.4445 18.4866 32.3716C18.6385 32.2987 18.7721 32.1927 18.8775 32.0613C20.3018 30.2838 22.959 29.7685 26.127 30.088C29.2275 30.4008 32.427 31.483 34.4093 32.383C34.5806 32.461 34.7688 32.4947 34.9565 32.481C35.1442 32.4674 35.3255 32.4069 35.4838 32.305C35.6421 32.2031 35.7723 32.0632 35.8625 31.898C35.9527 31.7327 35.9999 31.5475 36 31.3593V6.60929C35.9999 6.39338 35.9377 6.18204 35.8209 6.00051C35.704 5.81898 35.5373 5.67493 35.3407 5.58554C33.1987 4.61129 29.7608 3.44354 26.3543 3.09929C23.4293 2.80454 20.2163 3.09029 18 4.99604Z" fill="white"/>
</svg>
