<svg width="36" height="36" viewBox="0 0 36 36" fill="none" xmlns="http://www.w3.org/2000/svg">
<g clip-path="url(#clip0_796_1982)">
<path d="M9 1.125C9 0.826631 8.88147 0.540483 8.67049 0.329505C8.45952 0.118526 8.17337 0 7.875 0C7.57663 0 7.29048 0.118526 7.07951 0.329505C6.86853 0.540483 6.75 0.826631 6.75 1.125V2.25H4.5C3.30653 2.25 2.16193 2.72411 1.31802 3.56802C0.474106 4.41193 0 5.55653 0 6.75L0 31.5C0 32.6935 0.474106 33.8381 1.31802 34.682C2.16193 35.5259 3.30653 36 4.5 36H31.5C32.6935 36 33.8381 35.5259 34.682 34.682C35.5259 33.8381 36 32.6935 36 31.5V6.75C36 5.55653 35.5259 4.41193 34.682 3.56802C33.8381 2.72411 32.6935 2.25 31.5 2.25H29.25V1.125C29.25 0.826631 29.1315 0.540483 28.9205 0.329505C28.7095 0.118526 28.4234 0 28.125 0C27.8266 0 27.5405 0.118526 27.3295 0.329505C27.1185 0.540483 27 0.826631 27 1.125V2.25H9V1.125ZM5.72625 6.75H30.2737C30.9487 6.75 31.5 7.254 31.5 7.875V10.125C31.5 10.746 30.951 11.25 30.2715 11.25H5.72625C5.05125 11.25 4.5 10.746 4.5 10.125V7.875C4.5 7.254 5.049 6.75 5.72625 6.75Z" fill="white"/>
</g>
<defs>
<clipPath id="clip0_796_1982">
<rect width="36" height="36" fill="white"/>
</clipPath>
</defs>
</svg>
