<svg width="24" height="24" viewBox="0 0 24 24" fill="none" xmlns="http://www.w3.org/2000/svg">
<path fill-rule="evenodd" clip-rule="evenodd" d="M19 3C19.7956 3 20.5587 3.31607 21.1213 3.87868C21.6839 4.44129 22 5.20435 22 6V16C22 16.7956 21.6839 17.5587 21.1213 18.1213C20.5587 18.6839 19.7956 19 19 19H7.333L4 21.5C3.176 22.118 2 21.53 2 20.5V6C2 5.20435 2.31607 4.44129 2.87868 3.87868C3.44129 3.31607 4.20435 3 5 3H19ZM11 12H8C7.73478 12 7.48043 12.1054 7.29289 12.2929C7.10536 12.4804 7 12.7348 7 13C7 13.2652 7.10536 13.5196 7.29289 13.7071C7.48043 13.8946 7.73478 14 8 14H11C11.2652 14 11.5196 13.8946 11.7071 13.7071C11.8946 13.5196 12 13.2652 12 13C12 12.7348 11.8946 12.4804 11.7071 12.2929C11.5196 12.1054 11.2652 12 11 12ZM16 8H8C7.74512 8.00028 7.49997 8.09788 7.31463 8.27285C7.1293 8.44782 7.01777 8.68695 7.00283 8.94139C6.98789 9.19584 7.07067 9.44638 7.23426 9.64183C7.39786 9.83729 7.6299 9.9629 7.883 9.993L8 10H16C16.2549 9.99972 16.5 9.90212 16.6854 9.72715C16.8707 9.55218 16.9822 9.31305 16.9972 9.05861C17.0121 8.80416 16.9293 8.55362 16.7657 8.35817C16.6021 8.16271 16.3701 8.0371 16.117 8.007L16 8Z" fill="white"/>
</svg>
