<svg width="140" height="140" viewBox="0 0 140 140" fill="none" xmlns="http://www.w3.org/2000/svg">
<path d="M70 73.3054C84.5031 73.3054 96.25 61.4716 96.25 46.8612C96.25 32.2504 84.5031 20.4166 70 20.4166C55.4969 20.4166 43.75 32.2504 43.75 46.8612C43.75 61.4716 55.4969 73.3054 70 73.3054Z" fill="white"/>
<path fill-rule="evenodd" clip-rule="evenodd" d="M45.6033 87.3178C45.064 89.1372 45.0278 91.3133 45.8351 93.9124C46.109 93.8864 46.3864 93.8733 46.6667 93.8733C51.4993 93.8733 55.4167 97.8198 55.4167 102.688C55.4167 107.556 51.4993 111.503 46.6667 111.503C41.834 111.503 37.9167 107.556 37.9167 102.688C37.9167 100.233 38.9127 98.0129 40.5198 96.4146C39.177 92.5774 39.0335 88.9572 40.0103 85.6602C40.0318 85.5873 40.054 85.5147 40.0767 85.4424C27.8312 89.8235 17.5 96.8034 17.5 106.36V125.416H122.5V106.36C122.5 96.8891 112.354 89.9489 100.253 85.5611C100.848 87.2536 101.186 89.0555 101.25 90.9566H101.912C102.584 90.9566 103.235 91.1882 103.755 91.6129L109.76 96.5099C110.439 97.0638 110.833 97.8939 110.833 98.7704V111.503C110.833 113.114 109.528 114.419 107.917 114.419H101.912V108.586H105V100.155L100.873 96.7899H100.638C100.611 96.9046 100.584 97.0198 100.555 97.1353L99.1626 96.7899H94.5435L90.4167 100.155V108.586H93.5048V114.419H87.5C85.8891 114.419 84.5833 113.114 84.5833 111.503V98.7704C84.5833 97.8939 84.9774 97.0638 85.6567 96.5099L91.6615 91.6129C92.1821 91.1882 92.8331 90.9566 93.5048 90.9566H95.4118C95.3394 89.4621 95.0259 88.1254 94.5332 86.9287C93.9432 85.496 93.063 84.1829 91.9164 82.9961C91.5346 82.8976 91.1525 82.8013 90.7708 82.7077C89.3043 82.3472 87.8001 83.0845 87.1342 84.4489H75.2806C72.6886 84.4495 71.3691 84.4495 70.0726 84.4492C68.7278 84.4492 67.4077 84.4492 64.7188 84.4498L52.8658 84.4489C52.1999 83.0845 50.6957 82.3472 49.2292 82.7077C48.9026 82.7879 48.5753 82.8699 48.2487 82.9539C46.9563 84.2847 46.069 85.7463 45.6033 87.3178ZM49.5833 102.688C49.5833 104.375 48.237 105.669 46.6667 105.669C45.0963 105.669 43.75 104.375 43.75 102.688C43.75 101.001 45.0963 99.7066 46.6667 99.7066C48.237 99.7066 49.5833 101.001 49.5833 102.688Z" fill="white"/>
</svg>
