<svg width="48" height="48" viewBox="0 0 48 48" fill="none" xmlns="http://www.w3.org/2000/svg">
<path d="M41.208 12.48H36.4809V7.46304C36.4809 3.87648 33.6509 0.959999 30.0547 0.959999H17.9481C14.3501 0.959999 11.5209 3.87648 11.5209 7.46304V12.48H6.79294C3.57118 12.48 0.960938 14.9674 0.960938 18.1795V40.2662C0.960938 43.4774 3.57118 46.08 6.79294 46.08H41.208C44.4288 46.08 47.0409 43.4774 47.0409 40.2653V18.1795C47.0409 14.9674 44.4288 12.48 41.208 12.48ZM15.3609 7.46304C15.3609 6.12 16.6013 4.8 17.9481 4.8H30.0547C31.3977 4.8 32.6409 6.12 32.6409 7.46304V12.48H15.3609V7.46304ZM34.5609 33.6H27.8409V40.32H20.1609V33.6H13.4409V25.92H20.1609V19.2H27.8409V25.92H34.5609V33.6Z" fill="white"/>
</svg>
