<svg width="48" height="48" viewBox="0 0 48 48" fill="none" xmlns="http://www.w3.org/2000/svg">
<path d="M24 18C22.4087 18 20.8826 18.6321 19.7574 19.7574C18.6321 20.8826 18 22.4087 18 24C18 25.5913 18.6321 27.1174 19.7574 28.2426C20.8826 29.3679 22.4087 30 24 30C25.5913 30 27.1174 29.3679 28.2426 28.2426C29.3679 27.1174 30 25.5913 30 24C30 22.4087 29.3679 20.8826 28.2426 19.7574C27.1174 18.6321 25.5913 18 24 18ZM24 34C21.3478 34 18.8043 32.9464 16.9289 31.0711C15.0536 29.1957 14 26.6522 14 24C14 21.3478 15.0536 18.8043 16.9289 16.9289C18.8043 15.0536 21.3478 14 24 14C26.6522 14 29.1957 15.0536 31.0711 16.9289C32.9464 18.8043 34 21.3478 34 24C34 26.6522 32.9464 29.1957 31.0711 31.0711C29.1957 32.9464 26.6522 34 24 34ZM24 9C14 9 5.46 15.22 2 24C5.46 32.78 14 39 24 39C34 39 42.54 32.78 46 24C42.54 15.22 34 9 24 9Z" fill="white"/>
</svg>
