<svg width="50" height="50" viewBox="0 0 50 50" fill="none" xmlns="http://www.w3.org/2000/svg">
<path d="M24.7344 11.6564L32.2969 17.782C33.5547 18.7977 33.7969 20.626 32.8438 21.9308C31.8359 23.3216 29.875 23.5951 28.5234 22.5403L20.7656 16.5084C20.2188 16.0865 19.4375 16.1803 19.0078 16.7272C18.5781 17.2741 18.6797 18.0555 19.2266 18.4852L20.8594 19.7509L10 29.7519V15.0005H10.0547L10.3594 14.8051L16.0312 11.172C17.2266 10.4063 18.625 10 20.0469 10C21.75 10 23.4062 10.586 24.7344 11.6564ZM22.9531 21.3761L26.9922 24.517C29.4531 26.4391 33.0234 25.939 34.8672 23.4075C36.6016 21.0245 36.1641 17.6961 33.875 15.8443L27.375 10.586C28.2812 10.2031 29.2578 10.0078 30.25 10.0078C31.7188 10 33.1484 10.4375 34.375 11.2501L40 15.0005V32.5022H37.7969L30.6562 39.0184C29.125 40.417 26.7578 40.3076 25.3594 38.7762C24.9297 38.2996 24.6406 37.7449 24.4922 37.1667L23.1641 38.3855C21.6406 39.7841 19.2656 39.6825 17.8672 38.159C17.5156 37.7761 17.2578 37.3308 17.0938 36.8698C15.5781 37.8855 13.5156 37.6745 12.2422 36.2838C10.8438 34.7602 10.9453 32.385 12.4688 30.9864L22.9531 21.3761ZM48.75 15.0005C49.4375 15.0005 50 15.563 50 16.2506V32.5022C50 33.8851 48.8828 35.0024 47.5 35.0024H45C43.6172 35.0024 42.5 33.8851 42.5 32.5022V15.0005H48.75ZM46.25 30.0019C45.9185 30.0019 45.6005 30.1336 45.3661 30.3681C45.1317 30.6025 45 30.9205 45 31.252C45 31.5836 45.1317 31.9016 45.3661 32.136C45.6005 32.3705 45.9185 32.5022 46.25 32.5022C46.5815 32.5022 46.8995 32.3705 47.1339 32.136C47.3683 31.9016 47.5 31.5836 47.5 31.252C47.5 30.9205 47.3683 30.6025 47.1339 30.3681C46.8995 30.1336 46.5815 30.0019 46.25 30.0019ZM7.5 15.0005V32.5022C7.5 33.8851 6.38281 35.0024 5 35.0024H2.5C1.11719 35.0024 0 33.8851 0 32.5022V16.2506C0 15.563 0.5625 15.0005 1.25 15.0005H7.5ZM5 31.252C5 30.9205 4.86831 30.6025 4.63388 30.3681C4.39946 30.1336 4.08152 30.0019 3.75 30.0019C3.41848 30.0019 3.10054 30.1336 2.86612 30.3681C2.63169 30.6025 2.5 30.9205 2.5 31.252C2.5 31.5836 2.63169 31.9016 2.86612 32.136C3.10054 32.3705 3.41848 32.5022 3.75 32.5022C4.08152 32.5022 4.39946 32.3705 4.63388 32.136C4.86831 31.9016 5 31.5836 5 31.252Z" fill="white"/>
</svg>
