<svg width="50" height="50" viewBox="0 0 50 50" fill="none" xmlns="http://www.w3.org/2000/svg">
<path d="M42.6777 7.32233C40.3562 5.00086 37.6002 3.15938 34.5671 1.90301C31.5339 0.646643 28.283 -7.43589e-07 25 0C21.7169 7.4359e-07 18.466 0.646646 15.4329 1.90301C12.3998 3.15938 9.64379 5.00087 7.32233 7.32234L25 25L42.6777 7.32233Z" fill="white"/>
<path d="M42.6777 42.6777C44.9991 40.3562 46.8406 37.6002 48.097 34.5671C49.3534 31.5339 50 28.283 50 25C50 21.7169 49.3534 18.466 48.097 15.4329C46.8406 12.3998 44.9991 9.64379 42.6777 7.32232L25 25L42.6777 42.6777Z" fill="#EAEAEA"/>
<path d="M7.32233 42.6777C9.6438 44.9991 12.3998 46.8406 15.4329 48.097C18.4661 49.3534 21.717 50 25 50C28.2831 50 31.534 49.3534 34.5671 48.097C37.6002 46.8406 40.3562 44.9991 42.6777 42.6777L25 25L7.32233 42.6777Z" fill="#797979"/>
<path d="M7.32233 7.32233C5.00086 9.6438 3.15938 12.3998 1.90301 15.4329C0.646641 18.4661 -1.97988e-06 21.717 -1.09278e-06 25C-2.05688e-07 28.2831 0.646645 31.534 1.90301 34.5671C3.15938 37.6002 5.00087 40.3562 7.32234 42.6777L25 25L7.32233 7.32233Z" fill="#404040"/>
</svg>
