<svg width="48" height="48" viewBox="0 0 48 48" fill="none" xmlns="http://www.w3.org/2000/svg">
<path d="M21.4 25.45L19.7 22.9C19.5333 22.6333 19.3 22.4167 19 22.25C18.7 22.0833 18.3833 22 18.05 22H4.95C4.58333 21.1333 4.33333 20.3 4.2 19.5C4.06667 18.7 4 17.8667 4 17C4 13.8667 5.05 11.25 7.15 9.15C9.25 7.05 11.8667 6 15 6C16.7333 6 18.3833 6.36667 19.95 7.1C21.5167 7.83333 22.8667 8.86667 24 10.2C25.1333 8.86667 26.4833 7.83333 28.05 7.1C29.6167 6.36667 31.2667 6 33 6C36.1333 6 38.75 7.05 40.85 9.15C42.95 11.25 44 13.8667 44 17C44 17.8667 43.9333 18.7 43.8 19.5C43.6667 20.3 43.4167 21.1333 43.05 22H31.15L27.7 16.9C27.5 16.6 27.242 16.3753 26.926 16.226C26.61 16.0767 26.268 16.0013 25.9 16C25.4667 16 25.092 16.1253 24.776 16.376C24.46 16.6267 24.2347 16.9513 24.1 17.35L21.4 25.45ZM24 42.7L21.1 40.1C17.6 36.9667 14.7333 34.2833 12.5 32.05C10.2667 29.8167 8.51667 27.8 7.25 26H16.85L20.3 31.1C20.5 31.4 20.7587 31.6253 21.076 31.776C21.3933 31.9267 21.7347 32.0013 22.1 32C22.5333 32 22.9087 31.8753 23.226 31.626C23.5433 31.3767 23.768 31.0513 23.9 30.65L26.6 22.5L28.35 25.1C28.5167 25.3667 28.75 25.5833 29.05 25.75C29.35 25.9167 29.6667 26 30 26H40.75C39.4833 27.8 37.7333 29.8167 35.5 32.05C33.2667 34.2833 30.4 36.9667 26.9 40.1L24 42.7Z" fill="white"/>
</svg>
