<svg width="50" height="51" viewBox="0 0 50 51" fill="none" xmlns="http://www.w3.org/2000/svg">
<path opacity="0.5" fill-rule="evenodd" clip-rule="evenodd" d="M4.16699 19.4164C4.16699 28.7772 11.0382 34.177 16.8884 38.7745C17.4964 39.2524 18.0935 39.7216 18.6706 40.1857C20.8337 41.925 22.917 43.5625 25.0003 43.5625V11.6889C15.6257 1.75414 4.16699 9.08262 4.16699 19.4164Z" fill="white"/>
<path d="M29.1667 15.936L25 11.6889V43.5625C27.0833 43.5625 29.1667 41.925 31.3298 40.1857C31.9069 39.7216 32.504 39.2524 33.1119 38.7745C38.9621 34.177 45.8333 28.7772 45.8333 19.4164C45.8333 9.93366 36.1844 2.98159 27.351 9.57765L31.376 13.6817C31.9862 14.304 31.9865 15.3131 31.3765 15.9356C30.7663 16.5581 29.7769 16.5583 29.1667 15.936Z" fill="white"/>
</svg>
