<svg width="48" height="48" viewBox="0 0 48 48" fill="none" xmlns="http://www.w3.org/2000/svg">
<path d="M18.0001 24C19.5914 24 21.1175 23.3679 22.2427 22.2426C23.3679 21.1174 24.0001 19.5913 24.0001 18M24.0001 18C24.0001 19.5913 24.6322 21.1174 25.7574 22.2426C26.8827 23.3679 28.4088 24 30.0001 24M24.0001 18V8M12.1621 40C15.3861 40 18.0001 37.33 18.0001 34.04V14.514C18.0001 13.126 16.8961 12 15.5361 12C15.1261 12 14.7261 12.104 14.3681 12.3L14.1081 12.466C11.1881 14.584 9.24407 17.76 7.30007 24.114C6.46007 26.854 6.02807 30.038 6.00407 33.664C5.98007 37.014 8.52607 39.772 11.7581 39.986L12.1621 40ZM35.8401 40C32.6141 40 30.0001 37.33 30.0001 34.04V14.514C30.0001 13.126 31.1041 12 32.4661 12C32.8741 12 33.2761 12.104 33.6341 12.3L33.8941 12.466C36.8141 14.584 38.7581 17.76 40.7041 24.114C41.5441 26.854 41.9761 30.038 42.0001 33.664C42.0241 37.014 39.4781 39.772 36.2441 39.986L35.8401 40Z" stroke="white" stroke-width="4" stroke-linecap="round" stroke-linejoin="round"/>
</svg>
