<svg width="50" height="50" viewBox="0 0 50 50" fill="none" xmlns="http://www.w3.org/2000/svg">
<path d="M37.4805 34.3457C37.7246 34.1016 47.7539 25.3223 47.7539 25.3223L46.0449 24.5898C45.0684 24.1113 45.3223 23.4668 45.5566 22.8906C45.791 22.1484 47.5195 16.3184 47.5195 16.3184C47.5195 16.3184 42.8613 17.2949 41.8848 17.5391C41.1523 17.7734 40.9082 17.2949 40.6641 16.8066C40.4199 16.3184 39.1992 13.6426 39.1992 13.6426C39.1992 13.6426 34.0625 19.4922 33.8184 19.7266C32.8418 20.459 31.8555 19.7266 32.0996 18.75C32.0996 17.7734 34.7949 6.09375 34.7949 6.09375C34.7949 6.09375 31.8555 7.79297 30.8789 8.28125C30.1465 8.76953 29.6484 8.76953 29.1602 7.79297C28.6621 7.06055 24.9902 0 24.9902 0C24.9902 0 21.3281 7.06055 20.8398 7.79297C20.3516 8.76953 19.8633 8.76953 19.1211 8.28125C18.1445 7.79297 15.2051 6.09375 15.2051 6.09375C15.2051 6.09375 17.9004 17.7734 17.9004 18.75C18.1445 19.7266 17.168 20.459 16.1816 19.7266C15.9375 19.4824 10.8008 13.6426 10.8008 13.6426C10.8008 13.6426 9.58008 16.3086 9.33594 16.7969C9.0918 17.2852 8.84766 17.7637 8.11523 17.5293C7.12891 17.2852 2.48047 16.3086 2.48047 16.3086C2.48047 16.3086 4.19922 22.1387 4.44336 22.8809C4.67773 23.4668 4.93164 24.1016 3.95508 24.5801L2.24609 25.3223C2.24609 25.3223 12.2656 34.1016 12.5195 34.3457C13.0176 34.834 13.4961 35.0781 13.0176 36.543C12.5195 38.0078 12.0312 39.9707 12.0312 39.9707C12.0312 39.9707 21.3281 38.0078 22.3145 37.7637C23.1641 37.6758 24.1016 38.0078 24.1016 38.9844C24.1016 39.9609 23.5352 50 23.5352 50H26.4648C26.4648 50 25.8984 39.9707 25.8984 38.9844C25.8984 37.998 26.8262 37.6758 27.6953 37.7637C28.6719 38.0078 37.9688 39.9707 37.9688 39.9707C37.9688 39.9707 37.4805 38.0078 36.9922 36.543C36.5039 35.0781 36.9922 34.834 37.4805 34.3457Z" fill="white"/>
</svg>
