<svg width="60" height="60" viewBox="0 0 60 60" fill="none" xmlns="http://www.w3.org/2000/svg">
<path d="M12.3223 12.3223C10.0009 14.6437 8.15938 17.3997 6.90301 20.4328C5.64664 23.466 5 26.7169 5 29.9999C5 33.283 5.64665 36.5339 6.90301 39.567C8.15938 42.6001 10.0009 45.3561 12.3223 47.6776L30 29.9999L12.3223 12.3223Z" fill="#3981B7" fill-opacity="0.77"/>
<path d="M47.6777 47.6776C49.9991 45.3561 51.8406 42.6001 53.097 39.567C54.3534 36.5338 55 33.2829 55 29.9999C55 26.7168 54.3534 23.4659 53.097 20.4328C51.8406 17.3997 49.9991 14.6437 47.6777 12.3223L30 29.9999L47.6777 47.6776Z" fill="#81C2F2" fill-opacity="0.9"/>
<path d="M12.3223 47.6777C14.6438 49.9991 17.3998 51.8406 20.4329 53.097C23.4661 54.3534 26.717 55 30 55C33.2831 55 36.534 54.3534 39.5671 53.097C42.6002 51.8406 45.3562 49.9991 47.6777 47.6777L30 30L12.3223 47.6777Z" fill="#4CA9EE"/>
<path d="M47.6777 12.3223C45.3562 10.0009 42.6002 8.15938 39.5671 6.90301C36.5339 5.64664 33.283 5 30 5C26.7169 5 23.466 5.64665 20.4329 6.90301C17.3998 8.15938 14.6438 10.0009 12.3223 12.3223L30 30L47.6777 12.3223Z" fill="#A8DAFF" fill-opacity="0.9"/>
</svg>
