<svg width="60" height="60" viewBox="0 0 60 60" fill="none" xmlns="http://www.w3.org/2000/svg">
<path d="M46.2635 12.7366C47.0445 11.9555 47.0494 10.6823 46.2084 9.96614C44.2235 8.27591 41.9832 6.90382 39.5671 5.90301C36.5339 4.64664 33.283 4 30 4C26.7169 4 23.466 4.64665 20.4329 5.90301C18.0168 6.90382 15.7765 8.27592 13.7916 9.96616C12.9506 10.6823 12.9555 11.9555 13.7365 12.7366L28.5858 27.5858C29.3668 28.3668 30.6332 28.3668 31.4142 27.5858L46.2635 12.7366Z" fill="white" fill-opacity="0.9"/>
<path d="M47.2635 46.2634C48.0445 47.0445 49.3178 47.0493 50.0339 46.2083C51.7241 44.2234 53.0962 41.9832 54.097 39.567C55.3534 36.5338 56 33.2829 56 29.9999C56 26.7168 55.3534 23.4659 54.097 20.4328C53.0962 18.0167 51.7241 15.7764 50.0339 13.7916C49.3178 12.9506 48.0445 12.9554 47.2635 13.7365L32.4142 28.5857C31.6332 29.3668 31.6332 30.6331 32.4142 31.4142L47.2635 46.2634Z" fill="#FEF200" fill-opacity="0.9"/>
<path d="M13.7366 47.2635C12.9555 48.0445 12.9506 49.3178 13.7916 50.0339C15.7765 51.7241 18.0168 53.0962 20.4329 54.097C23.4661 55.3534 26.717 56 30 56C33.2831 56 36.534 55.3534 39.5671 54.097C41.9832 53.0962 44.2235 51.7241 46.2084 50.0339C47.0494 49.3178 47.0445 48.0445 46.2635 47.2635L31.4142 32.4142C30.6332 31.6332 29.3668 31.6332 28.5858 32.4142L13.7366 47.2635Z" fill="#EE1C25" fill-opacity="0.9"/>
<path d="M12.7365 13.7365C11.9555 12.9554 10.6823 12.9506 9.96615 13.7915C8.27591 15.7764 6.90382 18.0167 5.90301 20.4328C4.64664 23.466 4 26.7169 4 29.9999C4 33.283 4.64665 36.5339 5.90301 39.567C6.90382 41.9832 8.27591 44.2235 9.96615 46.2084C10.6823 47.0493 11.9555 47.0445 12.7366 46.2634L27.5858 31.4141C28.3668 30.6331 28.3668 29.3668 27.5858 28.5857L12.7365 13.7365Z" fill="#1A1617" fill-opacity="0.9"/>
<rect x="23.974" y="24.9756" width="7.10946" height="7.03432" transform="rotate(45 23.974 24.9756)" fill="#2D2A2B"/>
<rect x="35.974" y="24.9756" width="7.14721" height="7.03432" transform="rotate(45 35.974 24.9756)" fill="#FBF016"/>
<rect x="30.0034" y="31.0005" width="7.126" height="7.05471" transform="rotate(45 30.0034 31.0005)" fill="#EC2F37"/>
<rect x="29.9912" y="19" width="7.08518" height="7.05471" transform="rotate(45 29.9912 19)" fill="#FBFBFB"/>
</svg>
