<svg width="48" height="48" viewBox="0 0 48 48" fill="none" xmlns="http://www.w3.org/2000/svg">
<path d="M9 42C9 42 6 42 6 39C6 36 9 27 24 27C39 27 42 36 42 39C42 42 39 42 39 42H9ZM24 24C26.3869 24 28.6761 23.0518 30.364 21.364C32.0518 19.6761 33 17.3869 33 15C33 12.6131 32.0518 10.3239 30.364 8.63604C28.6761 6.94821 26.3869 6 24 6C21.6131 6 19.3239 6.94821 17.636 8.63604C15.9482 10.3239 15 12.6131 15 15C15 17.3869 15.9482 19.6761 17.636 21.364C19.3239 23.0518 21.6131 24 24 24Z" fill="white"/>
</svg>
