<svg width="52" height="44" viewBox="0 0 52 44" fill="none" xmlns="http://www.w3.org/2000/svg">
<path d="M47.6667 2.75H4.33333C1.94097 2.75 0 4.59766 0 6.875V8.25H52V6.875C52 4.59766 50.059 2.75 47.6667 2.75ZM0 37.125C0 39.4023 1.94097 41.25 4.33333 41.25H47.6667C50.059 41.25 52 39.4023 52 37.125V11H0V37.125ZM31.7778 17.1875C31.7778 16.8094 32.1028 16.5 32.5 16.5H45.5C45.8972 16.5 46.2222 16.8094 46.2222 17.1875V18.5625C46.2222 18.9406 45.8972 19.25 45.5 19.25H32.5C32.1028 19.25 31.7778 18.9406 31.7778 18.5625V17.1875ZM31.7778 22.6875C31.7778 22.3094 32.1028 22 32.5 22H45.5C45.8972 22 46.2222 22.3094 46.2222 22.6875V24.0625C46.2222 24.4406 45.8972 24.75 45.5 24.75H32.5C32.1028 24.75 31.7778 24.4406 31.7778 24.0625V22.6875ZM31.7778 28.1875C31.7778 27.8094 32.1028 27.5 32.5 27.5H45.5C45.8972 27.5 46.2222 27.8094 46.2222 28.1875V29.5625C46.2222 29.9406 45.8972 30.25 45.5 30.25H32.5C32.1028 30.25 31.7778 29.9406 31.7778 29.5625V28.1875ZM15.8889 16.5C19.0757 16.5 21.6667 18.9664 21.6667 22C21.6667 25.0336 19.0757 27.5 15.8889 27.5C12.7021 27.5 10.1111 25.0336 10.1111 22C10.1111 18.9664 12.7021 16.5 15.8889 16.5ZM6.05764 34.0484C6.81597 31.8398 8.99167 30.25 11.5556 30.25H12.2958C13.4062 30.6883 14.616 30.9375 15.8889 30.9375C17.1618 30.9375 18.3806 30.6883 19.4819 30.25H20.2222C22.7861 30.25 24.9618 31.8398 25.7201 34.0484C26.009 34.8992 25.2507 35.75 24.3118 35.75H7.46597C6.52708 35.75 5.76875 34.8906 6.05764 34.0484Z" fill="#4CA9EE"/>
</svg>
