<svg width="36" height="36" viewBox="0 0 36 36" fill="none" xmlns="http://www.w3.org/2000/svg">
<path d="M26.4196 23.274C28.5982 20.301 29.574 16.6151 29.1518 12.9536C28.7295 9.29205 26.9402 5.92499 24.142 3.52602C21.3438 1.12705 17.743 -0.12691 14.0599 0.0150046C10.3769 0.156919 6.88323 1.68425 4.27792 4.29142C1.67261 6.8986 0.147781 10.3934 0.00850157 14.0765C-0.130778 17.7597 1.12576 21.3596 3.52673 24.1561C5.92771 26.9526 9.29604 28.7394 12.9579 29.159C16.6197 29.5787 20.3049 28.6003 23.2763 26.4195H23.2741C23.3416 26.5095 23.4136 26.595 23.4946 26.6782L32.1571 35.3407C32.579 35.7629 33.1513 36.0002 33.7481 36.0004C34.345 36.0006 34.9175 35.7638 35.3397 35.3419C35.7619 34.92 35.9992 34.3476 35.9994 33.7508C35.9996 33.1539 35.7627 32.5814 35.3408 32.1592L26.6783 23.4967C26.5979 23.4153 26.5114 23.3423 26.4196 23.274ZM27.0001 14.625C27.0001 16.2501 26.68 17.8593 26.0581 19.3607C25.4362 20.8621 24.5246 22.2263 23.3755 23.3754C22.2264 24.5246 20.8622 25.4361 19.3608 26.058C17.8594 26.6799 16.2502 27 14.6251 27C13 27 11.3908 26.6799 9.88936 26.058C8.38796 25.4361 7.02375 24.5246 5.87462 23.3754C4.7255 22.2263 3.81396 20.8621 3.19206 19.3607C2.57016 17.8593 2.25007 16.2501 2.25007 14.625C2.25007 11.3429 3.55386 8.1953 5.87462 5.87454C8.19538 3.55377 11.343 2.24998 14.6251 2.24998C17.9071 2.24998 21.0548 3.55377 23.3755 5.87454C25.6963 8.1953 27.0001 11.3429 27.0001 14.625Z" fill="white"/>
</svg>
