<svg width="48" height="48" viewBox="0 0 48 48" fill="none" xmlns="http://www.w3.org/2000/svg">
<path d="M23.1739 37.764C22.9265 37.517 22.5912 37.3782 22.2416 37.3782C21.892 37.3782 21.5567 37.517 21.3094 37.764L15.1009 43.968L14.3284 43.1955L22.6534 34.8817C22.9008 34.6345 23.0399 34.2991 23.0401 33.9493C23.0402 33.5995 22.9014 33.2639 22.6541 33.0165C22.4069 32.7691 22.0715 32.63 21.7217 32.6298C21.3719 32.6297 21.0363 32.7685 20.7889 33.0157L12.4661 41.331L11.6951 40.56L21.3776 30.8857C21.6086 30.6355 21.7338 30.3057 21.7271 29.9653C21.7205 29.6248 21.5825 29.3001 21.3419 29.0591C21.1014 28.8181 20.777 28.6794 20.4366 28.6721C20.0961 28.6648 19.7661 28.7893 19.5154 29.0197L9.83137 38.6932L9.06037 37.9208L16.6594 30.3277C16.8901 30.0773 17.0151 29.7474 17.0081 29.407C17.0012 29.0666 16.8629 28.742 16.6222 28.5012C16.3815 28.2603 16.057 28.1219 15.7165 28.1149C15.3761 28.1078 15.0461 28.2326 14.7956 28.4632L5.01937 38.2207C5.01057 36.8278 5.00582 35.4348 5.00512 34.0417C5.00512 31.9102 2.31187 31.5945 2.17762 31.743C2.04637 31.8975 0.703125 46.6995 0.703125 46.6995H16.1171L16.9759 45.8407L16.9646 45.831L23.1754 39.6255C23.4227 39.3783 23.5617 39.0431 23.5619 38.6934C23.562 38.3438 23.4232 38.0084 23.1761 37.761L23.1739 37.764Z" fill="white"/>
<path d="M30.1092 1.47225C22.3152 1.47225 15.134 7.31925 13.637 13.758C13.3017 15.1935 12.9267 18.9315 12.9267 18.9315L9.34547 27.957C9.2565 28.1675 9.22106 28.3967 9.24233 28.6242C9.2636 28.8517 9.34091 29.0704 9.46736 29.2608C9.5938 29.4511 9.76544 29.6072 9.96693 29.715C10.1684 29.8227 10.3935 29.8789 10.622 29.8785H11.8445L14.0277 27.6967C14.3347 27.3893 14.7194 27.171 15.1407 27.065C15.562 26.959 16.0042 26.9694 16.4201 27.0951C16.836 27.2207 17.21 27.4569 17.5022 27.7784C17.7944 28.1 17.9938 28.4948 18.0792 28.9207L18.7475 28.2533C19.1951 27.8181 19.7947 27.5745 20.419 27.5742C21.0433 27.5738 21.6432 27.8168 22.0913 28.2514C22.5394 28.6861 22.8006 29.2782 22.8193 29.9023C22.838 30.5263 22.6128 31.133 22.1915 31.5937C22.6176 31.6793 23.0126 31.8788 23.3343 32.171C23.656 32.4632 23.8925 32.8372 24.0184 33.2532C24.1444 33.6692 24.1552 34.1115 24.0497 34.5332C23.9442 34.9548 23.7263 35.3399 23.4192 35.6475L22.7217 36.3435C23.1687 36.4342 23.5947 36.651 23.9405 36.9967C24.3911 37.4475 24.6443 38.0588 24.6443 38.6962C24.6443 39.3337 24.3911 39.945 23.9405 40.3957L22.3917 41.9422V46.701H40.727V32.1307C44.7185 28.992 47.2902 24.1125 47.2902 18.6383C47.2902 9.15525 39.602 1.4715 30.1092 1.4715V1.47225ZM17.1575 22.3598C16.9058 22.36 16.6566 22.3107 16.424 22.2146C16.1914 22.1185 15.98 21.9776 15.8019 21.7998C15.4422 21.4408 15.2398 20.9536 15.2393 20.4454C15.2389 19.9372 15.4403 19.4496 15.7993 19.0898C16.1583 18.7301 16.6455 18.5277 17.1537 18.5272C17.6619 18.5268 18.1495 18.7282 18.5093 19.0872C18.869 19.4462 19.0714 19.9334 19.0718 20.4416C19.0723 20.9498 18.8709 21.4375 18.5119 21.7972C18.1529 22.1569 17.6657 22.3593 17.1575 22.3598ZM26.1245 26.8245C26.603 26.8245 26.999 27.2167 26.999 27.6937C26.999 28.1767 26.603 28.566 26.1245 28.566C26.0071 28.5709 25.8899 28.552 25.78 28.5104C25.6701 28.4688 25.5698 28.4055 25.485 28.3241C25.4002 28.2428 25.3328 28.1452 25.2867 28.0371C25.2406 27.929 25.2168 27.8127 25.2168 27.6952C25.2168 27.5778 25.2406 27.4615 25.2867 27.3534C25.3328 27.2453 25.4002 27.1477 25.485 27.0664C25.5698 26.985 25.6701 26.9217 25.78 26.8801C25.8899 26.8385 26.0071 26.8196 26.1245 26.8245ZM25.604 32.2762C25.4893 32.2761 25.3758 32.2533 25.27 32.2092C25.1642 32.1652 25.068 32.1007 24.9871 32.0195C24.9062 31.9383 24.842 31.8419 24.7984 31.7359C24.7547 31.63 24.7323 31.5164 24.7325 31.4017C24.7327 31.2871 24.7554 31.1736 24.7995 31.0678C24.8436 30.9619 24.908 30.8658 24.9892 30.7849C25.0704 30.704 25.1668 30.6398 25.2728 30.5961C25.3788 30.5524 25.4923 30.5301 25.607 30.5302C25.8385 30.5306 26.0604 30.623 26.2238 30.787C26.3873 30.951 26.4789 31.1732 26.4785 31.4047C26.4781 31.6363 26.3857 31.8582 26.2217 32.0216C26.0577 32.1851 25.8355 32.2766 25.604 32.2762ZM27.467 36.0307C27.1203 36.0017 26.7994 35.8363 26.5747 35.5708C26.35 35.3053 26.2398 34.9614 26.2685 34.6147C26.2996 34.2693 26.4661 33.9502 26.7317 33.7272C26.9973 33.5042 27.3404 33.3954 27.686 33.4245C28.4037 33.486 28.9385 34.1205 28.874 34.8368C28.8602 35.0076 28.8128 35.174 28.7346 35.3265C28.6563 35.4789 28.5488 35.6145 28.4181 35.7253C28.2874 35.8362 28.1361 35.9201 27.9729 35.9724C27.8097 36.0247 27.6378 36.045 27.467 36.0307ZM28.724 30.801C28.5526 30.801 28.3829 30.7672 28.2246 30.7017C28.0662 30.6361 27.9224 30.54 27.8012 30.4188C27.68 30.2976 27.5839 30.1537 27.5183 29.9954C27.4527 29.8371 27.419 29.6674 27.419 29.496C27.419 29.3246 27.4527 29.1549 27.5183 28.9966C27.5839 28.8383 27.68 28.6944 27.8012 28.5732C27.9224 28.452 28.0662 28.3559 28.2246 28.2903C28.3829 28.2248 28.5526 28.191 28.724 28.191C29.4402 28.191 30.0237 28.7745 30.0237 29.4952C30.0237 30.216 29.4402 30.801 28.724 30.801ZM30.5787 33.5377C30.0942 33.5377 29.7012 33.1492 29.7012 32.664C29.7106 32.4383 29.8068 32.225 29.9698 32.0687C30.1328 31.9123 30.3499 31.825 30.5757 31.825C30.8016 31.825 31.0187 31.9123 31.1817 32.0687C31.3447 32.225 31.4409 32.4383 31.4502 32.664C31.4502 33.1485 31.061 33.5377 30.5787 33.5377ZM32.5287 28.467H32.2235V26.9093L32.525 26.9062C33.4605 26.9031 34.3568 26.5307 35.0191 25.8699C35.6813 25.2092 36.0559 24.3137 36.0612 23.3783C36.0561 22.443 35.6818 21.5476 35.0198 20.8869C34.3579 20.2262 33.4618 19.8536 32.5265 19.8502L32.2235 19.8488V18.2925H32.5287C35.3375 18.2925 37.6205 20.5725 37.6205 23.3783C37.6205 26.184 35.3375 28.467 32.5287 28.467Z" fill="white"/>
</svg>
