<svg width="44" height="44" viewBox="0 0 44 44" fill="none" xmlns="http://www.w3.org/2000/svg">
<path d="M40.3055 19.6591L32.5539 26.4241L34.876 36.496C34.9989 37.0225 34.9638 37.5736 34.7752 38.0803C34.5866 38.587 34.2528 39.0268 33.8155 39.3449C33.3783 39.6629 32.857 39.845 32.3168 39.8684C31.7766 39.8917 31.2416 39.7553 30.7785 39.4763L21.9939 34.1481L13.2283 39.4763C12.7652 39.7553 12.2302 39.8917 11.69 39.8684C11.1498 39.845 10.6285 39.6629 10.1913 39.3449C9.75403 39.0268 9.42023 38.587 9.23162 38.0803C9.04301 37.5736 9.00794 37.0225 9.13082 36.496L11.4494 26.4344L3.69613 19.6591C3.28605 19.3054 2.98952 18.8385 2.84373 18.317C2.69793 17.7955 2.70936 17.2425 2.87658 16.7274C3.0438 16.2124 3.35937 15.7581 3.78372 15.4217C4.20806 15.0853 4.72229 14.8816 5.26191 14.8363L15.4816 13.9511L19.4708 4.43612C19.6791 3.93685 20.0305 3.51038 20.4807 3.2104C20.9309 2.91043 21.4598 2.75037 22.0008 2.75037C22.5418 2.75037 23.0707 2.91043 23.5209 3.2104C23.9711 3.51038 24.3225 3.93685 24.5308 4.43612L28.5321 13.9511L38.7483 14.8363C39.2879 14.8816 39.8022 15.0853 40.2265 15.4217C40.6509 15.7581 40.9664 16.2124 41.1336 16.7274C41.3009 17.2425 41.3123 17.7955 41.1665 18.317C41.0207 18.8385 40.7242 19.3054 40.3141 19.6591H40.3055Z" fill="#4CA9EE"/>
</svg>
