<svg width="50" height="40" viewBox="0 0 50 40" fill="none" xmlns="http://www.w3.org/2000/svg">
<g clip-path="url(#clip0_119_10)">
<path d="M16.1199 27.5C25.0246 27.5 32.2399 21.3438 32.2399 13.75C32.2399 6.15625 25.0246 0 16.1199 0C7.21512 0 -0.000128368 6.15625 -0.000128368 13.75C-0.000128368 16.7656 1.13912 19.5547 3.06887 21.8281C2.79762 22.5625 2.39462 23.2109 1.96837 23.7578C1.59637 24.2422 1.21662 24.6172 0.937622 24.875C0.798122 25 0.681872 25.1016 0.604372 25.1641C0.565622 25.1953 0.534622 25.2188 0.519122 25.2266L0.503622 25.2422C0.0773716 25.5625 -0.108628 26.125 0.0618716 26.6328C0.232372 27.1406 0.705122 27.5 1.23987 27.5C2.92937 27.5 4.63437 27.0625 6.05262 26.5234C6.76562 26.25 7.43212 25.9453 8.01337 25.6328C10.3926 26.8203 13.1594 27.5 16.1199 27.5ZM34.7199 13.75C34.7199 22.5234 27.0396 29.1328 17.9411 29.9219C19.8244 35.7344 26.0709 40 33.4799 40C36.4404 40 39.2071 39.3203 41.5941 38.1328C42.1754 38.4453 42.8341 38.75 43.5471 39.0234C44.9654 39.5625 46.6704 40 48.3599 40C48.8946 40 49.3751 39.6484 49.5379 39.1328C49.7006 38.6172 49.5224 38.0547 49.0884 37.7344L49.0729 37.7188C49.0574 37.7031 49.0264 37.6875 48.9876 37.6562C48.9101 37.5938 48.7939 37.5 48.6544 37.3672C48.3754 37.1094 47.9956 36.7344 47.6236 36.25C47.1974 35.7031 46.7944 35.0469 46.5231 34.3203C48.4529 32.0547 49.5921 29.2656 49.5921 26.2422C49.5921 18.9922 43.0124 13.0469 34.6656 12.5312C34.6966 12.9297 34.7121 13.3359 34.7121 13.7422L34.7199 13.75Z" fill="white"/>
</g>
<defs>
<clipPath id="clip0_119_10">
<rect width="49.6" height="40" fill="white"/>
</clipPath>
</defs>
</svg>
